<svg xmlns="http://www.w3.org/2000/svg" viewBox="0 0 900.97 506"><defs><style>.a{fill:#cfcfe0;}</style></defs><path class="a" d="M476.08-22.19a.24.24,0,0,0,0,.19.35.35,0,0,0,.15.12c.8.31,1.59.62,2.39.95l-.06,0,.78.35c.32.15.63.33.95.5.56.31,1.11.65,1.66,1s1.12.77,1.67,1.16l.7.52,2.5,1.91,1.7,1.33c.45.36.9.72,1.36,1.07l-.06,0,.62.48h0l0,0h0c.42.32.82.64,1.24,1h0l0,0h0l.62.48h0l0,0h0l.09.07,0,0,.05,0h0c.33.26.67.5,1,.75l1.2.89L497-7.78l1.62,1.17.83.59,2.67,2h0l1.73,1.37c.42.32.81.64,1.22,1l1.76,1.44L508.28,1l3.07,2.57,3.15,2.64c.42.35.82.7,1.24,1l1.93,1.55.45.36.71.55L520.61,11l0,0c.55.43,1.11.85,1.67,1.27l1.37,1c1,.77,2,1.53,3.08,2.27L530,18l1.66,1.21.61.42,1.15.8c.52.36,1,.69,1.57,1l1.52,1c1,.67,2.08,1.33,3.11,2l1.76,1.17,1.63,1.06,1.65,1.1,1,.69.62.42L549.71,31l1.81,1.17c.56.37,1.13.73,1.7,1.09,1.11.71,2.25,1.35,3.4,2s2.17,1.18,3.26,1.76c2.35,1.23,4.68,2.51,7,3.75.56.3,1.11.6,1.65.91l1.71.95c.57.31,1.13.63,1.7.93l.89.48.95.52,1.71,1c.52.29,1,.59,1.54.89l1.75,1,1.64.93.78.43.79.44.84.48.75.44c.58.34,1.15.68,1.71,1l.73.48.79.54,1.2.81,1.28.92,1.13.83c.43.32.88.62,1.32.92s.73.48,1.1.71l.65.4c.23.13.46.25.68.39l.61.37c.2.13.43.24.64.38l.57.37.24.15.29.16.12.06.16.1h0l0,0h0L597,59l.27.16a.25.25,0,0,0,.34-.09.24.24,0,0,0-.09-.34,3.28,3.28,0,0,1-.31-.2h0l-.11-.08-.1-.08-.23-.12a4,4,0,0,1-.45-.26c-.23-.15-.46-.31-.69-.45l-.19-.11-.2-.11-.32-.2-.81-.49c-.51-.27-1-.59-1.48-.9l-.7-.46-.81-.55-1.52-1.1c-.49-.37-1-.73-1.5-1.08l-.69-.47-.76-.52c-.51-.34-1-.68-1.54-1s-1.13-.69-1.71-1l-1.61-.92-1.62-.9-1.67-.95-1.67-1c-.56-.33-1.13-.65-1.7-1l-.85-.49-.89-.49-.75-.4-.83-.46L570.18,42l-.77-.43-.9-.5c-.29-.16-.57-.33-.86-.48l-.9-.48-1.88-1-3.54-1.9c-1.08-.58-2.17-1.14-3.25-1.73l-1.88-1-1.64-.94-.33-.2-.55-.34-.75-.47-1.75-1.14c-1-.67-2.06-1.32-3.09-2l-1-.66-.66-.43-1.65-1.11-1.68-1.11L541.46,25l-1.06-.71-.7-.46-1.87-1.21c-.54-.36-1.09-.7-1.64-1.05l-1.59-1-.68-.45-.2-.14-.59-.41c-.51-.35-1-.71-1.54-1.08l-2.94-2.13-2.36-1.7-1.38-1-1.54-1.15-2.43-1.85h0l0,0h0l-2.48-1.91L518,8.34l-1.14-.92-1.14-.93L512.6,3.91c-2.09-1.75-4.17-3.5-6.28-5.22l-1.68-1.37-.6-.47-1.17-.92-.49-.38L501.69-5l-2-1.52-.34-.24-1.12-.8-1.43-1q-1.82-1.32-3.61-2.66l-.38-.28h0l0,0h0l0,0c-.18-.15-.37-.29-.56-.43h0l-.05,0h0l-1.26-1,0,0-.66-.52h0l-.05,0h0l-.07-.06h0l-.72-.56-1.53-1.21-.77-.6-1.05-.8-1.37-1.05q-.94-.72-1.92-1.38c-.48-.34-1-.65-1.48-.95a18.52,18.52,0,0,0-1.69-.93c-.47-.23-.95-.42-1.44-.62l-1.79-.7-.07,0a.26.26,0,0,0-.23.19Z" transform="translate(50.98 40.54)"/><path class="a" d="M520.63,11h0Z" transform="translate(50.98 40.54)"/><path class="a" d="M520.91,10.63l0,0-.05,0Z" transform="translate(50.98 40.54)"/><polygon class="a" points="543.52 29.47 543.52 29.47 543.52 29.47 543.52 29.47 543.52 29.47 543.52 29.47"/><path class="a" d="M492.73-11.55l0,0,0,0Z" transform="translate(50.98 40.54)"/><path class="a" d="M491.78-11.66l0,0h0l0,0Z" transform="translate(50.98 40.54)"/><path class="a" d="M492.17-12h0s0,0,0,0l0,0Z" transform="translate(50.98 40.54)"/><path class="a" d="M490.87-13l0,0,0,0Z" transform="translate(50.98 40.54)"/><path class="a" d="M595.79,55.49a2.75,2.75,0,0,0-.41-.24l-.3-.12,0,0-.32-.15-.36-.21c-.26-.14-.51-.3-.77-.46s-.42-.29-.64-.42-.51-.33-.76-.51l-1.44-1c-.44-.3-.89-.59-1.35-.88-.23-.14-.46-.3-.69-.46s-.51-.33-.77-.49l-.76-.49-.8-.53-1.52-1-1.55-1c-.49-.31-1-.61-1.49-.9s-1.11-.61-1.68-.91c-.79-.41-1.58-.84-2.37-1.26l-2.64-1.91-8.52-6.16-2.4-1.74c-.52-.16-1-.32-1.55-.5L566.51,37l8.32,6-1.2-.62L572,41.49l-1.61-.84L567,38.92c-.54-.29-1.08-.56-1.62-.84l-.76-.41-.74-.4-1.6-.91c-.54-.32-1.09-.62-1.63-1l-1.06-.66-.58-.37c-.61-.39-1.22-.78-1.82-1.18l-3-2L550.93,29c-2.13-1.43-4.23-2.9-6.33-4.37-.46-.32-.93-.62-1.4-.93l-1.3-.85L540,21.63l-.63-.39c-4.07-2.46-8.12-5-12.06-7.64l-.12-.08,0,0-1.33-.9c-1.09-.74-2.18-1.48-3.26-2.23l-3.2-2.2c-1.06-.73-2.12-1.46-3.19-2.18L513,3.85,510.22,2,507.34.05l-2.17-1.44-1.39-.92-.43-.27-1.08-.69-1.91-1.21L499-5.35,498-6l-.41-.27L495.72-7.6l-.39-.29-1.09-.84-.68-.51h0L492-10.51c-.38-.31-.77-.61-1.14-.92L488.92-13l-.3-.27-.83-.79c-.42-.4-.84-.79-1.25-1.2l-1.62-1.61c-.16-.16-.3-.32-.44-.48l-.77-.85-.53-.61c-.24-.28-.48-.55-.71-.84l-.25-.3a6.74,6.74,0,0,1-.42-.62c-.08-.12-.15-.24-.22-.37l-.22-.45h0l0,0v0h0l-.09-.25c0-.12-.06-.24-.09-.36s-.36-.2-.53-.31a1.48,1.48,0,0,0,0,.21,3,3,0,0,0,.24.89,8.31,8.31,0,0,0,.48.94,4.1,4.1,0,0,0,.35.5c.13.18.27.35.41.52s.42.5.64.75.39.47.59.69l.7.77.51.56c.54.54,1.08,1.08,1.63,1.61s.83.8,1.25,1.2l.79.76c.11.11.22.2.33.3l1.91,1.62c.37.32.76.62,1.13.92l1.61,1.27.53.41,1.12.85.56.43.18.13.54.38,1,.73.39.27,2.09,1.34,3.25,2.06.91.59,2.06,1.37c2,1.33,4,2.68,6,4l3.56,2.4,1.33.91c.5.33,1,.67,1.48,1,2,1.39,4,2.79,6.07,4.17,1.07.72,2.13,1.45,3.21,2.16l1.93,1.26.4.26,1.17.74c1,.6,1.93,1.21,2.89,1.82l1.75,1.1,1.73,1.08c1,.6,1.94,1.2,2.9,1.82l1.84,1.18.55.37,1.13.75c.44.29.88.6,1.32.91s.93.66,1.41,1L550,29c2.08,1.41,4.18,2.8,6.27,4.19l1.38.9c.5.33,1,.66,1.51,1l1.08.68.55.34c.57.32,1.12.66,1.69,1s1.1.64,1.67.93l1.79,1,3.2,1.66,3.41,1.79,1.56.81,1.6.81,1.71.89.19.11.07,0,1.11.8h0l.38.28.91.68,1.81,1.35,3.6,2.71,5.6,4.25-.11,0c-.49-.19-1-.38-1.49-.55l-3-1-1.4-.51-1.44-.53c-1-.36-1.92-.76-2.88-1.16l.06,0-1-.44-.19-.09-.39-.19-.77-.38a.25.25,0,0,0-.34.09.24.24,0,0,0,.09.34l1.16.57c.27.13.55.25.84.37.52.23,1,.46,1.58.67s1.13.46,1.71.67l1.81.67.81.3.86.29,1.65.58c.56.2,1.13.39,1.69.61l1.85.7.36.14a.26.26,0,0,0,.28-.12.25.25,0,0,0,0-.19.28.28,0,0,0-.11-.15c-4-3-8-6.1-12.06-9.11.54.29,1.07.58,1.59.9s1,.6,1.46.91l1.59,1,1.59,1c.47.32,1,.62,1.44.94.3.18.59.38.88.57l.37.23c.15.11.31.21.47.31l.82.55.87.61c.26.17.51.35.77.51l.48.31.41.27.91.55.4.21a4.34,4.34,0,0,0,.5.2l.1.06.23.15a.25.25,0,0,0,.25-.44Z" transform="translate(50.98 40.54)"/><path class="a" d="M579,45.4h0Z" transform="translate(50.98 40.54)"/><path class="a" d="M600.31,58.08a3.25,3.25,0,0,0-.11-.42,2.37,2.37,0,0,0-.13-.34,3.29,3.29,0,0,0-.52-.82,9.45,9.45,0,0,0-1.23-1.22L597,54.15l-1.43-1.22-.28-.24a.49.49,0,0,0,.05-.2.17.17,0,0,0,0-.07,1.27,1.27,0,0,0-.06-.18l-.18-.26a1.39,1.39,0,0,0-.15-.19c-.12-.15-.25-.29-.38-.43l-.25-.28c-.1-.11-.2-.22-.31-.32l-.44-.44c-.44-.43-.88-.84-1.33-1.26l-1.31-1.22-1.44-1.31L588,45.26l-.38-.32-.63-.53-.44-.35-.65-.51-1-.84-1.15-.88-1.91-1.44-2.25-1.73h0l-1.39-1.08-.68-.55-.87-.05,1.44,1.14c1.1.86,2.22,1.72,3.33,2.57l1.66,1.25,1.46,1.12h0l1.21,1,.85.67.63.52.54.46.79.69c.37.33.76.66,1.12,1l2.66,2.46,1.07,1,.27.28c.13.12.24.25.36.37s.28.3.41.46l-.34-.28c-.48-.4-1-.8-1.45-1.18l-3.42-2.67-2.28-1.76h0l-1.56-1.18L584.13,44l-1.66-1.22-1.76-1.33-1.55-1.16c-.5-.37-1-.73-1.51-1.08l-1.34-1-1.69-1.18-.42-.29-1.06-.13,2.64,1.84c1,.66,1.89,1.33,2.83,2l.45.33,1,.72,1.18.89c1,.75,2,1.48,3,2.21l2.44,1.84h0l0,0h0l1.83,1.41h0l0,0h0l2.35,1.83L592.49,51l.48.39.88.72.3.25H594l-.83,0-.76-.54-1.72-1.19c-.56-.39-1.12-.75-1.68-1.12l-1.6-1-1.48-1c-.53-.37-1.08-.72-1.62-1.09l-.63-.43-1-.73c-.52-.36-1-.74-1.55-1.11l-.27-.2-.58-.44-.81-.61h0l0,0h0l-3.13-2.42c-1-.76-2-1.51-3-2.26-.81-.59-1.61-1.2-2.4-1.81-.37-.06-.74-.14-1.1-.21l0,0,1.51,1.15,1.52,1.14,1.41,1,.79.6.72.54,1.55,1.19,1.68,1.3,1.47,1.12.48.36,1,.74c.52.38,1,.74,1.57,1.11l.56.39,1,.68,1.62,1.08c1.07.72,2.15,1.43,3.23,2.14l.67.46.78.53.77.54-.77-.09h0c-.57-.08-1.13-.17-1.69-.28s-1.24-.26-1.86-.42l-.84-.22-1.67-1.33-2.09-1.61c-.38-.29-.77-.57-1.16-.84l-1-.7-.11-.09-.5-.39c-.23-.2-.46-.38-.7-.57l-.73-.61-.7-.61-.75-.65c-.48-.42-1-.83-1.46-1.24s-1-.77-1.45-1.14-1-.76-1.57-1.13l-1.44-1c-.24-.15-.46-.31-.69-.46l-.9-.6c-1.06-.69-2.13-1.36-3.2-2l-1.7-1.08-.21-.13-1.78-.55,1,.65,1.64,1,1.52,1,1.92,1.24c.63.4,1.25.81,1.86,1.22l1.28.89-.25-.17-1.07-.66c-.21-.13-.42-.24-.63-.36l-.9-.49-.9-.49-.82-.43c-.61-.32-1.23-.63-1.85-.94l-.51-.24-1-.48-1.5-.64-2.85-1.22.06,0-.14-.06-.1,0a.52.52,0,0,0-.13-.06l-.33-.14.06,0-.09,0a.11.11,0,0,0-.07,0h0l-.09,0-.1-.05-.32-.13.07,0-.38-.16.06,0-.1,0h0l-.06,0-.15-.06a.2.2,0,0,0-.08,0l-.32-.13.06,0-.08,0-.05,0-.22-.09h0c-.42-.18-.85-.34-1.27-.51l-1.6-.65.06,0-2-.84-.73-.31-.15-.07-.55-.26-1.18-.57-.52-.25-1.88-1-.66-.36L546,27.8,544.55,27c-.5-.29-1-.57-1.5-.88L541.19,25l-1.83-1.15c-.25-.15-.5-.3-.74-.46l-.5-.33-2-1.34-.35-.24-1.12-.77c-1.13-.78-2.24-1.57-3.36-2.35l-.56-.39-.5-.37L528.08,16l-2.68-2-3.25-2.41-6.39-4.78c-.58-.43-1.16-.86-1.73-1.3l-2.37-1.79C510.45,2.84,509.25,1.89,508,1l0,0q-1.75-1.38-3.53-2.74c-.93-.73-1.88-1.44-2.82-2.15L500.33-5c-.54-.4-1.07-.82-1.61-1.23l-3.2-2.44-.09-.06h0L493.79-10,493-10.6l-.36-.29-1.89-1.59-.34-.31-1-.94c-.47-.45-.91-.91-1.36-1.37s-.89-.94-1.34-1.41-.84-.94-1.26-1.4c-.16-.17-.3-.35-.44-.52l-.74-.88-.51-.62-.58-.71,1.29,1,.66.53c.25.19.5.4.77.6,1,.77,2.07,1.53,3.12,2.29l.71.48a2.83,2.83,0,0,0,.28.2l.54.32c.25.16.51.29.76.43l.69.38a98.7,98.7,0,0,0-9.74-7,.26.26,0,0,0-.05.12.52.52,0,0,0,.07.25,5.07,5.07,0,0,0,.49.72l.38.45.47.57,1.28,1.53c.13.16.26.31.4.46l.86,1c.15.17.31.33.46.49l.85.9.52.53.8.82.15.14.42.39c.28.28.57.55.86.82l.4.34,1.07.9.77.65.37.3c.9.69,1.79,1.39,2.69,2.07l2.79,2.12c.81.63,1.63,1.25,2.45,1.87l1.93,1.45c.33.26.68.51,1,.76h0L505.8-.16l2,1.55h0c1.12.87,2.22,1.74,3.34,2.6l1,.75,2,1.55,3.15,2.36,3.07,2.29c2,1.48,3.94,3,5.94,4.4l3.41,2.5,1.07.78L533,20.12l1.15.8,1.09.76.58.4,1.85,1.22.71.47.52.32,2,1.28,1.68,1,.51.32.92.53c.51.29,1,.6,1.53.88l1.85,1c.39.22.79.42,1.19.62s.82.43,1.24.63l1.89.9c.37.18.75.33,1.14.5l1.76.75c.44.19.9.36,1.35.55s1,.38,1.46.59l0,0,.14.06.1,0,.13.06.33.14-.06,0,.1,0,.06,0h0l.09,0,.11,0,.31.13-.06,0,.33.15h0l.11,0h0l.05,0,.16.07.08,0,.32.13-.06,0,.08,0,0,0,.24.1.08,0,0,0,3.68,1.58.53.23,1.19.55.52.25c.4.19.79.39,1.18.59l.61.31,1.09.58c.59.31,1.17.64,1.76,1l.22.13.38.23.57.36a3,3,0,0,1,.3.19c.55.36,1.1.72,1.64,1.1.71.49,1.41,1,2.11,1.49s1.38,1,2.06,1.56h0l0,0h0l.78.61.77.58,1.35,1,.13.1,1.44,1.17,1.48,1.2c.2.17.4.33.59.51l.6.52-.65-.26.06,0-.6-.28-.47-.23-.44-.22-.59-.32-.66-.38-.54-.34a4.65,4.65,0,0,1-.41-.26l-.56-.41-.61-.5-.18-.17-.47-.42-.55-.52-.85-.81a.25.25,0,0,0-.35,0,.27.27,0,0,0,0,.36c.54.51,1.07,1,1.62,1.53l.4.36.29.24.37.31c.12.1.26.19.4.29l.35.25.12.08.27.16.38.24c.17.11.35.2.52.3.53.31,1.07.58,1.62.85l.35.16a3.52,3.52,0,0,0,.4.18c.27.12.55.23.82.33l.48.18.41.12.45.4c.45.39.9.78,1.37,1.16s1,.81,1.5,1.21.94.75,1.42,1.11l1.5,1.14c.21.16.42.33.63.48s.52.4.79.59l.66.47.34.24.24.15.24.13a9.55,9.55,0,0,0,1.61.62c.57.19,1.14.36,1.71.49.21,0,.42.08.62.11a1.47,1.47,0,0,0,.42,0l.2,0,.23-.11.05,0a.77.77,0,0,0,.18-.18l.09-.16a1.52,1.52,0,0,0,.09-.25l0-.23c0-.06,0-.12,0-.18A3.12,3.12,0,0,0,600.31,58.08ZM588.06,52l.62.15c.59.13,1.19.25,1.78.34s1.22.18,1.84.25l.72.07.69.51h0l0,0,0,0c.27.23.54.46.8.71l.51.51c.12.11.22.23.33.35l.59.67.18.25c.07.1.12.2.18.3l0-.06.06.14a1.42,1.42,0,0,1,0,.22v.08l0,.11,0,0h-.06a1.78,1.78,0,0,1-.33-.09l-.2-.08-.32-.12-.71-.29.06,0c-.3-.13-.61-.26-.9-.42s-.68-.34-1-.53c-.6-.35-1.2-.71-1.78-1.09l-1-.63c-.29-.19-.58-.38-.86-.58l-.55-.38-.47-.35Zm11.65,7.06-.09.09-.11.06-.12,0h-.21l-.19,0h0c-.29-.05-.59-.12-.88-.19l-.8-.23-.8-.26-.41-.14-.36-.14.06,0c-.23-.11-.46-.21-.68-.34l-.38-.25c-.11-.09-.23-.17-.35-.25L593.8,57l-.73-.55-2.64-2h0L589,53.35l-.38-.31.47.33,1.67,1.11A29,29,0,0,0,594,56.29c.54.26,1.09.48,1.65.69l.2.07,0,0a1.26,1.26,0,0,0,.38.1h.07l.21,0,.06,0,.17-.11,0,0a.66.66,0,0,0,.09-.19,1.16,1.16,0,0,0,0-.18.41.41,0,0,0,0-.19s0,0,0-.06a1.31,1.31,0,0,0-.06-.27l-.08-.2a1.49,1.49,0,0,0-.18-.3,9,9,0,0,0-.61-.77l-.32-.34-.25-.27-.45-.45-.57-.53-.43-.34h.12l.37,0h.33l.29.24,1.23,1.05,1.25,1.07.65.57.38.34a8.09,8.09,0,0,1,.73.81h0c.07.09.14.2.21.31a2.24,2.24,0,0,1,.13.27,4.27,4.27,0,0,1,.21.72,2,2,0,0,1,0,.35,1.59,1.59,0,0,1-.06.3Zm-3.29-2.59Z" transform="translate(50.98 40.54)"/><path class="a" d="M577.33,41.79l0,0,0,0Z" transform="translate(50.98 40.54)"/><path class="a" d="M578.94,45.08l0,0h0l0,0Z" transform="translate(50.98 40.54)"/><path class="a" d="M584.69,50h0l0,0,0,0Z" transform="translate(50.98 40.54)"/><polygon class="a" points="647.4 97.01 647.4 97.01 647.4 97.01 647.4 97.01 647.4 97.01 647.4 97.01"/><path class="a" d="M593.74,53.33l0,0h0l0,0Z" transform="translate(50.98 40.54)"/><path class="a" d="M591.49,52.14h0Z" transform="translate(50.98 40.54)"/><path class="a" d="M588.53,47.92h0l0,0Z" transform="translate(50.98 40.54)"/><path class="a" d="M586.67,46.49h0l0,0,0,0Z" transform="translate(50.98 40.54)"/><path class="a" d="M577.9,44.9l0,0h0l0,0Z" transform="translate(50.98 40.54)"/><path class="a" d="M579.43,42.79l0,0-.05,0Z" transform="translate(50.98 40.54)"/><path class="a" d="M560,34.77l0,0h0l.07,0Z" transform="translate(50.98 40.54)"/><path class="a" d="M559,34.34h0Z" transform="translate(50.98 40.54)"/><path class="a" d="M557.44,33.68h0Z" transform="translate(50.98 40.54)"/><path class="a" d="M557.67,33.24l-.06,0,.06,0Z" transform="translate(50.98 40.54)"/><path class="a" d="M507.78,1.38l0,0,0,0Z" transform="translate(50.98 40.54)"/><path class="a" d="M593.18,61.23a15.51,15.51,0,0,1-1.73-.62l.06,0c-.27-.13-.54-.25-.8-.39l-.89-.5-.8-.48-.92-.59c-.53-.34-1.05-.71-1.57-1.07s-1.15-.79-1.72-1.2l-1.69-1.2c-.53-.39-1.09-.78-1.63-1.16s-1.07-.78-1.6-1.16l-1.61-1.16c-1.12-.8-2.24-1.62-3.37-2.42l-1.58-1.14c-.53-.38-1.06-.75-1.6-1.11l-.89-.62-.36-.22-.59-.39q-.79-.51-1.59-1l-.93-.57c-.32-.2-.65-.38-1-.57l-.69-.41-1.16-.65-1.82-1-1.85-1-1.81-1c-.59-.31-1.16-.63-1.74-.95l-1.63-.91c-.54-.31-1.1-.61-1.63-.93l-2.13-1.29-.53-.34-1.27-.83c-1-.66-2-1.35-3-2-.34-.22-.68-.46-1-.7l-1.93-1.34c-.35-.25-.69-.51-1-.77l-1.76-1.31-1.26-1-1.36-1-2.26-1.76h0l-1.8-1.42L533.27,22l-1.39-1.14-1.66-1.35-3.44-2.75-1.37-1.07-1.11-.84-.46-.35c-.88-.64-1.74-1.29-2.63-1.91l-2.93-2.06-2.85-2L515,8.15l-.53-.4-1-.71L513,6.7h0l0,0,0,0h0l-.16-.13h0l0,0h0L512.16,6h0l-.58-.45h0L511,5.12h0l0,0h0L510.77,5l0,0h0l0,0h0L509,3.57c-.5-.39-1-.76-1.52-1.14-1.08-.81-2.18-1.59-3.28-2.38s-2.27-1.59-3.42-2.37-2.08-1.42-3.11-2.14L496.82-5l-.39-.28-1.29-1-1.46-1.14L493-8,492-8.75l-.43-.37-1-.89-.51-.47-.79-.76c-.21-.2-.42-.42-.63-.63l-.48-.47-.17-.17-1.4-1.5a.93.93,0,0,1-.13-.15l-.4-.46-.79-.93-.49-.6-.1-.13.45.47.72.74.78.77.46.45.18.18.89.8.47.43a1.54,1.54,0,0,0,.19.17l1.75,1.46.65.52,1.06.85.48.37,1.16.88.42.3,1.17.82,1.41,1,1.9,1.29,1.92,1.27,3.38,2.29,1.69,1.17,1.65,1.17c1.1.77,2.2,1.55,3.29,2.34.27.18.53.37.79.56l.79.55,1,.66.78.51,1.81,1.17L517.64,8l1.68,1,.77.47c.32.2.66.38,1,.57,1.11.65,2.23,1.3,3.35,1.93l1.72,1,1.06.59c-1.32-.9-2.61-1.82-3.89-2.76L522,10l-1-.57L520.28,9l-1.91-1.15-.77-.49-1-.67c-.5-.31-1-.63-1.48-1S514,5,513.43,4.66l-1.11-.76-.59-.4c-.63-.46-1.25-.91-1.89-1.35-1.13-.82-2.28-1.62-3.42-2.42l-1.73-1.22c-.57-.4-1.15-.78-1.73-1.17-1.13-.78-2.28-1.53-3.42-2.29L498-6c-.52-.36-1.06-.71-1.58-1.08l-2-1.38-.22-.17-.6-.46-.88-.66L491-11.14l-.55-.45-1.11-.93-.45-.39-1.09-1c-.16-.14-.3-.29-.45-.44l-1-1-.48-.49c-.29-.3-.57-.6-.86-.89l-1.48-1.54-1.42-1.47-.16-.16-.44-.58-.49-.63.12.06c.17.08.34.18.52.26l.57.33c.76.42,1.5.88,2.23,1.34a.25.25,0,0,0,.34-.09.25.25,0,0,0-.09-.34l-1.09-.68-.82-.49c-.51-.3-1-.58-1.56-.83l-.37-.18-.46-.2h0l-.37-.49-.23-.34-.14-.21-.9-.48c.12.2.25.41.38.6l.41.61h0l-.72-.64c-.3-.27-.62-.52-.94-.76l-.5-.34a3.9,3.9,0,0,0-.35-.19l-.21-.09-.14-.06h-.21a.26.26,0,0,0-.17.07.59.59,0,0,0-.14.18.33.33,0,0,0,0,.14.84.84,0,0,0,.05.17,3.66,3.66,0,0,0,.26.42l.21.26a1.8,1.8,0,0,0,.4.38,2.9,2.9,0,0,0,.68.4l.5.19,1,.32,1.12,1.08,1.2,1.19.55.73L483.48-17l1.3,1.65.42.5.94,1.08c.13.15.26.3.4.44l1,1.06.45.46.94.94.65.61c.21.2.41.41.63.6l1,.86.55.48c.33.26.66.52,1,.79l.65.52c1.09.84,2.17,1.7,3.3,2.49s2,1.42,3,2.12,1.88,1.28,2.81,1.93l1.4,1,1.54,1.09,1.43,1.05,1.46,1.09,2.11,1.64.08.06.14.11h0c.22.18.44.34.66.51h0l0,0h0l.52.41h0l0,0h0l.64.49,0,0,.15.12h0l.52.39,1.21.9c.5.38,1,.74,1.53,1.1l3.4,2.4c.61.44,1.22.86,1.83,1.28s1,.75,1.55,1.13l.89.65.51.38,1.78,1.37h0l0,0h0c.79.63,1.59,1.25,2.38,1.89l2.85,2.3,2.65,2.18c.35.29.71.56,1.06.84l1.32,1h0c1.06.83,2.12,1.65,3.19,2.46l1.7,1.3L543,30.11l.79.59c.14.11.3.21.45.32l2.26,1.57,1.39.94,1.65,1.1L551.57,36c.14.09.28.18.43.26l1.29.79.79.47.15.09.57.32,1.8,1,1.11.61.72.4,1.94,1c1.18.62,2.35,1.24,3.51,1.89.58.33,1.17.65,1.74,1s1.22.7,1.81,1.07l2,1.23,1.53,1,.75.52.91.63,1.8,1.29L576,50.71l1.61,1.17,1.69,1.21,1.57,1.14,1.73,1.23c.56.39,1.1.79,1.66,1.19l1.52,1.06c.54.38,1.08.76,1.63,1.12l.87.58c.29.19.6.36.89.54l.78.46.88.47a9.57,9.57,0,0,0,.94.41q.62.24,1.26.42a.25.25,0,0,0,.13-.48Zm-115.3-84a1.55,1.55,0,0,1-.22-.12,2,2,0,0,1-.31-.2h0l0,0h0a.93.93,0,0,1-.15-.13c-.1-.1-.19-.21-.28-.32l-.07-.11.11.06.35.2c.21.14.42.3.62.46l.44.36Z" transform="translate(50.98 40.54)"/><path class="a" d="M602.53,57.13a.63.63,0,0,0-.16-.26c-.12-.14-.25-.28-.38-.41s-.36-.33-.54-.5l-.35-.3-.28-.23-.4-.31-.49-.37c-.5-.37-1-.75-1.49-1.11l-1.78-1.32-2.66-2-2.78-2.14h0c-.75-.58-1.5-1.16-2.26-1.73h0l0,0h0l-1.71-1.33c-.46-.36-.93-.7-1.4-1l-3.59-2.65c-2-1.48-4-3-6.08-4.44l-.95-.08,1.25.91c1.65,1.18,3.28,2.39,4.91,3.59l2.75,2c.87.63,1.73,1.28,2.6,1.92,1.38,1.07,2.77,2.15,4.16,3.21h0l0,0,0,0h0c1.54,1.2,3.09,2.37,4.65,3.55q1.11.86,2.25,1.68l2.29,1.71.43.34c.14.1.27.22.4.32l.41.37.16.15a5.84,5.84,0,0,1,.49.51l.08.12v0h0l-.21,0h0a6.61,6.61,0,0,1-.89,0l-.85,0-1.43-.06-1.45-.1c-.49,0-1-.1-1.46-.16-.75-.1-1.49-.23-2.24-.33l.07,0-.35,0-.38-.07q-.32-.06-.63-.15A9.27,9.27,0,0,1,591,56l.06,0c-.47-.21-.94-.43-1.39-.68l-.77-.43-.68-.39c-1-.57-1.91-1.17-2.87-1.74l-1.5-.9q-.69-.41-1.38-.84c-.46-.28-.91-.57-1.36-.87l-.73-.51c-.22-.15-.43-.31-.64-.47l-.68-.53-.39-.32c-.16-.12-.3-.25-.45-.38l-.64-.57-.84-.74c-.22-.2-.46-.38-.68-.57s-.59-.48-.87-.73c-.47-.4-.93-.79-1.41-1.16s-1.06-.83-1.59-1.23l-1.72-1.27c-1-.76-2-1.56-3.09-2.31l-1.58-1.11-1.62-1.1-.82-.55-.77-.54C562,35.75,561.5,35.4,561,35c-1-.66-2-1.32-3-2l-.81-.58-.94-.69-1.41-1.07-.72-.56q-2.28-1.41-4.58-2.79l1.08.77.66.48.76.55h0l0,0v0a.1.1,0,0,0,0,0h0c.26.21.53.41.8.61l.25.2.08.07,0,0,1.44,1.12,1,.76c.26.19.52.37.77.57.51.37,1,.74,1.54,1.1s1.17.81,1.76,1.21l.81.54.84.56c.28.18.54.37.81.56l.81.57.82.55.84.57,1.64,1.13c.55.38,1.09.78,1.63,1.17l.8.61.8.61,1.58,1.17c.52.38,1,.77,1.54,1.16h0l0,0,0,0h0c.49.39,1,.78,1.46,1.18l1.6,1.34.64.53.88.79.64.56c.11.1.22.2.34.29l.49.4c.51.41,1,.79,1.56,1.16s1,.7,1.55,1q1.7,1,3.42,2.07l2.09,1.28c.34.21.67.4,1,.59l1.06.59.45.24.54.25.56.24.57.22a8.2,8.2,0,0,0,1.08.29l.63.1.57.07h0c.63.09,1.26.2,1.89.28.32,0,.65.09,1,.12l1.07.08c.61.05,1.24.08,1.86.1l.93,0h.76a4.58,4.58,0,0,0,.53,0h.07a1,1,0,0,0,.34-.09l.06,0a1,1,0,0,1,.16-.12.5.5,0,0,0,.09-.24A.39.39,0,0,0,602.53,57.13Zm-.45.21Z" transform="translate(50.98 40.54)"/><path class="a" d="M477.93-23l0,0,0,0Z" transform="translate(50.98 40.54)"/><path class="a" d="M477.88-22.79l.05,0-.05,0Z" transform="translate(50.98 40.54)"/><path class="a" d="M510.7,5.54l0,0,0,0Z" transform="translate(50.98 40.54)"/><path class="a" d="M602,57.17h0Z" transform="translate(50.98 40.54)"/><path class="a" d="M601.83,57.39h0Z" transform="translate(50.98 40.54)"/><path class="a" d="M590.91,48.56l0,0,0,0a.1.1,0,0,0,0,0Z" transform="translate(50.98 40.54)"/><path class="a" d="M588.94,46.43h0s0,0,0,0l0,0Z" transform="translate(50.98 40.54)"/><path class="a" d="M572.74,44.07h0l0,0Z" transform="translate(50.98 40.54)"/><path class="a" d="M536.55,24.58l0,0,0,0Z" transform="translate(50.98 40.54)"/><path class="a" d="M525.94,16.7l0,0h0l0,0Z" transform="translate(50.98 40.54)"/><path class="a" d="M512.74,7.12l0,0,0,0Z" transform="translate(50.98 40.54)"/><path class="a" d="M512.55,7h0Z" transform="translate(50.98 40.54)"/><path class="a" d="M513,6.69h0l0,0Z" transform="translate(50.98 40.54)"/><path class="a" d="M512,6.51l0,0h0l0,0Z" transform="translate(50.98 40.54)"/><path class="a" d="M510.54,5.42h0Z" transform="translate(50.98 40.54)"/><path class="a" d="M510.53,5.41l0,0,0,0Z" transform="translate(50.98 40.54)"/><path class="a" d="M510.5,5.38l0,0h0a.1.1,0,0,0,.05,0Z" transform="translate(50.98 40.54)"/><path class="a" d="M511,5.12h0l0,0,0,0Z" transform="translate(50.98 40.54)"/><path class="a" d="M510.79,5l0,0,0,0Z" transform="translate(50.98 40.54)"/><path class="a" d="M477.33-23.13l0,0,0,0Z" transform="translate(50.98 40.54)"/><path class="a" d="M613.39,336.69a.52.52,0,1,0,.52-.52.53.53,0,0,0-.52.52Z" transform="translate(50.98 40.54)"/><path class="a" d="M289.11-28c-.39,0-.81.08-1.2.13a4,4,0,0,0-1.29.51,8.55,8.55,0,0,0-1.28.93c-.18.15-.35.31-.52.47-.34.33-.67.67-1,1l-.51.6a13.43,13.43,0,0,0-.92,1.22l-.46.68c-.3.46-.59.92-.88,1.38l-.34.53-1.45,2.31-.33.52c-.1.15-.19.31-.28.47-.52.89-1,1.79-1.57,2.68q-1.81,3.09-3.65,6.16l-2.52,4.27-.9,1.5c-.23.4-.47.79-.72,1.18l-2.78,4.54c-.14.23-.28.46-.43.69L264.74,5.8l-2.48,3.78c-.19.29-.4.57-.6.86l-1.87,2.65L258.42,15c-.15.21-.29.42-.45.62l-3.34,4.43c-.57.76-1.14,1.5-1.72,2.24L250,26c-.31.41-.64.81-1,1.22l-1.79,2.26c-.78,1-1.56,2-2.35,3l-2.3,2.94-1.6,2-1,1.32q-2.35,3.11-4.7,6.22l-2.85,3.79-.63.82-2,2.64q-2.4,3.14-4.82,6.26l-2.71,3.57c-.38.52-.78,1-1.17,1.54l-.93,1.25-2.88,3.89c-.23.31-.44.62-.66.94l-1.92,2.72L213.64,74l-.64.93-2.87,4.24-.13.21-.47.76c-.49.78-1,1.55-1.46,2.33l-1,1.61c-.31.5-.6,1-.9,1.51L204.71,88c-.18.31-.37.61-.54.92l-2.45,4.42c-.2.34-.37.7-.55,1l-1.25,2.42c-.54,1.06-1.09,2.11-1.62,3.16l-1.23,2.39c-.15.28-.29.57-.44.86L194.29,108c-.47,1-.92,1.92-1.38,2.89l-1.68,3.52-3.36,7.07c-2.38,5-4.74,10-7.14,15-.75,1.55-1.49,3.09-2.23,4.64-.1.21-.2.42-.31.63l-1,1.95c-1.25,2.39-2.49,4.77-3.75,7.15s-2.54,4.79-3.83,7.18-2.61,4.88-3.94,7.31c-.86,1.57-1.72,3.15-2.59,4.72-.15.27-.29.55-.45.82l-1.07,1.86-2.46,4.28c-.14.24-.29.47-.43.7l-1.59,2.57c-.45.72-.9,1.44-1.34,2.16-.15.24-.29.48-.45.71l-3,4.56c-.2.3-.39.61-.6.91l-1,1.41-2.89,4.11c-.13.18-.28.36-.42.54-.51.67-1,1.33-1.54,2l-2.22,2.88-2.68,3.11-1.65,1.91-.66.75-3.46,3.81c-.69.76-1.38,1.52-2.08,2.27-1.92,2.08-3.86,4.16-5.77,6.25-1.25,1.36-2.49,2.73-3.73,4.09l-.82.9-.16.18-.71.85-3.6,4.26c-.27.32-.54.65-.82,1-.07.08-.13.17-.2.26l-.77,1c-1.7,2.18-3.4,4.34-5.08,6.52s-3.35,4.35-5,6.54q-1.64,2.17-3.29,4.34c-.56.75-1.13,1.51-1.71,2.26l-4.9,6.33-.84,1.05-2.75,3.42-2.14,2.67c-.39.48-.8.95-1.2,1.42-1.52,1.79-3,3.58-4.57,5.38q-2.83,3.24-5.65,6.5l-.43.51-1.46,1.79Q75.69,281,74,283.17c-.14.16-.28.34-.41.51l-1.32,1.69-3.43,4.41c-.58.74-1.14,1.49-1.71,2.23l-3.37,4.43-1.67,2.22-3.29,4.42c-1.64,2.19-3.3,4.38-4.95,6.57s-3.33,4.38-5,6.58c-.64.84-1.26,1.7-1.89,2.56l-3,4c-.19.26-.37.52-.55.79l-1.53,2.16L40.28,328c-.26.36-.52.72-.77,1.09L37,332.78c-.64.94-1.28,1.87-1.9,2.82L32.26,340l-.76,1.16c-.34.52-.67,1.05-1,1.58-1.59,2.47-3.16,5-4.75,7.43-.59.91-1.17,1.82-1.75,2.74-.94,1.5-1.89,3-2.84,4.49-1.46,2.32-2.94,4.61-4.42,6.91-2.78,4.31-5.57,8.6-8.33,12.91-1.47,2.3-2.94,4.59-4.4,6.89l-2.83,4.47c-.61,1-1.2,1.94-1.8,2.9-.46.77-.94,1.54-1.41,2.31l-.56.9c-.83,1.41-1.68,2.81-2.52,4.22L-6.93,402c-.71,1.22-1.43,2.42-2.16,3.63-2.71,4.54-5.47,9.06-8.22,13.58-.32.54-.66,1.07-1,1.6l-1,1.59c-.77,1.22-1.54,2.43-2.3,3.65-.31.5-.64,1-1,1.49-.5.76-1,1.53-1.49,2.3-.75,1.16-1.54,2.3-2.3,3.44l-1,1.44-1.47,2.1c-.93,1.35-1.88,2.7-2.81,4.06s-1.79,2.51-2.68,3.76c-.47.65-1,1.3-1.44,1.95l-1.24,1.69-6.1,8.36c-.43.57-.84,1.16-1.25,1.75s-1,1.42-1.47,2.12-.79,1.19-1.18,1.78c-.22.33-.42.66-.63,1l-.3.47c-.26.41-.5.83-.75,1.25a.29.29,0,0,0,.13.41.36.36,0,0,0,.46-.1c.27-.47.54-.94.82-1.39l.68-1.07,1-1.56,1.06-1.55c.43-.62.86-1.22,1.3-1.84.77-1.1,1.58-2.19,2.38-3.28l2.38-3.25,2.39-3.3,1.16-1.56c.4-.55.81-1.09,1.2-1.63l1.44-2,.8-1.12c.75-1.09,1.5-2.18,2.26-3.26s1.63-2.34,2.44-3.52c.33-.45.63-.92.94-1.38L-24,431c.7-1,1.37-2.1,2.05-3.15l1-1.48.3-.5c.33-.51.65-1,1-1.54l2-3.21,1-1.59c.38-.61.75-1.23,1.12-1.84l1.79-2.95q1.19-1.92,2.35-3.86l4.52-7.53c.65-1.09,1.28-2.19,1.92-3.29s1.35-2.28,2-3.41c.51-.86,1-1.72,1.55-2.58l2.76-4.49.45-.71,1.37-2.17,2.08-3.29q4.5-7,9-14l4.67-7.24,1.42-2.21.53-.82,2.66-4.23c1.49-2.35,3-4.7,4.5-7.05l4.07-6.39c.25-.39.51-.77.76-1.15l1.57-2.39c.61-.94,1.22-1.88,1.84-2.8l2.93-4.33c.31-.44.61-.89.91-1.34l.77-1.08c1-1.48,2.08-3,3.13-4.44.18-.27.36-.53.55-.79l1.22-1.65,3.2-4.33c.6-.81,1.21-1.62,1.82-2.42,3.38-4.46,6.77-8.92,10.11-13.4,1.39-1.86,2.77-3.72,4.18-5.58l3.13-4.11c.51-.65,1-1.31,1.51-2l3.1-4,1.32-1.7.41-.51L79.83,277l5.62-6.48c.65-.75,1.28-1.51,1.93-2.26l3.56-4.2c.57-.67,1.11-1.36,1.66-2l3.63-4.53c.49-.6,1-1.21,1.44-1.82l3.7-4.78c1.66-2.13,3.26-4.29,4.89-6.43l1.58-2.09,3.34-4.35,1.84-2.39c1.07-1.37,2.15-2.74,3.21-4.12l1.46-1.85c.14-.2.29-.39.45-.58l3.47-4.11,1.61-1.91c1.87-2.06,3.75-4.1,5.62-6.16l.91-1,1.94-2.09,2.61-2.82,3.27-3.61c.72-.79,1.46-1.58,2.16-2.39l3.5-4.06.88-1,.16-.2.72-.93c1-1.34,2.07-2.69,3.11-4l.45-.61c.53-.77,1.07-1.53,1.61-2.28s1-1.47,1.54-2.2c.19-.28.4-.55.59-.84l2.87-4.34.8-1.21.2-.33c.17-.27.35-.55.51-.83q1.41-2.27,2.81-4.53c.14-.23.28-.46.41-.7l1.26-2.18c.47-.81.94-1.62,1.4-2.44.23-.39.47-.79.69-1.19l2.11-3.86c.58-1.05,1.17-2.1,1.73-3.16.75-1.38,1.49-2.77,2.24-4.16.56-1,1.12-2.07,1.67-3.11l2.15-4,1.78-3.35q2-3.75,3.92-7.5c0-.1.09-.2.14-.29l.36-.77c.39-.79.77-1.58,1.15-2.37l1.85-3.87c1.16-2.41,2.29-4.82,3.44-7.23s2.25-4.74,3.38-7.11l3.51-7.4,2-4.17.51-1,1.45-3,.68-1.4c.23-.46.48-.92.72-1.39l1.87-3.64,2.17-4.21c.15-.28.29-.56.45-.83L204,90.51l.82-1.48.25-.43.63-1,1.45-2.43.65-1.09,2.62-4.19.46-.71,1.65-2.44c.62-.91,1.23-1.82,1.87-2.73l3.18-4.52.5-.7,1.51-2c.77-1,1.53-2.08,2.32-3.11q2.69-3.56,5.4-7.09l5.45-7.08c.77-1,1.51-2,2.27-3s1.52-2,2.29-3,1.43-1.89,2.15-2.84l1.59-2.12,1-1.24c1.66-2.1,3.31-4.22,5-6.32,1-1.32,2.08-2.63,3.11-3.95.73-.92,1.45-1.85,2.17-2.78L254,22l.65-.84,3.06-4,1.05-1.4c.21-.28.41-.57.61-.86l3.23-4.6.43-.63,1.24-1.89q1.26-1.89,2.5-3.81c.18-.26.34-.54.51-.81l1.4-2.3,1.41-2.29.52-.86c1.24-2.09,2.48-4.19,3.72-6.27,1.35-2.28,2.71-4.56,4.05-6.84l1.11-1.91c.06-.11.13-.21.19-.31.22-.34.43-.68.64-1l1.29-2c.3-.49.61-1,.92-1.45.16-.23.3-.46.46-.68a13.43,13.43,0,0,1,.92-1.22h0c.29-.35.59-.68.91-1l.49-.49a10.29,10.29,0,0,1,1.07-.91l-.07,0a6.2,6.2,0,0,1,1.3-.75h0a4,4,0,0,1,1-.2h-.09a11.46,11.46,0,0,1,1.17-.06l.68,0,.85.05,2.22.18a.33.33,0,0,0,.34-.31.3.3,0,0,0-.1-.21.37.37,0,0,0-.24-.09L291.06-28l-.68,0-.74,0Z" transform="translate(50.98 40.54)"/><path class="a" d="M588.81,52.37a.27.27,0,0,0-.08.19.33.33,0,0,0,.08.19c.67.85,1.37,1.68,2.06,2.52a2,2,0,0,0,.19.22l.6.67c.3.34.6.69.92,1l1.14,1.17.22.21.67.62.68.61.21.2L597,61.3l2,1.75c.74.63,1.46,1.28,2.18,1.93l1.7,1.53,2.43,2.25.8.76,1.47,1.42.8.77.18.19.68.7,2.56,2.65.33.36,1.19,1.3,2.33,2.55c.49.53,1,1.09,1.44,1.63l2.37,2.69,1.47,1.7,2.11,2.44,2,2.39c.18.21.35.44.55.65l.87.94c.43.48.88,1,1.32,1.44l.49.53.21.24,2.21,2.16,1.2,1.19.47.45,2.63,2.39,1.12,1,.17.16.3.24,2.81,2.27,1.13.91c.14.11.27.21.42.31l2.85,2c.62.43,1.22.87,1.84,1.28l3,2c.63.42,1.27.83,1.9,1.26l2.94,2c.62.43,1.25.85,1.87,1.29l3.11,2.19,1.4,1,.54.38,5.21,3.94,2.69,2.23,1.86,1.55c.21.18.43.34.64.53l3,2.71,1.67,1.51c.17.16.34.31.51.48l3,3,1.48,1.49.24.24c.08.08.15.18.23.26l3,3.42q.64.75,1.29,1.47c.2.23.36.44.56.68.56.69,1.11,1.39,1.66,2.09.41.53.8,1.06,1.2,1.6s.79,1.09,1.17,1.64c.76,1.08,1.48,2.2,2.19,3.32.36.56.7,1.12,1.05,1.69l.11.18c.22.4.45.79.68,1.19l2,3.38.5.86,0,.1.31.6,1.74,3.37c.23.45.47.9.69,1.35a4,4,0,0,1,.21.41l2.55,5.54h0c.78,2,1.57,3.92,2.35,5.88l.15.39.45,1.26,1.44,4c.17.48.35,1,.51,1.44.43,1.27.85,2.54,1.28,3.8.21.62.41,1.24.62,1.86l1.12,3.24q.87,2.53,1.73,5.07c.6,1.77,1.22,3.53,1.79,5.31l1.19,3.69c.22.65.42,1.29.63,1.94.69,2.05,1.37,4.11,2.05,6.16l.18.52.54,1.55,1.32,3.8,1.86,5.34c.19.54.39,1.08.57,1.63l1.15,3.44q.84,2.52,1.69,5c.59,1.72,1.16,3.45,1.76,5.16.44,1.24.88,2.47,1.31,3.71.21.59.41,1.18.63,1.78l2.17,6c.08.22.16.44.25.66l.6,1.59,1.38,3.68c.09.24.18.47.28.71l.86,2,1.83,4.33,0-.06c0,.13.12.25.18.38l.63,1.31,1.83,3.76.4.84.24.46c.62,1.17,1.24,2.33,1.85,3.5.42.81.84,1.61,1.27,2.41.07.15.16.3.24.45l.91,1.65c.64,1.16,1.28,2.32,1.91,3.48l.81,1.45,6.35,11.08c.93,1.62,1.83,3.26,2.74,4.89s1.75,3.15,2.62,4.72l1.5,2.72c.08.14.14.27.21.41.3.55.6,1.1.89,1.65l1.78,3.33c.3.56.58,1.12.87,1.69q2.69,5.24,5.39,10.48l2.95,5.69.27.49.79,1.45c.62,1.12,1.23,2.25,1.85,3.38.07.13.14.26.22.39l.64,1.06,2.15,3.57c.27.45.54.89.82,1.33l2.19,3.5c.31.51.63,1,.95,1.52.69,1.06,1.38,2.12,2.06,3.18l1.25,1.93c.61.91,1.21,1.83,1.81,2.74l1.45,2.19.48.72c.43.62.85,1.25,1.27,1.88l1,1.51.37.54c.66.95,1.33,1.9,2,2.84.32.47.65.93,1,1.39l.3.43,2.18,2.88,1,1.3.29.39,2.22,2.69,1.07,1.32c.12.13.22.27.34.4l2.44,2.71,1.09,1.22.34.37,2.59,2.7c.47.49.93,1,1.41,1.45l2.46,2.51,1.06,1.07c.11.12.23.23.36.35l2.67,2.53,1.43,1.34,2.66,2.45.43.38,1.29,1.1,1.39,1.19.55.46h0l2.56,2-.05-.05.25.19h0l.05,0h0l0,0,1.43,1c.5.35,1,.67,1.54,1s1.15.65,1.74.95c.35.18.73.34,1.1.49l1.58.64,1.24.47c1.95.75,3.91,1.49,5.88,2.19a.26.26,0,0,0,.33-.19.27.27,0,0,0-.19-.33q-2.21-.8-4.4-1.62c-1.44-.54-2.88-1.09-4.3-1.68l.07,0c-.35-.15-.7-.3-1-.47a19.55,19.55,0,0,1-1.74-.95c-1-.6-2-1.29-3-2l-.1-.08h0l0,0h0l-2.52-1.94h0l-.24-.19h0l0,0h0l-.21-.19-1-.88-2-1.71-.38-.35-1.09-1-1.93-1.77c-.12-.11-.24-.22-.35-.34l-1.05-1-2.2-2.08c-.34-.32-.66-.66-1-1-.76-.76-1.52-1.53-2.27-2.3-.32-.32-.65-.65-1-1l-2-2.11c-.57-.58-1.13-1.17-1.69-1.75l-.29-.32-.87-1c-.73-.8-1.44-1.6-2.17-2.41-.17-.2-.36-.4-.54-.6l-.28-.34-3.3-4c-1.14-1.51-2.28-3-3.43-4.54l-.14-.19-.36-.53c-.38-.52-.75-1.05-1.12-1.58l-1.12-1.58-.52-.74-1.73-2.58c-.48-.7-.95-1.4-1.42-2.11-.59-.89-1.18-1.78-1.76-2.67l-1.47-2.21q-1.68-2.62-3.38-5.23c-.11-.16-.21-.33-.31-.49L780.2,345l-2.07-3.31c-.3-.47-.59-1-.88-1.44l-2.15-3.58-.42-.67-.09-.18-.27-.49-2-3.58c-.28-.51-.57-1-.84-1.54L769.86,327c-.83-1.59-1.65-3.19-2.48-4.79l-2.58-5L763,313.73l-.36-.71c-.16-.31-.32-.6-.49-.91-.61-1.16-1.24-2.32-1.85-3.48-.31-.57-.61-1.15-.93-1.72l-3.09-5.6c-1-1.86-2.08-3.71-3.12-5.57-.25-.46-.51-.9-.77-1.35l-2.08-3.64q-1.91-3.31-3.8-6.65c-.16-.27-.32-.54-.47-.82l-.69-1.25-2.59-4.71c-.4-.72-.78-1.44-1.16-2.17q-1.2-2.25-2.38-4.52c-.11-.19-.2-.39-.3-.59l-1.06-2.19-1.81-3.73,0,.06-2.8-6.58v0c-.06-.15-.11-.3-.16-.45l-.56-1.47c-.48-1.27-1-2.53-1.43-3.79l-.51-1.36c-.46-1.3-.93-2.6-1.4-3.9-.22-.6-.45-1.21-.66-1.82l-1.14-3.25-1-2.91-.72-2.14c-.59-1.74-1.19-3.47-1.77-5.21-.4-1.22-.81-2.43-1.22-3.65-.21-.63-.41-1.28-.64-1.91-.7-2-1.41-4-2.12-6.07l-2-5.87-.48-1.44-1.32-4c-.57-1.72-1.12-3.43-1.68-5.14-.28-.9-.57-1.78-.86-2.68l-.18-.53c-.22-.63-.43-1.26-.64-1.89-.6-1.74-1.19-3.49-1.79-5.23s-1.26-3.65-1.88-5.47c-.37-1.12-.75-2.24-1.13-3.36-.18-.56-.37-1.12-.56-1.68-.08-.24-.16-.49-.25-.74l-2.22-6.14-.15-.38-.51-1.29c-.52-1.28-1-2.58-1.55-3.87-.1-.24-.2-.48-.29-.72s-.18-.39-.26-.57L700.45,165c-.19-.42-.39-.85-.58-1.28-.06-.12-.12-.25-.19-.38L698,160.07c-.39-.75-.78-1.5-1.16-2.25a1.74,1.74,0,0,0-.11-.18c-.09-.16-.18-.33-.28-.49l-1.06-1.85c-.57-1-1.13-2-1.7-2.93l-.1-.18-.35-.57-.7-1.12q-1.23-2-2.57-3.87c-.66-.94-1.35-1.87-2.06-2.77-.41-.54-.83-1.07-1.25-1.6l-.43-.53c-.14-.18-.29-.36-.44-.53-.69-.8-1.39-1.59-2.08-2.37l-2.34-2.66c-.09-.11-.19-.22-.29-.32l-1-1-2.79-2.79-.92-.92c-.12-.13-.25-.24-.38-.36l-4.84-4.39-.28-.23-.91-.75-2.55-2.12L666,122.12l-.33-.25-.95-.72-4.1-3.1c-.15-.12-.31-.22-.47-.33l-1.13-.8-2.9-2c-1.16-.82-2.33-1.61-3.5-2.42l-2-1.34-1.46-1-2.72-1.8-1-.7-4.35-3c-1.46-1.17-2.91-2.36-4.38-3.53l-.17-.16c-.16-.14-.31-.29-.47-.42l-1.41-1.29L633.28,98l-.47-.42-.19-.18-2.21-2.17L629.21,94l-.28-.28-.21-.23-2.37-2.58c-.15-.15-.29-.31-.43-.47l-1.29-1.51c-1.35-1.59-2.71-3.16-4.06-4.73l-1.14-1.31-2.69-3-.52-.6-.56-.61-2.71-3-.56-.61c-.21-.23-.44-.46-.65-.68L609,71.51,608.4,71l-1.88-1.81-.82-.79L604.23,67l-1.4-1.28-1-.89-1.64-1.47-1-.89L596.39,60c-.17-.14-.34-.28-.5-.43l-.41-.37-1-.89c-.14-.13-.29-.25-.42-.38l-1.26-1.3c-.13-.13-.25-.28-.37-.42l-.86-1-.36-.41-.63-.76c-.48-.58-1-1.17-1.42-1.76a.28.28,0,0,0-.2-.08.27.27,0,0,0-.19.08Zm52.31,52.27,0,0,0,0Zm185.13,294.5,0,0,0,0Zm-3-1.63-.06,0,.06,0Zm.22-.5h0l0,0,0,0ZM733.33,257.67s0,0,0-.05l0,.05Z" transform="translate(50.98 40.54)"/><path class="a" d="M587.39,50.29a.26.26,0,0,0-.09.34c.32.54.63,1.07,1,1.59l1,1.59c.25.41.5.83.76,1.24l.1.17.56.83,1,1.6c.14.2.27.41.42.61l2.19,2.86c.14.19.3.37.46.55l1.27,1.5c.16.18.31.37.47.56l.15.17L598,65.38l.45.49c.29.32.62.62.93.92a25.65,25.65,0,0,0,2.4,2,29.29,29.29,0,0,0,3.11,2c1.35.81,2.75,1.52,4.17,2.2.27.13.5.25.77.36l.64.28,1.89.84,1.07.47.21.08c.31.11.62.24.93.36l1.8.69.73.27,1.78.62,1.15.4,6.2,2,.78.25,1.31.47,1.79.64.48.17c.13,0,.26.1.38.15l2.59,1,2.79,1.35.33.16c.11,0,.22.13.33.19l1.7,1,1.1.63.32.2.74.46,1.48.94c.22.14.42.28.64.44l1,.7c.33.24.65.49,1,.74l-.05,0c.33.25.64.52,1,.79s.63.55.94.84c.77.7,1.5,1.45,2.23,2.2,1.31,1.37,2.51,2.83,3.7,4.3l3.37,4.49c.33.44.63.89.94,1.34l2.26,3.24c.15.23.3.45.46.67s.22.35.33.53l2.07,3.25.71,1.11c.09.14.18.28.26.42l1.72,2.88c.46.79.93,1.56,1.39,2.34l.29.52c.27.51.55,1,.82,1.51l1.67,3c.09.17.2.34.28.52l.48,1c.55,1.11,1.1,2.23,1.64,3.34l.58,1.18c.07.14.14.29.2.44.82,1.87,1.63,3.73,2.45,5.59l0-.06q1.23,3.06,2.44,6.11l.54,1.37c.51,1.31,1,2.62,1.52,3.93l.57,1.48c.07.17.13.33.19.5l1.07,2.91,1.26,3.45c.19.53.37,1.06.55,1.59l1.28,3.75c.26.76.52,1.51.77,2.28.65,2,1.31,4,2,5.92.32,1,.65,1.93,1,2.89.24.74.49,1.47.73,2.2.62,1.85,1.22,3.71,1.86,5.55.44,1.27.88,2.53,1.31,3.8.21.6.41,1.2.63,1.8l1.24,3.51.6,1.67c.08.24.17.49.26.73q1.18,3.15,2.39,6.29c.18.49.38,1,.57,1.46.51,1.32,1,2.64,1.54,4,.69,1.76,1.4,3.51,2.11,5.26l.18.42c.2.45.4.89.61,1.33.51,1.11,1,2.22,1.52,3.34.08.18.17.35.26.53l.73,1.56,1.74,3.66c.86,1.81,1.74,3.62,2.6,5.44,1.55,3.22,3.06,6.45,4.62,9.67.86,1.79,1.71,3.58,2.59,5.37l1.68,3.36c.33.68.68,1.35,1,2l1.67,3.28.21.39.79,1.44q1.37,2.52,2.75,5l3.45,6.3.78,1.37c.72,1.26,1.44,2.52,2.15,3.78l1.14,2c.11.2.24.4.36.6l1,1.73c.69,1.16,1.39,2.31,2.09,3.47l.86,1.41,6.91,11.1.75,1.21c.07.12.14.24.22.35l1.87,2.87,1.94,3c.33.5.67,1,1,1.48l2.29,3.33c.4.59.8,1.19,1.21,1.77l4,5.7.39.55c.15.22.32.44.48.66.85,1.15,1.7,2.29,2.54,3.44l1.09,1.47c.79,1.05,1.59,2.09,2.37,3.14l3.44,4.5,1.23,1.64,2.38,3.17c.34.46.67.93,1,1.4.83,1.14,1.65,2.29,2.47,3.44,1.14,1.58,2.26,3.18,3.39,4.78l1.22,1.72,1.11,1.59c.17.24.34.47.51.72,1.06,1.57,2.13,3.16,3.21,4.73l2.21,3.2.38.55.8,1.1c1.13,1.55,2.26,3.11,3.41,4.66q3.52,4.79,7.08,9.55,6.69,9,13.4,18,6.2,8.31,12.39,16.63c2,2.64,3.92,5.27,5.91,7.89l3.23,4.27,1.53,2,.81,1.05c.42.55.85,1.09,1.28,1.63a.25.25,0,0,0,.18.08.28.28,0,0,0,.25-.25.27.27,0,0,0-.08-.18l-1.11-1.42h0l0-.05h0c-1-1.37-2.11-2.74-3.16-4.13l-2.46-3.25-1.21-1.59c-1.35-1.82-2.72-3.64-4.08-5.46l-3.11-4.17-3-4q-2.6-3.46-5.17-6.94l-5.67-7.61q-7.32-9.83-14.62-19.65c-1.13-1.53-2.27-3.06-3.39-4.6l-2.31-3.16-.48-.67-.14-.21-.53-.76-2.21-3.2c-.44-.63-.86-1.26-1.29-1.9l-1.7-2.5c-.19-.29-.39-.57-.59-.85l-1.32-1.87-3.51-5c-1.16-1.64-2.34-3.27-3.51-4.9l-.47-.66-.47-.63-2.5-3.32c-1.14-1.54-2.31-3.05-3.47-4.58s-2.27-3-3.4-4.49c-.43-.56-.84-1.14-1.26-1.71l-2.42-3.27c-.3-.41-.6-.83-.89-1.25l-2.45-3.48-1.34-1.9c-.14-.19-.27-.39-.4-.58l-1.15-1.67c-.73-1.07-1.47-2.14-2.2-3.22-.18-.24-.35-.49-.52-.74s-.27-.42-.41-.62q-1.82-2.79-3.65-5.57c-.13-.2-.24-.4-.37-.59-.29-.48-.59-1-.89-1.44L740.59,281l-2.82-4.53-1.68-2.7c-.34-.55-.66-1.1-1-1.65-.71-1.18-1.42-2.36-2.14-3.54l-.81-1.34-.29-.49-3.5-6.15-.67-1.19-1.91-3.49q-1.26-2.28-2.52-4.59l-1.92-3.51-.55-1q-.18-.33-.33-.66c-.92-1.79-1.84-3.58-2.74-5.38-.56-1.12-1.11-2.24-1.67-3.37-.31-.61-.6-1.23-.9-1.85-.83-1.72-1.67-3.43-2.48-5.16l-2.93-6.16-1-2-1.85-3.84-2.49-5.26c-.22-.47-.45-.93-.66-1.39l-.45-1-1.79-3.92,0,.06-1.1-2.75c-.29-.71-.58-1.42-.86-2.13l-1.34-3.42c-.29-.75-.59-1.49-.87-2.24l-2.43-6.4c-.19-.49-.36-1-.54-1.5-.48-1.33-.95-2.67-1.43-4-.64-1.8-1.25-3.6-1.88-5.4l-.69-2-1.2-3.61c-.62-1.88-1.25-3.75-1.88-5.63-.22-.63-.42-1.27-.63-1.92-.44-1.3-.87-2.61-1.3-3.92-.17-.5-.33-1-.51-1.49-.45-1.35-.91-2.71-1.37-4.06-.17-.49-.34-1-.5-1.48-.06-.16-.11-.32-.17-.49l-1.07-2.91L680.52,148c-.2-.53-.4-1.07-.61-1.6l-1.43-3.69c-.26-.68-.51-1.36-.78-2l-2.53-6.34c-.21-.5-.43-1-.65-1.5L672.8,129l-.33-.75-.1-.21-.27-.55c-.64-1.29-1.26-2.57-1.9-3.85l-.48-1a5.21,5.21,0,0,0-.28-.52l-2-3.59-.68-1.24c-.07-.13-.14-.26-.22-.39l-2-3.38c-.28-.48-.57-.95-.85-1.42l-.26-.43c-.65-1-1.31-2.07-2-3.11-.32-.5-.64-1-1-1.5-.12-.17-.22-.35-.34-.52l-1.95-2.81-1.57-2.25a2.31,2.31,0,0,0-.14-.19l-.37-.5c-.45-.6-.91-1.2-1.36-1.81l-1.66-2.21,0-.06c-.27-.32-.53-.65-.8-1-.4-.49-.81-1-1.22-1.45-1-1.12-2-2.18-3-3.22-.45-.44-.91-.87-1.37-1.29s-.94-.81-1.42-1.21-.68-.52-1-.77-1-.7-1.5-1.05l-.31-.2-.74-.47-1.59-1-.19-.11-.66-.37-1.77-1c-.23-.13-.46-.27-.7-.38l-1.87-.91-1.1-.53-.23-.09-.71-.28-1.76-.71-.35-.14c-.17-.07-.34-.12-.52-.18l-2.62-.94-.52-.19-.73-.24-4.43-1.44-1.31-.43-.69-.22-2.5-.87-.44-.16-1-.39-2.3-.89L610,73l-.66-.32L608.06,72c-.81-.4-1.6-.83-2.39-1.28s-1.44-.85-2.14-1.3-1.31-.91-1.95-1.39l-.93-.77c-.31-.27-.63-.55-.93-.84l-.89-.88-.14-.16-1.6-1.75c-.32-.35-.62-.72-.93-1.08l-1.42-1.68-2-2.55c-.15-.19-.31-.39-.45-.6-.36-.56-.73-1.11-1.1-1.67l-.8-1.2-.1-.17-.52-.86-1-1.67-1.07-1.79a.26.26,0,0,0-.21-.12.31.31,0,0,0-.13,0ZM601.54,68h0Zm233,342.64,0,0s0,0,0,0Z" transform="translate(50.98 40.54)"/><path class="a" d="M276.89-10.16,275-9,274-8.31l-.37.24-1.86,1.26-.22.16-1.09.81c-.34.25-.69.49-1,.77l-1.71,1.44-.76.64-.21.19-1.48,1.41-2.79,2.66-.2.21-.53.55-2,2.06L257,6.9c-.19.18-.35.38-.53.57l-1.78,2c-.93,1-1.86,2-2.78,3.07-.16.17-.31.35-.47.53l-1.75,2.05c-.5.57-1,1.15-1.48,1.72l-.44.52-2.7,3.4-2.15,2.7c-.17.22-.33.44-.5.65L240.93,26c-1,1.35-2.07,2.71-3.12,4.06-.46.61-.93,1.23-1.41,1.83L231,38.81c-.53.67-1,1.34-1.56,2l-2.95,3.81a5.2,5.2,0,0,0-.35.47L225,46.62,221.77,51l-.71,1c-.12.16-.22.32-.33.48-.9,1.29-1.79,2.59-2.68,3.88l-2.66,3.85-.57.83c-.15.21-.29.44-.43.66l-5.13,7.87-.41.64c-.15.22-.28.44-.42.67q-1.31,2.11-2.63,4.23c-1.14,1.84-2.3,3.68-3.42,5.53l-2.55,4.17c-.54.88-1.08,1.75-1.6,2.63-.7,1.15-1.39,2.31-2.08,3.47-.34.58-.69,1.15-1,1.73-.17.29-.35.57-.53.85l-2.4,3.77-.48.74c-.53.78-1,1.57-1.57,2.36-1.38,2.09-2.78,4.18-4.17,6.26l-4.25,6.34c-.49.73-1,1.48-1.43,2.22L177.81,119c-.19.29-.36.58-.54.88L176,122c-.31.48-.61,1-.91,1.47s-.47.74-.71,1.11l-2.4,3.76c-.61,1-1.21,1.94-1.82,2.9l-1.19,1.9-.4.65-2.32,3.91-.41.73-1.16,2.11c-.5.91-1,1.81-1.48,2.72l-2.1,4.05-1.26,2.44-3.7,7.31c-.1.2-.2.41-.29.61-.3.61-.59,1.22-.88,1.83l-2.23,4.68-.4.82c-.13.27-.24.55-.37.82l-2.13,4.77-1.26,2.8-.27.66-.93,2.23-1.89,4.54-.45,1.07c-.12.3-.23.61-.35.91q-1.3,3.44-2.63,6.87L141.5,191,140,195.24c-1.41,3.85-2.84,7.69-4.26,11.54-.17.43-.34.87-.5,1.3l-1.46,3.75c-.44,1.14-.88,2.28-1.33,3.42-.07.19-.15.38-.22.58s-.26.6-.38.91L129.16,223c-.08.2-.17.4-.26.6-.26.59-.52,1.17-.77,1.76-.47,1-.93,2.1-1.39,3.15l0-.08-1.64,3.16L124,233.76c-.13.24-.25.48-.37.72s-.1.2-.16.29l-4.28,7.14c-.31.51-.63,1-1,1.52-.94,1.49-1.9,3-2.85,4.47l-1.89,3-.29.45-1.27,1.93c-1.3,2-2.61,3.95-3.89,5.93l-5,7.73-.86,1.35-2.73,4.32-2.4,3.8c-.31.5-.63,1-1,1.49l-5.15,7.95-.9,1.35-2.91,4.3-3.62,5.34L80.63,301c-.46.68-.93,1.35-1.4,2l-2.71,3.85c-.16.24-.32.48-.5.71-.35.47-.69.94-1,1.4l-4.27,5.77-3,4-1.42,1.92-5,7-.31.44-1.05,1.52q-1.57,2.24-3.12,4.49-2.07,3-4.13,5.93l-1,1.37c-.14.21-.29.41-.43.61L48.36,346l-.4.53-1.52,1.92L44,351.57h0l0,.05h0l-5,6.11c-.48.57-1,1.13-1.46,1.7L34,363.52c-.43.5-.85,1-1.29,1.49L29.18,369c-.57.64-1.13,1.29-1.71,1.93l-3,3.39c-3.1,3.47-6.21,6.93-9.29,10.41l-3.33,3.77-.85.95c-.23.27-.49.54-.73.81l-3.38,3.7c-.57.63-1.14,1.25-1.72,1.87L.68,400.52c-.38.41-.78.79-1.18,1.19-.9.91-1.81,1.82-2.71,2.74-1.2,1.2-2.39,2.41-3.58,3.61l-1.09,1.1-.5.51L-10.57,412l-.73.78c-.2.2-.38.42-.56.63L-14.15,416c-.37.42-.71.87-1.06,1.31l-2.08,2.57c-.47.59-.92,1.19-1.39,1.8l-1.45,1.86-1.78,2.27c-.5.64-1,1.28-1.53,1.92l-1.22,1.48c-.3.35-.61.7-.92,1a13.29,13.29,0,0,1-1.54,1.35s.05,0,.06-.05a11.56,11.56,0,0,1-1.24.82c-.46.26-.92.51-1.39.75l-.31.14-1,.48-.54.26-.51.22-1.85.77.07,0-.64.25a.3.3,0,0,0-.18.13.29.29,0,0,0,0,.22.29.29,0,0,0,.14.17.31.31,0,0,0,.23,0l1.77-.72.79-.33.51-.22,1.58-.74,1-.51.69-.38a10.34,10.34,0,0,0,1.25-.82c.21-.15.41-.31.61-.48l.53-.47a12.6,12.6,0,0,0,.88-.91c.23-.26.45-.53.67-.8s.54-.63.8-1c.62-.74,1.21-1.5,1.81-2.26s1.23-1.56,1.84-2.34l2-2.55c.25-.32.49-.64.75-1s.58-.73.87-1.09l2.14-2.66,2.64-3,.31-.35.31-.33c.64-.67,1.28-1.33,1.91-2,.27-.28.54-.57.82-.85l1.21-1.22,2.83-2.87L-1,403l1.58-1.59c.2-.2.4-.4.59-.61l3.08-3.28c.66-.7,1.33-1.4,2-2.11l3.06-3.35,1.53-1.68.59-.65,5.44-6.15,1.86-2.08,3.42-3.83c1.64-1.84,3.28-3.66,4.92-5.49s3.22-3.64,4.83-5.46l1.32-1.49c.13-.15.26-.29.38-.44l2.89-3.36,2.59-3,.36-.44c.5-.61,1-1.22,1.49-1.82l3-3.65c.16-.2.33-.39.48-.59l.95-1.2,3-3.76.43-.57c.46-.61.92-1.23,1.37-1.85l1.43-2,.56-.75,2.51-3.61,4-5.79,2.66-3.82c.41-.59.83-1.17,1.26-1.76l2.91-4,1.18-1.62c.14-.21.29-.41.44-.61l5-6.72L76.48,308l.4-.57,1.27-1.8,1.41-2c.23-.33.47-.65.69-1L85,295.66c.37-.53.72-1.07,1.08-1.6l3-4.5c.65-1,1.3-1.93,2-2.89l.25-.4c.38-.57.75-1.14,1.12-1.71l4.59-7.08c.46-.72.9-1.44,1.35-2.15l2.95-4.67,1.89-3c.4-.63.82-1.26,1.23-1.89,1.51-2.33,3-4.67,4.54-7,.57-.89,1.16-1.77,1.74-2.65l2.85-4.33c.32-.48.63-1,.94-1.46l2.78-4.36,2.06-3.24.24-.39,1-1.74,2.55-4.25c.24-.42.49-.82.74-1.23.15-.26.28-.53.42-.8.74-1.44,1.49-2.87,2.23-4.3l.66-1.27.06-.13.36-.82,1.89-4.28c.32-.74.62-1.47.93-2.21l1.86-4.43c.13-.3.26-.61.38-.91,0-.08.06-.15.09-.22l.33-.86,3-7.73.23-.6c.22-.62.45-1.23.67-1.84q.94-2.52,1.87-5l2.19-5.94c.44-1.21.88-2.41,1.33-3.62.06-.18.13-.35.2-.52.27-.72.55-1.45.83-2.17q.85-2.26,1.73-4.53c.12-.3.23-.59.34-.89s.23-.55.34-.82c1.06-2.54,2.12-5.07,3.17-7.61,0,0,0,0,0,0l3.39-7.57.37-.82c.12-.28.26-.55.39-.82.75-1.56,1.49-3.12,2.24-4.69l.87-1.82.29-.62c.61-1.18,1.2-2.37,1.81-3.56l1.9-3.75c.41-.81.83-1.62,1.25-2.43l2.11-4.05c.47-.91,1-1.81,1.48-2.72l1.15-2.12c.14-.24.27-.49.42-.73L169,134c.13-.22.27-.43.41-.65.39-.64.79-1.27,1.19-1.9.6-1,1.2-1.94,1.82-2.9l2.4-3.77.68-1.07c.32-.5.62-1,.94-1.51l1.31-2.13c.19-.29.36-.59.55-.88l2.46-3.81,1.43-2.22c.92-1.35,1.83-2.72,2.74-4.07l4.22-6.31,1.47-2.21L192,98.52c.22-.33.45-.67.66-1l2.41-3.78c.15-.23.3-.46.44-.69.37-.63.75-1.26,1.13-1.89l2.07-3.46c.53-.88,1.07-1.76,1.61-2.63,1.19-2,2.36-3.91,3.57-5.85l5-8.09c.13-.22.27-.44.41-.66s.28-.43.42-.65q1.35-2.06,2.68-4.12c.82-1.24,1.63-2.5,2.45-3.74l.42-.65c.18-.29.38-.56.58-.85q2.67-3.86,5.33-7.73l.33-.47.72-1,3.21-4.37,1.12-1.52.35-.47,3-3.8c1.46-1.89,2.94-3.77,4.41-5.65l2.58-3.29c.48-.6.94-1.22,1.41-1.83l5.1-6.63c.21-.28.43-.55.65-.83l1.78-2.23,2.4-3,2.94-3.43,1-1.21.19-.21.73-.8,3.74-4.11c.19-.22.38-.43.59-.65l1.71-1.76,3.59-3.7c.24-.25.51-.49.76-.73L266-1.28l1.21-1.16.38-.32,1.19-1,.87-.73c.15-.13.3-.26.46-.38l1.87-1.39,1-.68c.36-.25.72-.5,1.1-.74,1-.66,2.09-1.33,3.14-2a.29.29,0,0,0,.11-.39.31.31,0,0,0-.27-.14.23.23,0,0,0-.14,0ZM272-6.3l0,0,0,0ZM43.91,351.61h0l0,0,0,0Zm105.16-178v0Z" transform="translate(50.98 40.54)"/><path class="a" d="M580,44.53a.23.23,0,0,0-.08.17.25.25,0,0,0,.08.18l2.23,2.51c.5.57,1,1.15,1.48,1.73l.6.7.12.16.55.67,1.61,2,2,2.55,1.74,2.14c1.32,1.63,2.66,3.25,4,4.88l2,2.48,1.38,1.73.45.57.19.24,4.28,5.72c.05.06.09.13.14.2s.25.38.38.56l1.21,1.77,2.36,3.45c.11.16.22.34.33.51l1.08,1.67,2,3.09c.24.37.47.75.7,1.12l1.25,2c.51.82,1,1.64,1.55,2.46.4.63.8,1.27,1.21,1.9l.48.76c.74,1.14,1.49,2.27,2.23,3.4l1,1.52c.1.16.2.31.31.46l2.55,3.61c.32.46.65.92,1,1.39l.32.42,2.71,3.53,1.2,1.57.21.25.82,1,3.42,4.2,6.73,8.27,2.19,2.79,1,1.2.1.14.53.71,2.66,3.6c.21.27.41.54.61.82l.14.19.54.77,2.64,3.72c.43.61.87,1.22,1.29,1.84l4.34,6.43.34.51,1,1.54,2.67,4.09c.31.47.61.94.91,1.41q1.21,2,2.45,3.89l1.68,2.67c.11.17.21.35.31.53l1.13,1.93,2.29,3.93.55.93.06.11.33.63,3.27,6.12.27.52c.1.18.18.37.27.55l1.53,3.11,1.45,3c.2.4.39.81.58,1.22l2.58,5.51,0,0q1.37,3.09,2.72,6.2c.15.35.3.7.44,1.05l.9,2.17,1.12,2.67c.49,1.19,1,2.37,1.48,3.56s.92,2.21,1.37,3.31l.58,1.41c.1.23.19.47.28.7.55,1.45,1.12,2.9,1.67,4.34.24.6.46,1.2.69,1.81l1.65,4.45c.22.59.44,1.18.67,1.77.57,1.47,1.15,2.95,1.73,4.42l.78,2c.55,1.36,1.09,2.72,1.63,4.08l1,2.49,1.41,3.6,1.26,3.22c.35.89.71,1.78,1.07,2.68l1.56,3.91c.27.68.55,1.36.83,2,.54,1.33,1.09,2.66,1.64,4,.09.22.17.45.27.67l.75,1.7.89,2c.12.28.24.56.37.83.53,1.14,1.07,2.27,1.61,3.4.31.67.63,1.34.95,2l2,4.14c.11.23.22.46.34.69l.58,1.15c.7,1.38,1.4,2.75,2.09,4.13l.28.53.72,1.3,2.23,4c.38.67.77,1.33,1.16,2,.64,1.12,1.29,2.23,1.93,3.34l.66,1.09c.38.65.76,1.3,1.15,1.94.16.28.32.56.49.83l1,1.57c.63,1,1.25,2,1.87,2.94l.55.82,1.47,2.19c.59.9,1.19,1.79,1.78,2.68l.56.82,1.5,2.19,1.83,2.68.55.78c.5.71,1,1.42,1.49,2.12l4,5.63,1.71,2.42,2.42,3.36c1.14,1.6,2.31,3.17,3.46,4.77l2.34,3.26c.5.71,1,1.42,1.53,2.12l7.38,10.09c.34.46.67.94,1,1.41l2.34,3.35.53.76.31.47,2.17,3.31.59.9c.13.19.24.39.37.58.61,1,1.23,2,1.85,2.94l.33.56.9,1.53.9,1.52c.13.21.26.42.38.65l1.58,2.92.8,1.51c.11.2.22.4.32.6.87,1.81,1.73,3.63,2.6,5.44a.05.05,0,0,0,0,0c.44,1,.87,2,1.3,2.95l.9,2c.14.32.28.65.43,1l1.33,2.94c.3.68.61,1.35.91,2,.15.32.28.64.44.95.52,1.07,1,2.15,1.55,3.23.29.58.57,1.17.85,1.76.12.23.23.47.35.69.65,1.21,1.29,2.42,1.93,3.63.22.39.43.79.64,1.19l.09.15.5.87c.72,1.24,1.44,2.48,2.17,3.72l.16.28c.05.09.11.17.17.26l1.24,1.91,1.18,1.84.36.55a1.3,1.3,0,0,0,.1.15l2.42,3.43.83,1.17.12.16.43.56,2.77,3.53c.12.16.24.31.37.46l1.32,1.6,1.19,1.45c.28.34.58.68.87,1l1.41,1.61.67.75c.79.86,1.57,1.72,2.37,2.57l1.46,1.57.85.87,1.25,1.29c.11.11.22.22.34.32.35.33.69.67,1.05,1l1.1,1c.33.32.67.63,1,.94l2.45,2.28q2.64,2.44,5.25,4.9l5.07,4.78,2.23,2.12,2.48,2.38L833,443l.93,1,1.22,1.21q2.39,2.43,4.78,4.85c.42.43.84.84,1.26,1.26.25.26.52.5.78.75s.77.73,1.16,1.09a.27.27,0,0,0,.37,0,.23.23,0,0,0,0-.34l-1-.92-.69-.67c-.34-.32-.67-.66-1-1l-2.1-2.11-4.94-5c-.75-.75-1.52-1.49-2.29-2.24l-1-.94c-.41-.39-.82-.8-1.24-1.19l-5.14-4.87q-4.67-4.41-9.39-8.79c-.78-.72-1.57-1.44-2.34-2.18l-1.52-1.43c-.34-.33-.69-.65-1-1l-1.53-1.57-.77-.82-1.47-1.56-.92-1c-.35-.37-.69-.75-1-1.13l-.57-.61-2.13-2.45-.26-.3-.94-1.15-1.78-2.16q-1.66-2.15-3.35-4.28l-.2-.29-.89-1.26L792,399c-.28-.39-.53-.79-.79-1.19l-2-3.08-.42-.64-.29-.51-1.88-3.22c-.19-.34-.39-.68-.59-1-.07-.12-.15-.25-.22-.39l-1.48-2.78L783.14,384c-.09-.16-.15-.31-.23-.47-.23-.47-.46-.95-.68-1.42-.48-1-1-2-1.42-2.94-.11-.22-.22-.44-.32-.66s-.2-.44-.3-.66l-2.37-5.23,0,.06c-.43-1-.86-2-1.3-3-.3-.68-.59-1.36-.89-2-.1-.22-.19-.45-.29-.67s-.09-.21-.14-.31c-.48-1-1-2-1.42-3l-.93-1.93c-.13-.27-.25-.55-.39-.81l-1.94-3.61-.69-1.27-.1-.17-.54-.92c-.6-1-1.19-2-1.79-3l-.21-.33c-.16-.27-.33-.53-.49-.79l-1.32-2.09c-.46-.73-.94-1.45-1.41-2.17l-1.25-1.91-.44-.67-.19-.29-2-2.86-1.23-1.77c-.19-.27-.38-.55-.58-.82l-3.95-5.39L752,329.73c-.54-.74-1.09-1.48-1.62-2.22-1.34-1.86-2.67-3.72-4-5.57L744,318.61l-2-2.71c-1.38-1.92-2.74-3.86-4.11-5.79s-2.64-3.76-4-5.65c-.38-.53-.75-1.07-1.12-1.61l-2.76-4L729,297.16l-2.7-4-.55-.83c-.06-.09-.12-.18-.17-.27l-.45-.7-2.24-3.52c-.18-.28-.33-.56-.5-.84L721.21,285c-.47-.79-.93-1.58-1.39-2.37L717.71,279l-.36-.64c-.39-.71-.79-1.42-1.18-2.14-.57-1-1.14-2.07-1.72-3.1l-.12-.25c-.16-.31-.32-.62-.47-.93-.41-.79-.81-1.59-1.22-2.39s-.82-1.6-1.22-2.41l-1.94-4c-1-2-1.88-4-2.83-6l0,.06-1.38-3.14-.6-1.36-.38-.92-1.66-4c-.27-.65-.54-1.31-.79-2-.54-1.35-1.08-2.69-1.61-4l-1-2.41c-.89-2.25-1.77-4.51-2.66-6.76-.37-.95-.75-1.88-1.13-2.82L694,226l-.87-2.21c-.55-1.43-1.12-2.85-1.67-4.28-.25-.62-.47-1.25-.71-1.87l-1.62-4.4c-.24-.61-.47-1.23-.71-1.84l-1.65-4.27c-.29-.76-.61-1.5-.92-2.25-.42-1-.84-2.05-1.27-3.07l-2.7-6.49L681,193.2l-.33-.79-1.59-3.63c-.28-.63-.56-1.26-.83-1.9-.11-.23-.21-.47-.32-.7-.49-1.07-1-2.13-1.49-3.2s-1-2.11-1.48-3.16l-.29-.58-1-2c-.63-1.28-1.26-2.55-1.88-3.83-.09-.19-.18-.39-.28-.58-.22-.39-.43-.79-.64-1.19l-2.14-4-.86-1.6c-.11-.2-.21-.41-.32-.6l-4-6.91c-.29-.5-.62-1-.93-1.5L660,152.8l-.89-1.41-.26-.4-2.13-3.27c-.73-1.12-1.46-2.25-2.2-3.37-.39-.6-.79-1.19-1.2-1.78-.86-1.29-1.73-2.57-2.6-3.86-.41-.6-.81-1.21-1.23-1.8L647,133.49l-1.21-1.7c-.18-.25-.35-.51-.54-.76l-2.15-2.91-1.26-1.71c-.18-.23-.35-.47-.53-.71l-2.54-3.22-.58-.74-1.1-1.35-4.77-5.86-5.26-6.46h0l0,0,0,0L623,102.76l-.15-.21-.4-.58-1.25-1.76-2-2.87c-.06-.08-.11-.17-.16-.25l-.42-.63-1.24-1.89c-.39-.6-.78-1.2-1.18-1.8-.17-.25-.33-.5-.49-.76-.73-1.13-1.45-2.27-2.16-3.4-.54-.84-1.06-1.68-1.59-2.53s-1-1.59-1.5-2.38L608,79.91l-.72-1.12c-.13-.19-.27-.38-.4-.58l-2.7-3.95-.94-1.37a3.91,3.91,0,0,0-.3-.41c-.9-1.22-1.81-2.43-2.71-3.64l-1.14-1.52-.36-.47-2.66-3.34-1-1.22-.34-.42c-.58-.72-1.17-1.43-1.76-2.14l-3.47-4.26h0l0,0,0,0h0l-2.32-2.92-2-2.48-.63-.77-1.47-1.72c-.31-.37-.63-.72-.95-1.08-.57-.65-1.14-1.29-1.72-1.93a.21.21,0,0,0-.17-.07.26.26,0,0,0-.19.07Zm47,63.53h0l0,0v0ZM589.5,55.45l0,0,0,0v0Z" transform="translate(50.98 40.54)"/><path class="a" d="M588.08,46.49a.24.24,0,0,0-.09.34c.33.64.67,1.28,1,1.92l1,1.86.93,1.73a2.69,2.69,0,0,0,.16.29c.06.13.14.25.21.37.69,1.18,1.39,2.36,2.09,3.54.32.56.65,1.12,1,1.68.12.21.24.42.38.63q2.18,3.38,4.37,6.75l.42.65c.15.24.31.47.47.71l2.69,4c.35.53.7,1,1,1.56l.35.52,2.11,3,2.37,3.3c.38.53.77,1,1.15,1.57l4.7,6.3c.11.13.22.27.32.41l1,1.29,3.11,4c.58.75,1.17,1.49,1.75,2.23.45.59.92,1.17,1.39,1.75l4.93,6.21,4.45,5.6,1.74,2.2.33.4,1.24,1.52,4.72,5.79.45.56L641,120.5l3.14,3.93,1.37,1.71,2,2.51,2.9,3.57c.42.53.84,1.05,1.27,1.57l9.2,11,2.57,3.07c.11.15.23.28.35.43.26.33.53.66.79,1,1.65,2.07,3.31,4.14,4.95,6.22l4.41,6.29c.29.43.59.85.89,1.28l.24.35,1.89,2.95,2.47,3.86.8,1.24c.09.14.18.28.26.43q2.13,3.56,4.25,7.11l.74,1.23.2.34,1.65,3.07q1.13,2.07,2.24,4.14l.77,1.42c.09.17.18.33.26.51l3.61,7.29.71,1.44c.07.15.15.3.22.46.41.93.82,1.87,1.24,2.8l3,6.77,0-.06c.93,2.34,1.87,4.68,2.79,7,.35.86.69,1.73,1,2.59.07.15.12.31.18.47l.66,1.8,2.66,7.27c.25.67.49,1.35.73,2l1.73,4.77c.31.89.63,1.77,1,2.66.06.17.11.34.17.5.22.64.43,1.27.66,1.9q1.17,3.41,2.35,6.81l2.58,7.46.62,1.82c.4,1.11.8,2.23,1.19,3.34.72,2,1.42,4,2.14,6l2.85,7.9c.17.46.34.93.52,1.39.54,1.45,1.08,2.88,1.63,4.32.67,1.78,1.34,3.57,2,5.35l1.62,4.25c.26.68.52,1.37.79,2.05q1.39,3.6,2.81,7.22l.79,2q.89,2.22,1.76,4.44c.79,2,1.56,4,2.34,5.94l.69,1.77c.08.2.16.4.23.6l1.32,3.49,1.28,3.42c.06.16.12.31.19.47l.77,1.93c.53,1.35,1.07,2.69,1.61,4,.1.26.2.52.31.79l.07.16.31.7c.6,1.35,1.2,2.71,1.8,4.05l.72,1.63a3.73,3.73,0,0,1,.16.35c0,.09.09.17.13.26l1.86,3.66c.3.61.61,1.22.92,1.83.12.24.24.48.37.72l1.9,3.33c.36.64.72,1.27,1.09,1.9l.34.61.14.25,3.75,6,.15.22.39.59,1.21,1.82,2,2.95.15.22.42.56,1.27,1.74,2.07,2.84c.64.88,1.29,1.76,1.93,2.65l1.95,2.68,2.1,2.9c.52.74,1.06,1.47,1.59,2.21l2.38,3.39c.46.66.92,1.31,1.37,2q1.86,2.73,3.71,5.48l2.46,3.64.84,1.24.48.68c1.31,1.85,2.61,3.7,3.93,5.54l2.58,3.62.88,1.24.48.65c1.32,1.77,2.63,3.55,4,5.32s2.65,3.57,4,5.35l2.63,3.45.59.78.12.16.57.69,2.71,3.35.49.6,1.12,1.31,2.57,3,.46.51,1.72,1.86,1.45,1.56.47.51,3.06,3.22.78.83.23.23.59.58,3,2.95c.2.2.42.39.63.59l1.64,1.51,1.42,1.32.7.63,3.1,2.72c.21.19.42.36.64.54.67.56,1.35,1.11,2,1.68l.63.51.19.16,1.1.8,1.69,1.25.33.23.17.11.44.29,1.89,1.21c.27.18.54.36.82.53L841,452l.68.4.53.3,1.66.92.34.19,1.21.63c.45.24.91.45,1.37.67l.44.21c.42.18.85.35,1.28.5s.76.24,1.15.35A.24.24,0,0,0,850,456a.25.25,0,0,0-.17-.31l-1.16-.35c-.43-.15-.85-.32-1.27-.5l.06,0c-.59-.28-1.18-.54-1.75-.85s-1.15-.59-1.72-.91l-2-1.1-.73-.43-1.37-.8c-.24-.15-.48-.3-.73-.44l-.17-.11-.45-.29-2.33-1.5a3.62,3.62,0,0,1-.32-.22l-.94-.69L833,446l-2.24-1.85-1-.84c-.18-.14-.34-.29-.5-.44l-2.76-2.43L826,440l-.82-.76-2.65-2.45c-.15-.13-.3-.26-.44-.4l-.79-.79-2.6-2.58-.42-.42-.76-.8c-1.24-1.31-2.49-2.61-3.72-3.93l-2.57-2.79-.75-.81c-.12-.13-.23-.28-.35-.42l-2.33-2.72-.95-1.11-.28-.32-3.72-4.6-1.89-2.48L799,410.12c-1.3-1.74-2.6-3.47-3.89-5.21l-2.25-3-1.2-1.62-.48-.65-2.26-3.16-1.69-2.38L785,390.91l-1.2-1.7-.48-.67q-1.87-2.79-3.76-5.57l-2.12-3.13c-.38-.55-.75-1.11-1.13-1.67l-.46-.67-2.26-3.22-1.49-2.1-3.68-5.11-4-5.48-2.6-3.55c-.24-.34-.48-.67-.73-1l-.08-.13c-.16-.23-.31-.47-.47-.71-.83-1.23-1.65-2.47-2.47-3.7l-.69-1c-.19-.28-.36-.56-.53-.84l-2.41-3.83-.78-1.25c-.15-.23-.27-.47-.41-.7q-1.1-1.93-2.2-3.87l-.84-1.48-.13-.23c-.08-.13-.14-.27-.21-.4L747.92,335l-.86-1.69-.19-.37c0-.08-.07-.17-.11-.25-1-2.19-2-4.38-2.92-6.58h0l0-.06v0l-2.67-6.72c-.24-.58-.46-1.18-.68-1.77l-1.71-4.54c-.21-.56-.42-1.12-.64-1.67q-.84-2.17-1.7-4.35-1.11-2.84-2.23-5.66T732,295.7c-.55-1.43-1.11-2.86-1.67-4.28-.25-.66-.51-1.31-.76-2l-2.82-7.39c-.8-2.09-1.58-4.19-2.37-6.28-.31-.81-.61-1.62-.92-2.44-.08-.23-.16-.46-.25-.69l-.75-2.08c-.52-1.46-1-2.92-1.58-4.37l-.7-1.95-2.77-7.77c-.63-1.79-1.25-3.59-1.87-5.38l-4.72-13.68c-.16-.46-.33-.91-.49-1.37q-.79-2.2-1.6-4.42c-.63-1.75-1.25-3.5-1.89-5.25-1-2.66-2-5.33-2.93-8l-.18-.47-.33-.84-1.73-4.34-1.5-3.78c-.09-.22-.17-.44-.26-.65s-.19-.45-.29-.67l-3.51-7.94-.43-1c0-.12-.12-.24-.17-.36-.6-1.2-1.19-2.41-1.78-3.61l-2-4c-.26-.53-.52-1.07-.8-1.59l-4.08-7.56-.61-1.13-.18-.32-1.91-3.19L681.76,173l-.73-1.23-.26-.42-4.48-7-.7-1.1-.21-.31c-.76-1.09-1.53-2.18-2.28-3.27s-1.69-2.41-2.53-3.61c-.19-.26-.38-.53-.56-.8l-.07-.09c-.1-.13-.22-.27-.32-.41q-2.62-3.28-5.24-6.58c-.34-.42-.68-.83-1-1.24l-3.12-3.74c-1.17-1.4-2.33-2.81-3.51-4.2l-4.79-5.73c-.11-.13-.22-.26-.32-.4l-1-1.28-2.68-3.32q-1.5-1.84-3-3.71L640,118.44l-.79-1-2.68-3.29-2.42-3c-.3-.37-.6-.73-.89-1.11l-5-6.25L621,94.77h0l-4.62-5.92-1.53-2c-.15-.19-.29-.39-.44-.59l-1.32-1.76-2.76-3.71c-.42-.56-.84-1.11-1.25-1.68l-4.53-6.32-.28-.42-1-1.42-2.74-4.07c-.31-.46-.62-.92-.92-1.39l-2.46-3.79-2-3.06c-.08-.13-.16-.25-.23-.38l-1-1.69-2.16-3.69c-.12-.19-.24-.38-.35-.58l-.88-1.65-1-2c-.39-.72-.77-1.45-1.15-2.17a.26.26,0,0,0-.34-.09ZM743.84,326.12h0l0,0,0,0Z" transform="translate(50.98 40.54)"/><path class="a" d="M284.5-14.52c-1.22.47-2.44,1-3.64,1.46-.85.36-1.66.8-2.47,1.23s-1.63,1-2.42,1.48c-.51.34-1.06.75-1.55,1.11-.76.54-1.47,1.13-2.2,1.7-1.68,1.34-3.26,2.79-4.8,4.27C266.19-2.08,265-.83,263.87.42c-.07.07-.14.16-.21.24s-.36.44-.55.65l-3.56,4.2-.45.54-.15.17c-.22.3-.46.6-.69.9l-3.39,4.43c-.23.3-.47.6-.69.9-.07.09-.13.19-.2.27l-.5.72-3.24,4.62-.41.59a.91.91,0,0,0-.11.16c-.28.44-.56.89-.83,1.34l-2.82,4.54c-.12.19-.24.39-.35.59-.37.63-.74,1.25-1.1,1.88L242.4,31l-.17.31-.43.81-1.27,2.35-1.13,2.11c-.16.28-.3.56-.44.84q-1.1,2.19-2.17,4.38l-.71,1.43c-.2.39-.38.78-.56,1.18-.57,1.21-1.14,2.41-1.7,3.62-.27.57-.54,1.14-.8,1.71q-1.38,3.08-2.76,6.12l0-.06c-.54,1.17-1.07,2.33-1.6,3.5l-1,2.13c-.13.29-.26.58-.41.87l-2.19,4.5c-.45.92-.9,1.84-1.36,2.76l-2.16,4.3-.37.71-1.37,2.55-1.15,2.15c-.12.24-.24.47-.38.71l-2.52,4.39-3.49,6L210,94.24l-.7,1.22c-.31.52-.64,1-1,1.57-.71,1.17-1.42,2.36-2.12,3.53-.28.45-.54.91-.8,1.36l-1.61,2.71c-.16.28-.33.55-.49.84l-1.09,2c-.6,1.06-1.2,2.11-1.77,3.18-.7,1.29-1.41,2.59-2.1,3.89-.21.38-.41.76-.61,1.14l-1.42,2.68c-.55,1-1.14,2.1-1.72,3.14l-.65,1.18c-.46.81-.91,1.62-1.37,2.42-.22.38-.43.76-.65,1.13l-1.27,2.17c-.64,1.09-1.32,2.16-2,3.24-.28.46-.58.92-.88,1.38s-.59.94-.89,1.4c-.75,1.14-1.5,2.28-2.26,3.4l-2.28,3.35c-.65.94-1.3,1.87-1.94,2.82l-2,3-1,1.43c-.35.52-.68,1-1,1.56l-1.09,1.65c-.38.58-.79,1.16-1.17,1.73-.65,1-1.29,1.88-1.93,2.83l-1.32,2c-.25.37-.48.74-.74,1.1-.47.68-1,1.36-1.43,2-.3.44-.59.88-.91,1.29l-1.73,2.25-.72.93c-.11.15-.22.3-.34.44l-3.22,4c-.88,1-1.77,2.09-2.66,3.14l-.94,1.11c-.09.11-.19.21-.28.31l-1,1.13-5.82,6.52c-1.77,2-3.52,4-5.27,6-.62.71-1.25,1.4-1.88,2.1-1.06,1.18-2.12,2.35-3.17,3.53-.2.21-.38.44-.56.66-.53.61-1,1.23-1.57,1.84-1,1.18-2,2.35-3,3.53-.14.16-.26.34-.4.51L134,202.24l-3.25,4.22c-.52.66-1,1.34-1.52,2l-3.47,4.65-.64.86-.58.8c-1.08,1.52-2.17,3-3.25,4.54-.57.79-1.14,1.57-1.7,2.37-.84,1.2-1.7,2.4-2.55,3.6s-1.8,2.52-2.69,3.79c-.54.76-1.07,1.53-1.61,2.3-1,1.44-2,2.9-3,4.35l-.76,1.08c-.21.29-.4.6-.6.9l-3,4.42-1.17,1.76c-.15.22-.29.44-.43.66q-1.26,2-2.5,3.93l-1.32,2.09c-.2.31-.4.62-.59.93l-4.06,6.71-2.47,4c-.53.89-1.07,1.79-1.63,2.66l-2.76,4.3c-.24.35-.47.71-.7,1.06a3.28,3.28,0,0,1-.2.31c-.25.36-.5.73-.74,1.1L85,274.28l-1,1.44-3.24,4.64c-.22.32-.45.64-.68.95l-2.08,2.85-.79,1.08-1.93,2.56c-.87,1.16-1.75,2.31-2.62,3.46s-1.75,2.31-2.64,3.44c-.63.82-1.27,1.62-1.9,2.43l-1,1.29-3.35,4.17-2.91,3.49c-.94,1.13-1.9,2.24-2.85,3.35s-1.89,2.24-2.83,3.36l-2.51,3h0L47.58,322l-4.94,6c-1.59,1.87-3.19,3.74-4.77,5.62l-5.55,6.61L30.82,342l-.41.49-3.23,4c-.59.72-1.17,1.45-1.75,2.19l-2.87,3.63c-.86,1.1-1.74,2.19-2.6,3.28-.68.85-1.36,1.7-2,2.56L14.87,362l-.45.6-1.6,2.13c-.52.68-1,1.37-1.54,2.05-.2.25-.4.51-.59.78L8,371.44l-1.22,1.72-.37.54-2.91,4.36-1.13,1.68a5.69,5.69,0,0,0-.33.52l-2.77,4.52-1.17,1.91c-.11.19-.23.37-.34.57l-2.37,4.11-1.95,3.38c-.13.21-.23.43-.35.65l-1.23,2.33c-.8,1.52-1.6,3-2.41,4.57l-.45.87c-.22.41-.41.82-.62,1.23l-2.43,4.81c-.42.85-.86,1.7-1.27,2.55q-1.87,3.8-3.74,7.6l-1.62,3.33-1.81,3.76c-.57,1.16-1.12,2.32-1.68,3.48-.48,1-.95,2-1.44,3-.71,1.44-1.41,2.88-2.12,4.33-.49,1-1,2-1.49,3l-1.18,2.3c-.13.28-.27.55-.42.83L-33,447.46c-.21.4-.44.79-.66,1.19L-35,451l-.55,1c-.5.84-1,1.69-1.48,2.53-.25.44-.51.86-.76,1.29-.37.61-.73,1.23-1.1,1.83l-1,1.63-.61,1-1,1.46a.28.28,0,0,0,.11.39.32.32,0,0,0,.42-.1c.27-.4.54-.8.79-1.2l.62-1c.32-.5.63-1,.94-1.52s.57-.92.85-1.39c.38-.64.77-1.27,1.14-1.91l1.16-2c.25-.43.51-.86.75-1.3l2.13-3.83c.25-.46.49-.92.73-1.38l1.22-2.3c.57-1.07,1.11-2.14,1.65-3.21l1.45-2.86,2.26-4.62c.4-.8.78-1.61,1.17-2.41l2-4.25c1.14-2.37,2.29-4.73,3.44-7.1.44-.91.89-1.81,1.34-2.72.77-1.57,1.55-3.15,2.32-4.73l1-2,2.63-5.22c.33-.65.65-1.31,1-2l2.44-4.63c.59-1.11,1.18-2.22,1.76-3.33.12-.23.26-.46.39-.68l1.36-2.36,2.43-4.2c.46-.81,1-1.61,1.45-2.4L2.27,381c.15-.24.28-.49.44-.72l1-1.56,2.87-4.29c.16-.24.31-.48.48-.71.37-.54.76-1.07,1.14-1.61l2.81-4c.13-.19.27-.38.41-.56l1.6-2.14,1.54-2,.59-.79,3-3.87c1.6-2,3.23-4.07,4.84-6.1,1.34-1.68,2.66-3.37,4-5.06.15-.19.29-.37.45-.55.42-.52.84-1,1.27-1.57l2.26-2.8c1.35-1.62,2.71-3.23,4.06-4.84L39.16,333c.51-.6,1-1.19,1.52-1.79l2.37-2.78.35-.43,1.27-1.53c.7-.85,1.4-1.71,2.11-2.56,2.94-3.54,5.9-7.08,8.84-10.63h0l1.3-1.56c.35-.41.69-.83,1-1.23l2.91-3.41,1-1.18,1.73-2.08.76-.92,1.17-1.45,1.66-2.06.69-.85,3-3.81,1.86-2.42,2.25-3,2.87-3.8.57-.78,1.83-2.51c.31-.41.61-.83.91-1.25.09-.11.16-.22.24-.33l.59-.85L84.62,276l.73-1.08c.49-.74,1-1.47,1.49-2.21S88,270.94,88.6,270l2.76-4.29.7-1.07c.06-.09.11-.19.17-.29l.68-1.11,4.26-7c.85-1.42,1.71-2.82,2.56-4.24l.33-.52c.41-.66.83-1.32,1.25-2l2.73-4.3c.14-.22.28-.45.43-.67l1-1.46,3-4.5.92-1.38c.16-.23.32-.47.49-.7l2.89-4.13,2-2.83c1.74-2.47,3.5-4.93,5.25-7.39l1.34-1.89,3.36-4.67c.42-.58.83-1.17,1.26-1.75q1.65-2.19,3.28-4.39L131,207.1c.32-.44.66-.86,1-1.3q2.12-2.72,4.21-5.45c1.7-2,3.38-4,5.08-6a2.73,2.73,0,0,1,.23-.25l.59-.66,1.76-2,1.68-1.87.69-.77c1.71-2,3.42-3.92,5.15-5.85l5.76-6.46,1.46-1.64c.2-.22.39-.45.59-.68,1.05-1.23,2.09-2.47,3.13-3.7l.6-.72,1.72-2.13c.35-.42.7-.85,1-1.28.11-.12.21-.26.3-.38l1-1.3c.48-.63,1-1.26,1.45-1.88.23-.31.45-.63.66-1,.51-.71,1-1.43,1.51-2.14.31-.44.61-.89.9-1.33l2.2-3.27,2.22-3.27c.38-.55.73-1.1,1.1-1.65l.94-1.44c.31-.49.64-1,1-1.44l1.1-1.64,1-1.48.88-1.29,2.22-3.22,1.11-1.65.79-1.17,1.34-2q.52-.8,1-1.59c.3-.46.6-.92.89-1.39l1.14-1.86c.22-.37.45-.73.66-1.09.48-.82,1-1.64,1.45-2.46.22-.37.43-.75.64-1.13.43-.74.85-1.49,1.27-2.24l.56-1,1.44-2.61c.58-1,1.13-2.12,1.69-3.18s1.13-2.12,1.7-3.17c.4-.75.81-1.5,1.21-2.26l.45-.81,2.41-4.31c.16-.28.33-.56.5-.84.45-.78.91-1.55,1.37-2.32.58-1,1.17-2,1.76-2.95.75-1.25,1.49-2.5,2.25-3.74.5-.84,1-1.69,1.48-2.54L215,87q1.77-3.06,3.52-6.13l.49-.83.16-.33c.16-.27.3-.55.45-.83l2.32-4.33c.4-.75.77-1.52,1.15-2.28l2-3.9c.42-.84.82-1.69,1.23-2.53L228,62.21c.13-.27.25-.54.37-.82.35-.75.69-1.51,1-2.27L230.83,56c.42-.92.83-1.85,1.25-2.78l1.6-3.56,0,.07q1.44-3.06,2.87-6.12c.32-.67.66-1.33,1-2,.62-1.26,1.25-2.52,1.87-3.77.1-.2.18-.39.28-.57.2-.37.39-.73.59-1.08.69-1.3,1.39-2.59,2.09-3.88.19-.36.38-.72.58-1.08.1-.19.21-.37.32-.56.71-1.21,1.42-2.44,2.14-3.65l.87-1.5.26-.43c.66-1.06,1.31-2.12,2-3.18s1.19-1.91,1.78-2.86c.11-.18.24-.34.35-.51l1.08-1.52c.84-1.21,1.69-2.41,2.54-3.62l.49-.71.09-.11.41-.54,4.26-5.56,0,0,0,0h0L264,1.25c.09-.11.18-.21.26-.32s.43-.46.68-.73c1-1,2-2.06,3-3.05s2.2-2.08,3.35-3.07c.71-.62,1.45-1.21,2.19-1.8s1.46-1.12,2.19-1.66l-.06.05c.5-.35,1-.7,1.52-1,.8-.52,1.65-1,2.5-1.42a37.08,37.08,0,0,1,4-1.73l-.08,0,1.22-.47a.36.36,0,0,0,.19-.13.28.28,0,0,0,0-.22.31.31,0,0,0-.14-.18.42.42,0,0,0-.16,0ZM136.18,200.38h0ZM63.86,302.54l0,0,0,0Zm-17,21.31,0,0,0,0ZM31.06,342.63l0,0,0,0Zm0,0,0,0,0,0ZM259.48,6.52h0Z" transform="translate(50.98 40.54)"/><path class="a" d="M299.4-40.41l-1.26,2.15-.6,1c-.15.26-.32.5-.48.74s-.46.72-.7,1.08a4.68,4.68,0,0,1-.27.4l-1.49,2c-.48.55-1,1.11-1.43,1.67-.18.19-.35.39-.52.59a.46.46,0,0,1-.07.07l-.47.49-1.53,1.62L290-28l-1.21,1.23-.29.31c-.28.3-.55.6-.84.9l-1.36,1.47-3.07,3.32c-.28.3-.55.61-.83.92l-1.89,2.1-1.07,1.2-.26.3c-.3.37-.62.73-.93,1.1l-3,3.55c-.17.19-.32.39-.48.6l-1.9,2.41-1.7,2.16-.5.63-.14.17-2.85,4L266.27.31c-.14.21-.29.4-.43.61l-3,4.33c-.54.78-1.08,1.56-1.61,2.35l-3.08,4.59q-2.33,3.47-4.63,7c-1.54,2.3-3.07,4.62-4.6,6.93l-4.65,7-1.33,2-3.33,4.86-.84,1.24-.52.73-3.39,4.78c-1.61,2.27-3.18,4.56-4.77,6.84-.3.42-.59.85-.89,1.28-.18.26-.35.53-.52.79-1.09,1.66-2.17,3.32-3.26,5l-.69,1.07a3.21,3.21,0,0,0-.19.31l-.51.81q-1.47,2.35-2.93,4.72c-.56.89-1.09,1.79-1.63,2.69s-.94,1.56-1.41,2.34c-.21.34-.43.69-.62,1-.9,1.68-1.8,3.35-2.69,5a1.42,1.42,0,0,0-.12.25c-.21.44-.43.87-.63,1.31-.49,1-1,2-1.46,3.06-.25.5-.46,1-.69,1.51-.39.89-.79,1.77-1.19,2.66l-.3.73c-.24.58-.48,1.16-.73,1.74-.1.25-.21.49-.3.74l-.5,1.34c-.24.65-.49,1.29-.72,1.94-.37,1-.75,2.09-1.12,3.14q-.84,2.35-1.7,4.71c-.21.6-.44,1.19-.66,1.79l-1,2.67a1.89,1.89,0,0,1-.09.21c-.07.18-.15.36-.23.55l-.7,1.66c-.33.8-.67,1.6-1,2.41l0-.07-1.87,4.14c-.14.32-.29.65-.44,1l-1.23,2.58-1.41,2.94L195.5,124l-.48,1c-.08.15-.15.31-.23.45q-1.09,2.13-2.2,4.26l-.47.89c-.46.85-.93,1.7-1.39,2.56l-1.15,2.1-.46.8-2.65,4.55c-.15.26-.3.5-.44.75l-1.33,2.22-1.88,3.13-2.75,4.51c-.25.4-.49.8-.73,1.2l-.21.33-.78,1.23-2.73,4.3-.48.7-1.76,2.54-1.48,2.13q-.22.34-.48.69c-1.07,1.45-2.15,2.9-3.21,4.35l-1.05,1.42c-.12.15-.26.31-.38.47l-1,1.17L162.36,176a.12.12,0,0,1,0-.05l-2.7,2.9-1.86,2-.61.66-.26.27-5.71,5.81-3.44,3.49c-.76.77-1.52,1.55-2.29,2.31q-3.1,3.12-6.23,6.23c-1,1-2,1.93-2.95,2.91l-3.15,3.16c-.43.44-.88.87-1.32,1.3L130,208.85l-3.06,3L125.83,213l-.32.3-.8.76L122.64,216l-1.16,1.1L118,220.34l-2.74,2.59-1.76,1.66c-.29.27-.56.56-.84.84-1,1-2,2-3,3l-1.88,1.95c-.27.27-.53.53-.78.81L103.57,235c-.27.29-.52.6-.78.89-.61.7-1.22,1.41-1.84,2.11l-1.26,1.46-.17.21c-.31.36-.61.73-.91,1.09L95.94,244l-3.26,4-2.1,2.56-1.79,2.17-.67.81-3.19,4c-.8,1-1.56,2-2.33,3L81,262.54l-.53.7-3.23,4.41-.49.69-1.44,2.06c-.72,1-1.45,2.07-2.17,3.12l-2.89,4.21c-.25.37-.51.74-.76,1.12s-.67,1-1,1.5c-.92,1.39-1.84,2.77-2.75,4.16-.16.24-.3.47-.45.71-.53.88-1.06,1.76-1.6,2.64s-.89,1.47-1.33,2.2c-.15.24-.3.48-.43.73-.92,1.57-1.83,3.16-2.75,4.74-.45.78-.9,1.57-1.37,2.34q-1.48,2.52-3,5l-.5.84-.87,1.39-2.95,4.72c-.12.21-.26.4-.39.6-.42.64-.85,1.27-1.27,1.9L46,316.61c-.17.25-.35.49-.54.73-.5.7-1,1.39-1.51,2.08l-2.9,4c-.17.24-.36.47-.54.71l-1.57,2-3.25,4.15-5.41,6.94c-.5.65-1,1.29-1.52,1.93l-3.71,4.71L20,350.3q-2.43,3.1-4.85,6.22c-1.6,2.07-3.21,4.13-4.81,6.19l-3.21,4.12c-.58.74-1.15,1.49-1.72,2.24l-5,6.54L-3,380c-.62.8-1.25,1.59-1.85,2.41l-5.47,7.36-.65.93c-.51.71-1,1.43-1.51,2.14L-15.42,397c-.14.19-.28.4-.41.6l-1.35,2-2.75,4-.56.84L-22,406.76c-.71,1.07-1.42,2.15-2.14,3.22l-4.74,7.07-5.07,7.62c-.21.31-.4.63-.59.95L-36,428.06c-.24.39-.48.78-.71,1.17-.39.69-.79,1.37-1.19,2.06l-1.32,2.3c-.16.27-.32.54-.47.82l-2.49,4.71c-.11.2-.21.39-.3.59l-.78,1.7-1.5,3.25a.69.69,0,0,0-.05.13c-.1.25-.2.51-.29.77-.29.73-.58,1.47-.86,2.21-.21.54-.41,1.07-.62,1.6-.12.3-.22.62-.33.93-.35,1-.72,2-1.07,3.07-.2.61-.4,1.22-.61,1.83-.12.37-.26.75-.38,1.13l-.59,1.86c-.14.43-.27.86-.39,1.3l-.24.8-.18.7-.23.86c-.13.51-.23,1-.35,1.51a.29.29,0,0,0,.21.35.3.3,0,0,0,.37-.2c.12-.5.22-1,.35-1.51s.25-.94.37-1.42c.08-.32.18-.63.27-.94s.2-.7.31-1c.24-.74.47-1.48.71-2.22.11-.35.23-.69.35-1l.54-1.6c.47-1.4,1-2.79,1.45-4.17,0-.17.12-.33.18-.49l.63-1.63,1-2.52,1.86-4.07.4-.87a1.92,1.92,0,0,1,.12-.25l1.14-2.16,1.28-2.41.45-.84,2.6-4.5c.15-.27.32-.55.49-.82.47-.79,1-1.57,1.43-2.35l.92-1.52c.09-.15.19-.28.28-.42l.93-1.4,4.85-7.27c1.39-2.09,2.81-4.17,4.2-6.26,1-1.46,1.93-2.91,2.89-4.36l1.67-2.49c1-1.5,2.05-3,3.07-4.51l.69-1,.87-1.23,3.22-4.58,1-1.44.56-.76,3.24-4.36,1.46-2,.55-.75c1.87-2.43,3.74-4.87,5.62-7.29S5.17,370.31,7,368l1.47-1.9,3.76-4.83c1.65-2.12,3.29-4.24,5-6.36.64-.84,1.29-1.68,1.94-2.51,1-1.22,1.91-2.44,2.87-3.65l4.92-6.27q2.54-3.19,5-6.4l5.16-6.62,3.5-4.47.95-1.21.11-.15.62-.86,3.29-4.5.92-1.26.12-.17c.21-.32.42-.64.64-1,1-1.54,2-3.07,3.09-4.61.18-.27.37-.54.54-.82.37-.58.73-1.17,1.1-1.76l2.72-4.35.37-.61,1.41-2.37,2.34-3.93.51-.88,1.62-2.81c.43-.74.86-1.48,1.28-2.22l.42-.71,2.82-4.64c.23-.4.47-.79.71-1.19l.22-.32.55-.83,3-4.51.46-.69,1.43-2.08c.51-.74,1-1.48,1.52-2.21.19-.29.38-.57.58-.85q1.36-2,2.75-3.94l.86-1.23c.08-.11.16-.23.25-.34l.63-.86,2.82-3.86.73-1,1.76-2.3,1.21-1.58.75-.94c1-1.28,2-2.56,3.07-3.85q2.58-3.12,5.14-6.25c.85-1,1.69-2.06,2.54-3.08l3.34-4,.6-.69c.54-.64,1.09-1.26,1.64-1.9l1.65-1.89c.28-.33.57-.64.86-1,1-1.14,2.07-2.28,3.09-3.42L108,231c.28-.3.57-.59.86-.89.61-.64,1.23-1.27,1.85-1.91l1-1,1.83-1.83.79-.76,2.35-2.23c.78-.74,1.57-1.47,2.36-2.2,1-.94,2-1.88,3-2.83l3.62-3.42c.92-.87,1.82-1.77,2.73-2.66l2.5-2.47c1-1,2.06-2,3.08-3l2.85-2.86,3.77-3.74c1.93-1.91,3.84-3.83,5.75-5.74.86-.86,1.7-1.72,2.55-2.59l2.9-2.94c1-1.06,2.09-2.12,3.13-3.19l1.83-1.85c.25-.26.5-.5.74-.76l3.26-3.51,1.63-1.76.37-.39.18-.22,3.07-3.77,1.4-1.72.23-.28.1-.14c.09-.12.18-.25.28-.37l3.18-4.32.8-1.07a3.62,3.62,0,0,1,.22-.32l.82-1.18,2.85-4.13c.16-.23.31-.47.47-.71l1.68-2.65,1.41-2.22c.16-.24.31-.48.46-.73l2.86-4.69c1.36-2.24,2.71-4.5,4.05-6.75l.56-.95,1.39-2.38,1.08-1.87c.24-.4.45-.81.68-1.22l2.17-4,.22-.41c.17-.34.35-.68.53-1,.49-1,1-1.91,1.49-2.87.14-.3.3-.59.45-.89l1-2.06c.55-1.13,1.1-2.27,1.64-3.41l1.89-4,.21-.45c.16-.37.33-.73.49-1.1l1.31-2.9c.44-1,.84-2,1.25-2.93l.93-2.21c.21-.49.39-1,.57-1.49.45-1.21.91-2.4,1.35-3.62s.95-2.63,1.43-4c.34-1,.69-2,1-2.94.24-.67.49-1.34.74-2s.53-1.47.83-2.18c.37-.9.74-1.8,1.12-2.7.58-1.29,1.15-2.59,1.74-3.88.17-.4.37-.79.56-1.18l1.39-2.92c.15-.31.29-.62.46-.93.35-.67.71-1.34,1.07-2l1.28-2.4.34-.62c.07-.13.14-.26.22-.39l2.64-4.37c.18-.31.37-.61.55-.91l1.13-1.81q1.29-2.08,2.59-4.17c.13-.21.27-.42.42-.64l1.61-2.47,2.48-3.79.52-.75,1.74-2.5c.83-1.21,1.67-2.4,2.5-3.6l.52-.74c.59-.83,1.18-1.65,1.77-2.49l2.52-3.56c.17-.23.33-.47.49-.71l1.68-2.45,2.62-3.84c.14-.19.27-.39.4-.59l1.59-2.39,3.22-4.85,3.91-5.9,4.05-6.09c1.19-1.79,2.39-3.57,3.59-5.36L262,7.57l1.94-2.82,2.32-3.39c.38-.54.76-1.07,1.15-1.6.82-1.15,1.64-2.3,2.47-3.44.33-.46.66-.93,1-1.39l.3-.41,4.47-5.67h0l0,0,0,0h0L278.94-15l.66-.77.29-.34L281.56-18l1.89-2.11,1.05-1.14,3.58-3.86c.44-.48.88-1,1.34-1.43s.65-.67,1-1l.66-.68,1.93-2c.21-.22.39-.45.59-.68l1.21-1.41c.1-.11.21-.23.3-.35l.79-1,.72-1c.18-.23.32-.49.48-.73s.47-.72.7-1.08c.07-.1.13-.21.2-.32l.21-.35c.57-1,1.15-1.95,1.71-2.92a.28.28,0,0,0-.1-.39l-.15,0a.28.28,0,0,0-.26.13Zm-210.63,294,0,0,0,0Zm0,0,0,0,0,0ZM275.65-11.16h0l0,0,0,0Z" transform="translate(50.98 40.54)"/></svg>