<svg xmlns="http://www.w3.org/2000/svg" viewBox="0 0 965.38 794.66"><defs><style>.a{fill:#cfcfe0;}</style></defs><path class="a" d="M93-9.2c-.22.86-.43,1.73-.65,2.59-.13.53-.26,1.06-.4,1.59l-.87,3.37c-.2.75-.39,1.5-.58,2.25-.06.21-.1.42-.15.63-.13.51-.25,1-.38,1.53-.27,1.11-.53,2.22-.81,3.33L88.77,7.9,88,11.45,87.6,13c-.24,1.16-.49,2.32-.74,3.48l-.18.88-.06.35c0,.3-.09.6-.13.9-.18,1.18-.36,2.37-.53,3.55l-.12.75c0,.15,0,.29,0,.43l-.34,3.42c-.08.78-.17,1.55-.23,2.33-.08,1.18-.17,2.36-.25,3.54,0,.19,0,.38,0,.57l0,1.27c0,1.17-.08,2.35-.13,3.52,0,.74,0,1.48-.05,2.21,0,1.69-.08,3.39-.1,5.08,0,1,0,2.08,0,3.12v.62c0,.82,0,1.64,0,2.47v1s0,.09,0,.13l0,.86c0,.93.07,1.87.11,2.8a.41.41,0,0,0,0,.11l.06.71c0,.59.11,1.19.16,1.78s.11,1.19.16,1.79c0,.3.05.6.08.9q.3,2.73.58,5.44c0,.28.06.56.1.84.07.6.13,1.2.2,1.79.09.79.18,1.57.28,2.36l.39,3.39c.06.49.11,1,.17,1.48,0,.15,0,.31,0,.45.14,1,.27,2,.4,3,.08.56.15,1.13.23,1.7,0,.27.06.54.11.81l.45,2.8c.08.47.15.94.22,1.4,0,.17.07.34.11.51.25,1.07.49,2.14.73,3.21l.18.81a3.74,3.74,0,0,1,.12.45c.1.36.2.71.29,1.07l.75,2.8,0,.1c.08.23.15.46.23.7.19.56.38,1.12.56,1.67s.34,1,.5,1.5c0,.17.11.33.17.48.47,1.11.94,2.23,1.4,3.35.16.36.31.73.47,1.1,0,.09.07.18.11.27l1.38,3,.4.87.06.13c.14.28.29.56.43.85l.81,1.63c.09.16.17.32.25.48s.2.35.29.53l.9,1.62c.12.22.24.45.38.66.56.92,1.13,1.84,1.7,2.76.11.18.22.34.34.51.3.47.62.94.93,1.41s.51.78.77,1.17l.76,1.11c.44.65.87,1.3,1.32,1.93.61.83,1.21,1.67,1.81,2.51l1.28,1.77c.35.5.71,1,1.07,1.49l.56.79,2.42,3.49c.17.25.35.5.52.76l1.17,1.75c.58.88,1.16,1.75,1.74,2.64l1.21,1.85.24.39a.41.41,0,0,1,.07.11l.45.76c.4.7.8,1.4,1.21,2.09.08.15.16.29.25.43l.23.43,1.13,2.07c.13.25.27.5.41.75l.35.68,1.07,2.08c.22.44.43.89.65,1.33s.45.9.65,1.36c.33.71.65,1.44,1,2.16l0-.07c.4,1,.8,2,1.19,3,.08.19.15.39.22.57l.78,2.14c.11.3.23.59.34.89l.16.48.36,1,.53,1.52c0,.16.08.33.13.49l.3,1.12c.16.59.31,1.18.47,1.77l.13.49c0,.12.05.24.08.37.29,1.4.59,2.8.88,4.2,0,.15.07.3.09.46.1.57.2,1.15.29,1.72l.63,3.69s0-.05,0-.07c.23,1.69.46,3.37.68,5.06l.12.92c.07.61.15,1.23.22,1.84l.18,1.39c0,.28,0,.56.07.84.11,1.15.21,2.29.31,3.44.05.52.1,1.05.13,1.57.07,1.13.13,2.26.2,3.39.05.73.1,1.46.13,2.2l.12,3.44c0,.66.06,1.32.07,2l.06,3.09c0,.59,0,1.17,0,1.76,0,.29,0,.58,0,.87v6.07c0,.14,0,.28,0,.42l0,1.42-.09,3.91c0,1.69-.1,3.38-.15,5.07,0,.66-.05,1.32-.07,2,0,1.23-.09,2.46-.13,3.69,0,.66-.06,1.32-.1,2-.05,1.16-.11,2.31-.16,3.47l-.3,5.68c-.09,1.62-.2,3.24-.3,4.86-.11,1.82-.21,3.64-.32,5.46s-.18,3.46-.27,5.19-.2,3.62-.3,5.43c-.09,1.64-.19,3.28-.28,4.92q0,.94-.12,1.89c-.08,1.16-.17,2.33-.25,3.49-.12,1.64-.24,3.27-.34,4.91-.07,1-.13,1.93-.19,2.89,0,.27,0,.55-.07.82l-.21,2.47c-.15,1.69-.3,3.39-.46,5.08q-.27,3-.52,6c0,.58-.1,1.15-.16,1.72l-.36,3.57c-.19,1.81-.37,3.62-.55,5.42l-.18,1.82-.3,3.23q-.26,2.83-.52,5.68c-.15,1.66-.28,3.33-.41,5,0,.51-.09,1-.13,1.52-.13,1.33-.26,2.66-.38,4-.16,1.64-.33,3.29-.49,4.93q-.27,2.76-.52,5.5c-.07.78-.16,1.55-.25,2.32s-.14,1.35-.22,2l-.75,6c-.22,1.85-.47,3.7-.71,5.54s-.48,3.72-.72,5.58v0c-.12.84-.24,1.68-.35,2.52-.07.52-.15,1-.22,1.57,0,.16,0,.32-.07.47-.31,1.93-.62,3.85-.92,5.78-.13.79-.27,1.58-.41,2.37-.19,1.11-.38,2.22-.56,3.33-.3,1.73-.59,3.45-.89,5.18,0,.23-.07.48-.11.72-.08.55-.16,1.1-.25,1.65-.14,1-.29,1.93-.44,2.89-.1.65-.2,1.29-.31,1.94-.19,1.22-.39,2.44-.59,3.65-.1.63-.21,1.27-.32,1.9-.21,1.22-.42,2.44-.62,3.66-.31,1.77-.64,3.53-1,5.3-.15.87-.31,1.74-.47,2.61-.1.54-.2,1.08-.31,1.62l-.72,3.74c-.14.74-.27,1.47-.42,2.2l-1.17,5.89c-.37,1.87-.76,3.73-1.14,5.6-.34,1.64-.69,3.29-1,4.94l-1.12,5.33c0,.18-.07.36-.1.54-.1.55-.19,1.11-.29,1.66l-.48,2.75c0,.25-.08.5-.12.76-.09.56-.17,1.12-.26,1.68-.13.86-.27,1.71-.4,2.57-.16,1-.31,2.09-.47,3.13-.08.46-.14.92-.2,1.38l-.45,3.46c0,.29-.07.58-.11.87s-.1.88-.15,1.32c-.13,1.13-.25,2.26-.38,3.39-.08.65-.13,1.29-.2,1.94l-.26,2.87c0,.26,0,.52-.06.79,0,.78-.09,1.56-.14,2.34l-.09,1.52,0,.48-.12,3.14c0,.7-.06,1.39-.08,2.09,0,1.24-.07,2.48-.1,3.73,0,.66,0,1.33,0,2,0,.95,0,1.9,0,2.85s0,1.76,0,2.64l0,2.75c0,1.73,0,3.47,0,5.2,0,1.06,0,2.13,0,3.19,0,.19,0,.38,0,.56,0,.75.08,1.5.11,2.25l.06,1.33c0,.21,0,.42,0,.62.09,1.12.18,2.25.27,3.36,0,.22,0,.43.07.64l.18,1.69c0,.34.08.68.11,1a1.55,1.55,0,0,0,0,.21l.15.88c.1.57.2,1.14.29,1.71,0,.21.07.43.12.64.22,1,.44,1.93.65,2.89.06.28.14.54.21.81.14.59.29,1.17.43,1.75l.22.79c.16.57.33,1.14.49,1.71,0,.06,0,.11,0,.16l.3.94c.12.36.24.73.35,1.1s.23.65.35,1,.25.7.4,1l.38.87c.27.58.55,1.15.83,1.72l.06.12.41.76.77,1.47.3.56,1.05,1.77.44.76c.1.17.22.33.33.5l1.69,2.53c.34.5.69,1,1,1.48s.86,1.23,1.28,1.85q1.4,2,2.81,4.06l1.38,2c.49.7,1,1.41,1.44,2.12.36.52.71,1.06,1.07,1.58.21.32.42.64.64.95,0,.05.06.1.08.14l.54.85.64,1c.14.21.27.42.4.63l1.36,2.27.3.52.77,1.32c.15.25.28.51.42.76l.61,1.12.12.25.56,1.1c.17.33.33.66.49,1s.31.64.45,1l.54,1.22,0-.06c.22.54.45,1.08.66,1.63.14.39.29.77.44,1.16s.31.86.46,1.29c.22.61.41,1.23.61,1.86,0,.07.05.16.08.24.1.35.2.71.31,1.06s.17.63.25.94l.28,1.06c.06.25.11.5.16.76.12.56.23,1.12.34,1.68,0,.24.1.47.14.72l.45,2.79c.07.42.12.84.17,1.26s.11.8.17,1.2h0v.05h0s0,0,0,0v0l.12,1.08c.05.44.11.87.14,1.31s.08,1,.13,1.51c0,.2,0,.39,0,.59l0,.6c.05,1,.1,2,.13,2.93s.07,1.89.1,2.85c0,.52,0,1,0,1.57s0,.85,0,1.27v3.3c0,.36,0,.72,0,1.08,0,.72,0,1.44,0,2.17,0,.43,0,.86,0,1.3l-.06,1.78c0,1-.07,2-.11,3s-.07,2-.1,3.06q-.11,2.81-.15,5.61l-.09,6q0,3.29,0,6.55a.25.25,0,0,0,.25.25.25.25,0,0,0,.25-.25c0-3.52,0-7,.1-10.55,0-1.64.06-3.27.1-4.91,0-.86.05-1.71.07-2.57,0-1,.07-2.06.11-3.09s.06-1.79.09-2.68.06-1.52.08-2.28.05-1.49.06-2.23c0-.95.05-1.9.05-2.86v-2.9c0-.38,0-.75,0-1.13s0-1,0-1.57c0-.78-.05-1.57-.08-2.34l0-1-.09-1.84-.06-1.19c0-.06,0-.12,0-.17,0-.32-.05-.64-.08-1l-.09-1.13c0-.06,0-.12,0-.17,0-.32-.07-.64-.11-1l-.12-1.13c0-.24-.07-.48-.1-.72-.08-.56-.16-1.12-.23-1.68l-.21-1.35-.27-1.63c0-.24-.09-.47-.14-.71-.11-.56-.22-1.12-.34-1.68,0-.26-.09-.51-.16-.76l-.41-1.55c-.08-.33-.18-.66-.28-1s-.2-.69-.31-1c-.17-.54-.34-1.08-.52-1.6s-.31-.86-.47-1.3-.29-.77-.44-1.15-.25-.62-.37-.92-.21-.52-.32-.77l-.54-1.22c-.14-.33-.3-.65-.45-1s-.32-.67-.49-1c-.26-.51-.51-1-.78-1.53l-.75-1.37c-.12-.24-.26-.47-.39-.7l-1.14-1.95-.88-1.45c-.12-.2-.24-.41-.37-.61l-.87-1.38c-.24-.38-.47-.76-.71-1.12l-1.83-2.72-1.14-1.67-1.11-1.62c-.63-.9-1.25-1.8-1.87-2.71s-1.27-1.85-1.92-2.77l-1.32-1.9-.56-.81-1.24-1.85-.46-.68c-.12-.18-.22-.36-.32-.54L112,530.46c-.09-.14-.17-.29-.25-.43l-.23-.43-1-1.92-.23-.43-.42-.86c-.28-.57-.54-1.15-.79-1.73l0,.05c-.27-.64-.51-1.3-.73-2,0-.19-.12-.38-.18-.57-.11-.35-.22-.7-.34-1s-.16-.49-.23-.74c-.18-.66-.37-1.31-.56-2,0-.12-.07-.24-.1-.37-.14-.57-.29-1.16-.43-1.74-.1-.39-.2-.78-.29-1.17-.19-.84-.37-1.69-.57-2.54a2.56,2.56,0,0,1,0-.27l-.15-.89-.39-2.2c-.11-1.05-.23-2.1-.34-3.15,0-.17,0-.34,0-.5l-.09-1.17-.19-2.33c0-.15,0-.29,0-.43,0-.34,0-.68,0-1,0-.75-.07-1.5-.11-2.25,0-.14,0-.29,0-.43v-3.32c0-1.08,0-2.15,0-3.22s0-2.3,0-3.46,0-2.6,0-3.91c0-.51,0-1,0-1.55,0-.9,0-1.81,0-2.72,0-.36,0-.7,0-1,0-.82,0-1.63.07-2.45,0-1.18.08-2.35.13-3.53,0-.74,0-1.48.08-2.22,0-.25,0-.51,0-.76.09-1.52.19-3,.28-4.55,0-.35.06-.71.1-1.06.07-.84.15-1.67.23-2.51,0-.35.06-.71.1-1.06.09-.82.19-1.63.28-2.45.12-1,.22-2,.35-3l.54-4.26h0l.69-4.51c.16-1.09.34-2.18.5-3.26.06-.39.13-.79.18-1.18s.12-.65.18-1c.2-1.18.41-2.35.61-3.53,0-.18.06-.36.1-.53.09-.46.19-.91.29-1.37.4-1.93.81-3.86,1.21-5.78.71-3.35,1.4-6.69,2.07-10.05.23-1.18.47-2.36.7-3.55.09-.46.19-.92.27-1.38l1.32-6.84c.08-.44.16-.87.23-1.3.22-1.19.44-2.37.65-3.56l.48-2.61c.15-.83.28-1.67.43-2.51.19-1.14.39-2.27.58-3.41.09-.53.18-1.07.26-1.6q.45-2.78.89-5.54c.17-1.14.34-2.29.52-3.43.08-.53.17-1.07.26-1.61.32-1.9.65-3.81,1-5.71.28-1.66.57-3.31.84-5,.18-1.15.37-2.31.55-3.46q.18-1,.33-2.1c.16-1.11.31-2.21.47-3.31l.17-1.28c.24-1.86.49-3.73.73-5.59s.44-3.43.65-5.14l.75-6c.08-.67.15-1.34.22-2s.18-1.54.25-2.32q.25-2.75.52-5.5c.16-1.64.33-3.29.49-4.93l.33-3.49c.06-.67.13-1.35.18-2,.13-1.67.26-3.34.41-5q.27-2.85.52-5.68l.3-3.23.18-1.82c.18-1.8.36-3.61.55-5.42l.36-3.57c.06-.57.11-1.14.16-1.72q.26-3,.52-6c.16-1.69.31-3.39.46-5.08l.27-3.19c0-.19,0-.39,0-.59.05-.8.11-1.6.16-2.4.1-1.64.22-3.27.34-4.91l.21-3c0-.35.06-.69.08-1s0-.92.08-1.38c.2-3.45.41-6.9.58-10.35.09-1.73.17-3.46.27-5.19s.21-3.64.32-5.46c.1-1.62.21-3.24.3-4.86l.3-5.68c0-1.16.11-2.31.16-3.47,0-.66.07-1.32.1-2,0-1,.07-2,.11-3.06l.09-2.61c0-1.69.11-3.38.15-5.07,0-1.1.05-2.2.07-3.3,0-.56,0-1.1,0-1.66,0-.26,0-.53,0-.79v-6.07c0-.16,0-.31,0-.46l0-1.53c0-1.24-.06-2.49-.08-3.73,0-.66-.05-1.32-.07-2l-.12-3.44c0-.54-.06-1.08-.09-1.62l-.24-4c0-.52-.08-1.05-.13-1.57-.1-1.15-.2-2.29-.31-3.44l-.06-.73s0-.07,0-.11c0-.27-.07-.54-.1-.81l-.42-3.34c-.1-.85-.22-1.69-.34-2.53l-.34-2.53c0-.14,0-.28-.06-.41-.08-.5-.17-1-.25-1.47l-.6-3.6c0-.15-.07-.3-.1-.45-.1-.5-.21-1-.31-1.49l-.63-3c0-.19-.1-.39-.15-.58-.16-.59-.31-1.18-.47-1.77l-.4-1.48a1.12,1.12,0,0,0-.08-.26c-.09-.28-.19-.56-.29-.84-.18-.53-.36-1.07-.55-1.6-.07-.2-.13-.4-.21-.6l-1.07-2.91c-.25-.67-.52-1.34-.79-2-.18-.48-.38-1-.56-1.43-.11-.27-.24-.54-.35-.8-.24-.52-.47-1-.71-1.55-.12-.27-.25-.53-.37-.79-.26-.52-.51-1.05-.77-1.57-.12-.25-.24-.49-.37-.73l-.86-1.69-.35-.67-1.71-3.14c-.09-.18-.2-.36-.31-.54l-.9-1.55c-.25-.43-.5-.87-.76-1.3-.09-.17-.2-.33-.31-.5l-1.65-2.53-1.66-2.51c-.36-.54-.72-1.09-1.09-1.62l-2-2.82c-.34-.48-.66-1-1-1.43-.76-1.06-1.52-2.13-2.29-3.19l-1.14-1.59-1-1.36-.37-.52c-.55-.81-1.1-1.61-1.64-2.42l-.53-.79c-.42-.63-.84-1.26-1.25-1.89l-.26-.39-.29-.46L99.55,115c-.1-.15-.19-.31-.29-.47L99,114c-.39-.72-.79-1.44-1.19-2.15l-.24-.49L97,110.29c-.17-.35-.35-.71-.53-1.06s-.2-.4-.29-.6c-.6-1.29-1.19-2.58-1.78-3.88l0,.06c-.33-.77-.65-1.54-1-2.31l-.67-1.6-.27-.64a1.07,1.07,0,0,1-.07-.19l-1.15-3.46L91,95.82l-.12-.45c-.09-.36-.19-.71-.29-1.07-.25-.94-.5-1.87-.74-2.8l0-.11c0-.23-.1-.47-.16-.7l-.51-2.28c-.1-.4-.19-.81-.28-1.22a1.43,1.43,0,0,1,0-.22c0-.27-.09-.54-.13-.81-.18-1.13-.37-2.26-.55-3.39v.07c-.16-1.24-.33-2.48-.5-3.71-.07-.58-.15-1.16-.23-1.74s-.1-.9-.16-1.35l-.93-8.12c-.11-.89-.2-1.78-.29-2.67s-.18-1.63-.26-2.45c0-.45-.1-.9-.14-1.35-.15-1.57-.29-3.14-.43-4.71l0-.39c0-.16,0-.32,0-.47,0-1-.07-1.89-.11-2.84,0-.16,0-.32,0-.48v-.51c0-.82,0-1.64,0-2.46V48.43l0-2.51c0-1.08,0-2.16.06-3.24,0-1.42.06-2.84.08-4.27,0-.45,0-.91.06-1.37l.09-2.54c0-.46,0-.91,0-1.37l0-.47c0-.59.08-1.18.13-1.77l.15-2.11c0-.47.09-.93.14-1.4.14-1.44.28-2.88.43-4.32v0a0,0,0,0,1,0,0h0v0h0c.24-1.58.48-3.17.71-4.75,0-.22.07-.44.1-.66s.07-.34.11-.51c.2-1,.41-1.94.62-2.91.1-.51.2-1,.32-1.52l.51-2.24.66-2.87c.08-.33.15-.67.23-1q.63-2.61,1.27-5.2c.28-1.17.59-2.33.89-3.49s.6-2.29.88-3.45.66-2.61,1-3.92L93-9.2Z" transform="translate(63.2 157.91)"/><path class="a" d="M82.33,49h0v0Z" transform="translate(63.2 157.91)"/><path class="a" d="M117.76,387.94a.07.07,0,0,0,0-.05s0,0,0,.05Z" transform="translate(63.2 157.91)"/><path class="a" d="M85.58,18.57l-.51,1.32c-.18.47-.36.95-.55,1.43l-2.23,5.56-.12.32c-.13.35-.26.71-.4,1.07-.41,1.1-.82,2.2-1.22,3.3-.29.76-.57,1.52-.85,2.28a2.81,2.81,0,0,0-.1.31c-.17.54-.35,1.08-.52,1.63l-1.71,5.35a.19.19,0,0,1,0,.08c0,.18-.1.36-.14.54-.14.48-.27,1-.4,1.46-.32,1.17-.63,2.35-1,3.53a2.11,2.11,0,0,0-.09.36c-.07.29-.13.59-.19.88l-.69,3.35-.51,2.45c0,.11,0,.21,0,.32l-.24,1.67-.88,6.15a1.37,1.37,0,0,0,0,.19l-.07.83c-.12,1.33-.23,2.66-.34,4-.09,1-.18,2.06-.26,3.09,0,.17,0,.34,0,.52s0,.4,0,.6q-.17,3.33-.31,6.66a2,2,0,0,0,0,.35c0,.41,0,.82,0,1.22,0,1.21,0,2.42,0,3.64l0,2v.06c0,.16,0,.32,0,.48l.12,2q.19,2.82.37,5.64v.06l.06.44L73,95l.51,4.24.33,2.66c0,.25.07.49.1.74q.6,3.52,1.18,7.06Q76,115,76.9,120.33c.61,3.57,1.19,7.14,1.77,10.71s1.16,7,1.75,10.45c.06.38.12.76.19,1.13l.39,2.12,1.32,7.15c.23,1.23.47,2.45.71,3.67.41,2.06.81,4.13,1.21,6.19.08.41.18.82.27,1.23l.72,3.32c.25,1.1.49,2.2.73,3.31.1.47.19.94.31,1.4.53,2.08,1.07,4.17,1.6,6.24.19.74.37,1.48.56,2.21,0,.09,0,.19.08.28.15.51.29,1,.44,1.51l1.9,6.54c.43,1.48.87,2.94,1.31,4.42l3.18,10.61c.32,1.05.63,2.1,1,3.15.11.38.23.75.34,1.13L98.31,213c.4,1.41.79,2.81,1.19,4.21.58,2,1.17,4,1.75,6.05.31,1.06.61,2.11.91,3.17l.33,1.12,1.8,6.07c.32,1.06.63,2.13.94,3.18.12.38.23.76.34,1.13l1.8,5.9c.31,1,.63,2.06.94,3.09.12.37.22.74.34,1.1q1,3,1.91,5.93c.33,1,.67,2.08,1,3.11.12.37.23.74.36,1.1l2,5.85c.48,1.38,1,2.77,1.42,4.15.72,2.05,1.43,4.11,2.14,6.16q1.81,5.22,3.64,10.43c1.17,3.34,2.31,6.69,3.47,10l.51,1.47c.18.52.34,1,.52,1.55q1.14,3.45,2.3,6.91c.37,1.09.71,2.2,1.06,3.3l2.06,6.47c.1.31.19.63.29.94l.91,3c.57,1.87,1.13,3.74,1.7,5.6,0,.07,0,.14.05.21s.11.39.16.59c.23.85.45,1.7.67,2.55q.72,2.69,1.42,5.36c.18.69.35,1.38.53,2.07.49,1.95,1,3.88,1.47,5.82.19.77.4,1.54.58,2.32.4,1.66.79,3.32,1.19,5,.35,1.5.71,3,1.06,4.49.07.28.13.56.19.84.18.84.35,1.67.53,2.51.36,1.64.71,3.29,1.07,4.93,0,.28.12.56.18.84.1.58.21,1.15.32,1.71q.52,2.69,1,5.38l.33,1.7c.05.28.09.57.14.85.26,1.65.53,3.29.79,4.94.14.84.27,1.67.4,2.51,0,.28.09.57.14.85q.66,4.4,1.33,8.79s0-.05,0-.06c.24,1.83.49,3.66.73,5.5.12.91.24,1.83.37,2.75.07.51.12,1,.18,1.55l.78,6.62c0,.35.07.7.11,1l.36,3.8c.12,1.15.23,2.29.34,3.43,0,.37.07.74.1,1.12q.24,3.39.47,6.78.38,5.33.74,10.64c.09,1.31.18,2.62.26,3.92.13,2,.27,4,.4,6,0,.59.06,1.18.09,1.78.06,1.22.13,2.45.19,3.68l.24,4.38q.16,3.38.35,6.75c0,.44.05.88.07,1.32l.1,2.8q.12,3,.22,5.89c0,.46,0,.92,0,1.38l.09,4.18c0,1.29.06,2.58.08,3.87,0,2.35.05,4.71.08,7.07,0,1.41,0,2.82,0,4.24l0,4.94q0,5.75,0,11.49c0,1.41,0,2.81,0,4.22q0,3.42-.05,6.85,0,.62,0,1.23c0,1.16-.07,2.33-.1,3.5,0,1.54-.09,3.08-.13,4.62-.06,2-.11,4-.17,6.07l0,1.6c0,1.42-.05,2.85-.08,4.27-.06,3.2-.07,6.4-.12,9.6,0,1.2,0,2.4,0,3.6,0,.45,0,.9,0,1.34,0,.13,0,.27,0,.4l-.24,5.83,0,.35c0,.29,0,.59-.07.89-.05.8-.12,1.62-.18,2.43l-.12,1.71c0,.07,0,.13,0,.2l-.13,1.21c-.08.82-.17,1.64-.25,2.45,0,.48-.09,1-.15,1.44-.17,1.36-.33,2.72-.49,4.08h0l-.3,2.22c0,.29-.09.59-.13.89s-.07.42-.1.63l-.42,2.54c0,.09,0,.18-.05.27-.11.47-.2,1-.3,1.42-.16.72-.31,1.44-.46,2.16,0,.14-.06.28-.1.42-.11.52-.23,1.05-.35,1.58s-.31,1.33-.45,2c0,.14-.08.28-.11.42l-.42,1.58c-.17.67-.34,1.34-.52,2l-.11.41c-.16.52-.3,1-.46,1.57-.38,1.32-.76,2.63-1.15,3.95-.19.66-.39,1.32-.58,2s-.41,1.35-.61,2l-.5,1.61-.77,2.47c-.35,1.14-.68,2.27-1.05,3.4l-.83,2.54c-.18.54-.36,1.07-.55,1.61l-.69,2c-.25.72-.48,1.44-.72,2.16l-.48,1.5-.63,2c-.06.2-.11.39-.17.58-.15.48-.29,1-.43,1.46,0,.12-.08.25-.11.37-.14.53-.29,1.06-.43,1.59s-.3,1.2-.45,1.8c0,.18-.09.37-.14.55l0,.17c-.06.3-.13.61-.2.92-.12.58-.25,1.15-.37,1.73s-.27,1.34-.41,2-.27,1.36-.4,2c-.18.91-.33,1.84-.49,2.75a.23.23,0,0,0,0,.2.24.24,0,0,0,.15.11.25.25,0,0,0,.31-.17c.16-.92.32-1.84.49-2.76s.34-1.73.52-2.6l.42-2.1c.08-.36.16-.72.25-1.08s.17-.83.27-1.24c.19-.74.36-1.47.55-2.2.15-.53.29-1.06.43-1.59.07-.26.15-.52.23-.77.21-.71.41-1.42.64-2.12s.52-1.67.79-2.5.59-1.78.88-2.66c.1-.31.21-.61.31-.91.19-.57.38-1.13.58-1.7s.43-1.27.63-1.91c.3-.91.6-1.81.88-2.72l.72-2.35c.28-.88.55-1.76.82-2.63s.53-1.72.79-2.58.46-1.53.68-2.29l1.5-5.12c.17-.6.35-1.2.5-1.81.3-1.16.61-2.31.91-3.47l.12-.53.36-1.58c.16-.71.33-1.41.48-2.12l.66-3.12.12-.6c.11-.68.22-1.36.34-2,0-.33.11-.67.17-1a.59.59,0,0,1,0-.13c0-.3.08-.6.12-.89.07-.57.16-1.14.23-1.71,0-.19.06-.38.08-.57.11-.93.23-1.85.33-2.77l.17-1.38c0-.3.07-.61.1-.91l.36-3.5.08-.8c0-.24,0-.49.05-.73.09-1.17.18-2.34.26-3.5l.09-1.15c0-.26,0-.53,0-.79.05-1.17.1-2.33.14-3.49,0-.47,0-.93.07-1.4,0-.14,0-.27,0-.41l.09-6.2.06-5.43c0-1.65,0-3.3.08-5s.05-3,.09-4.55l.18-6.75c0-1.58.09-3.15.14-4.72,0-1,.06-2,.08-2.94,0-.57,0-1.14,0-1.71,0-2.05,0-4.11,0-6.16v-1.43c0-1.37,0-2.75,0-4.13,0-3.41,0-6.82,0-10.23,0-1.87,0-3.74,0-5.61l0-4.31q0-3.19-.08-6.4c0-.37,0-.74,0-1.12l-.09-4-.06-3.1,0-1c-.09-2.35-.18-4.71-.26-7.06,0-.43,0-.88-.05-1.31l-.12-2.24c-.11-2.17-.23-4.33-.35-6.5-.08-1.63-.17-3.26-.25-4.88l-.18-3.33c0-.44,0-.89-.07-1.33-.24-3.56-.47-7.11-.71-10.66-.26-3.71-.52-7.41-.77-11.12-.13-1.76-.25-3.53-.37-5.3l-.06-.52c0-.45-.09-.89-.13-1.34l-.42-4.35c-.07-.79-.15-1.58-.23-2.37,0-.46-.1-.92-.16-1.38q-.41-3.45-.8-6.9l-.15-1.12-.45-3.36c-.14-1.12-.29-2.24-.44-3.36-.06-.4-.1-.79-.16-1.18l-1-6.33c-.12-.75-.23-1.49-.34-2.23-.09-.57-.18-1.14-.28-1.71l-1-6.6c-.05-.33-.11-.67-.17-1l-.63-3.28c-.34-1.79-.69-3.6-1-5.4,0-.15-.07-.3-.1-.45-.09-.4-.17-.79-.26-1.19l-.87-4.08c-.21-.94-.41-1.89-.61-2.83-.07-.3-.13-.61-.21-.91-.56-2.37-1.13-4.75-1.69-7.12l-.5-2.11-.3-1.2c-.61-2.42-1.22-4.82-1.83-7.23-.1-.4-.2-.81-.31-1.21-.19-.71-.38-1.43-.56-2.14-.6-2.26-1.2-4.51-1.79-6.77-.09-.32-.19-.64-.29-1l-.91-3c-.57-1.86-1.13-3.74-1.7-5.6-.15-.52-.33-1-.49-1.56-.36-1.12-.71-2.24-1.07-3.36l-1-3.19c-.13-.44-.27-.88-.41-1.32l-2-5.87c-.42-1.27-.84-2.55-1.28-3.82q-1.71-5-3.41-9.89c-2.39-6.84-4.79-13.68-7.13-20.53-.73-2.11-1.45-4.23-2.18-6.35-.42-1.22-.8-2.46-1.2-3.68q-1-3.22-2.08-6.45c-.39-1.22-.76-2.45-1.13-3.68-.65-2.14-1.31-4.28-2-6.42-.38-1.25-.75-2.5-1.12-3.76q-1-3.3-2-6.6c-.38-1.25-.74-2.51-1.1-3.76l-1.89-6.58c-.36-1.23-.71-2.47-1.06-3.71l-1.83-6.45c-.36-1.26-.74-2.51-1.12-3.76Q94.6,198.58,93,193.31c-.51-1.72-1-3.44-1.54-5.17-.17-.57-.34-1.16-.5-1.73-.41-1.39-.81-2.79-1.22-4.18-.25-.87-.5-1.75-.76-2.62-.1-.35-.18-.7-.27-1.06-.61-2.35-1.21-4.71-1.81-7.06-.09-.35-.18-.69-.26-1L86.11,168l-1.36-6.24c-.09-.4-.16-.8-.24-1.2-.21-1.09-.42-2.18-.64-3.27s-.45-2.29-.67-3.44c-.11-.55-.22-1.1-.32-1.65q-.54-2.9-1.07-5.78c-.2-1.06-.39-2.11-.58-3.16-.08-.4-.15-.79-.22-1.19-.32-1.91-.63-3.81-1-5.71-.24-1.44-.49-2.88-.73-4.32-.56-3.41-1.11-6.81-1.67-10.22-.07-.38-.13-.76-.2-1.14-.19-1.09-.37-2.19-.56-3.28l-1-5.63c-.26-1.52-.51-3-.76-4.56L74.32,102h0c-.19-1.56-.37-3.13-.57-4.7-.12-1.09-.26-2.19-.39-3.28,0-.26-.06-.52-.1-.79,0-.1,0-.21,0-.31l-.42-6.5c0-.38,0-.76-.07-1.14,0-.11,0-.21,0-.32l0-2.58c0-1,0-2,0-3,0-.4,0-.81,0-1.22a2,2,0,0,1,0-.35q.14-3.12.29-6.24c0-.42,0-.84.06-1.26l.24-2.75c.15-1.82.3-3.65.46-5.46.2-1.46.41-2.91.62-4.36.14-.94.27-1.88.41-2.81l.12-.87.06-.33c.36-1.71.71-3.43,1.07-5.14.09-.47.19-1,.29-1.42,0,0,0-.05,0-.08l.15-.54.39-1.46.75-2.78.21-.75c0-.11.06-.23.1-.35l1.68-5.29c.19-.61.39-1.21.58-1.81,0,0,0-.09,0-.13.11-.27.2-.54.3-.82l2.07-5.56.3-.79c.31-.76.62-1.52.92-2.29.49-1.22,1-2.44,1.46-3.67l1-2.63-.67.35Z" transform="translate(63.2 157.91)"/><path class="a" d="M779-117.28a.28.28,0,0,0-.15.11c-.61.84-1.21,1.66-1.81,2.5l-.15.21c-.21.32-.43.63-.65.95,0,.07-.09.14-.14.21-.13.23-.27.45-.39.66s-.35.57-.51.87-.39.73-.59,1.1l-.09.21c-.17.36-.33.71-.49,1.07s-.29.61-.42.93c-.39.94-.77,1.89-1.15,2.84a.87.87,0,0,0-.07.17l-.41,1.08c-.22.58-.44,1.16-.67,1.75l-.27.76-.63,1.78-.25.72-.69,2.11q-.9,2.75-1.82,5.47L767-89.7c-.31.88-.62,1.77-.9,2.66L765-83.55c-.18.56-.35,1.12-.52,1.68-.71,2.37-1.41,4.75-2.12,7.12q-.78,2.67-1.55,5.34c-.3,1-.59,2-.88,3-.18.59-.34,1.19-.5,1.79l-2,7.13c-.11.4-.2.79-.3,1.19l-1,4.23-.87,3.53c-.09.39-.19.78-.28,1.17l-1.54,7.49c-.11.5-.22,1-.31,1.5l-.5,2.61-.75,4-.27,1.48c0,.22-.09.44-.13.66l-1.17,6.81c-.07.43-.15.87-.22,1.31l-.06.36c-.13.94-.25,1.89-.38,2.84-.17,1.35-.35,2.69-.53,4-.06.44-.12.88-.17,1.31,0,.12,0,.24-.05.37q-.28,3.75-.59,7.52c0,.46-.08.91-.1,1.37l-.12,3.19c-.06,1.35-.11,2.7-.17,4.05,0,.6-.05,1.21-.06,1.82,0,2.37-.09,4.74-.14,7.1,0,.68,0,1.36,0,2v.61c0,.75,0,1.48,0,2.22,0,2.13,0,4.27,0,6.4,0,.18,0,.36,0,.55,0,.47,0,.94,0,1.41,0,1.57.05,3.14.07,4.72,0,1,0,2,0,2.95,0,.4,0,.79.06,1.19q.23,4.17.47,8.34c0,.49.05,1,.09,1.47,0,.8.11,1.61.16,2.41l.53,7.62c.11,1.6.23,3.2.35,4.79.13,1.84.26,3.68.4,5.52l.54,7.08.15,2,.06.61.18,2.17q.29,3.12.55,6.26c0,.2,0,.4.07.6l.17,1.51c.19,1.57.37,3.14.55,4.71l.25,2.11c0,.2,0,.39.07.59.07.5.13,1,.2,1.5.3,2.25.59,4.51.89,6.76.24,1.86.5,3.71.75,5.56l.42,3.13c.08.62.19,1.23.3,1.84.39,2.44.8,4.87,1.19,7.31l.24,1.33.81,4.61.57,3.23c.08.43.17.85.26,1.28.5,2.48,1,5,1.52,7.45.09.45.2.89.3,1.33l.93,3.84.78,3.22c.15.61.33,1.22.5,1.83.61,2.2,1.23,4.4,1.84,6.59.16.58.33,1.14.5,1.71l1.32,4.58c.44,1.5.88,3,1.31,4.52l1.62,5.56,2,6.85.45,1.43,1.38,4.42c.19.58.38,1.17.55,1.75l.84,2.8c.55,1.82,1.09,3.62,1.63,5.44q1.85,6.21,3.71,12.43c0,.13.07.26.11.39.12.45.24.9.37,1.35.34,1.28.69,2.56,1,3.83l.36,1.35c0,.13.08.26.11.39.28,1.21.55,2.42.83,3.63l.78,3.39c0,.13.07.26.09.4.06.35.13.71.19,1.06.24,1.29.48,2.58.71,3.87l.3,1.65c0,.25.1.51.13.76l1.05,6.85c.29,1.91.59,3.81.88,5.72l.72,4.61c.22,1.36.43,2.71.64,4.06.09.55.18,1.09.26,1.64,0,.24.08.48.11.73.37,2.75.75,5.5,1.12,8.25l.87,7.7c0,.23.06.46.08.69,0,.51.09,1,.14,1.52.16,1.76.32,3.52.49,5.28,0,.63.12,1.25.16,1.88l.27,4.62c.07,1.17.13,2.34.2,3.51,0,.11,0,.21,0,.32l0,.83c0,.86.05,1.73.08,2.59,0,1.39.09,2.77.13,4.16,0,.2,0,.4,0,.6,0,.63,0,1.26,0,1.89l0,5.18c0,.36,0,.71,0,1.07,0,.09,0,.19,0,.29l0,.78-.18,5.19c0,.63-.05,1.27-.07,1.9,0,.1,0,.19,0,.29l0,.3c-.28,2.74-.55,5.49-.83,8.23v.05s0,0,0,0l-1,6.25c-.11.73-.23,1.46-.34,2.19,0,.23-.08.46-.12.68l-.42,2.36c-.24,1.34-.48,2.69-.71,4l-.27,1.47c-.44,2.4-.89,4.8-1.33,7.2-.11.62-.24,1.23-.36,1.84-.25,1.27-.51,2.55-.76,3.82-.1.52-.2,1-.31,1.55l-.9,4.23-.42,2c-.23,1-.46,2-.68,3.07s-.46,2-.68,3.06c-.19.86-.39,1.72-.59,2.58l-1.17,5.11q-.69,3-1.36,5.92c-.45,2-.92,4.08-1.37,6.12-.2.86-.38,1.72-.57,2.59l-.72,3.26-.15.73c-.12.57-.23,1.15-.35,1.73l-.78,3.81-.15.72c0,.21-.07.43-.11.64l-.75,4.26c-.16.93-.32,1.86-.49,2.79-.12.68-.22,1.36-.33,2q-.5,3.1-1,6.2c-.2,1.22-.41,2.45-.61,3.67-.12.73-.23,1.46-.34,2.19s-.27,1.75-.41,2.62l-.66,4.08c-.11.64-.23,1.27-.35,1.91-.22,1.23-.45,2.45-.68,3.67-.1.59-.23,1.17-.35,1.76l-.87,4.22c-.12.57-.25,1.13-.38,1.7-.29,1.33-.59,2.67-.89,4-.13.55-.25,1.11-.38,1.66l-1,4.23c-.21.84-.4,1.66-.61,2.5s-.35,1.52-.53,2.28l-.89,3.81c-.14.59-.28,1.2-.41,1.8q-.72,3.27-1.45,6.54c-.12.59-.24,1.18-.35,1.77-.31,1.49-.61,3-.91,4.47-.1.49-.21,1-.29,1.47-.19,1.13-.37,2.27-.56,3.4s-.33,2-.49,3a2.34,2.34,0,0,0,0,.26c-.07.65-.15,1.3-.23,1.95-.14,1.25-.28,2.51-.43,3.76,0,.17,0,.34-.05.51,0,.46-.07.92-.1,1.38-.09,1.28-.18,2.56-.28,3.84l0,.53c0,.64,0,1.28-.07,1.92,0,1.09-.07,2.18-.11,3.27,0,.17,0,.34,0,.51l0,1.67.06,3.32,0,.54.12,2.43c.07,1.24.13,2.49.2,3.73l.27,4.71,0,.41c0,.35,0,.7.08,1,.08,1.09.16,2.18.25,3.27s.2,2.41.3,3.62.22,2.46.31,3.68c.12,1.43.23,2.86.34,4.28l.39,4.56c0,.53.07,1.06.11,1.59l.2,2.8c0,.46,0,.91.08,1.36l.15,2.66c.07,1.22.12,2.45.2,3.68.1,1.49.2,3,.31,4.48.08,1.29.17,2.59.27,3.89s.25,2.84.37,4.26.2,2.55.29,3.82c0,.57.07,1.15.1,1.73l0,.8c0,.34,0,.68,0,1v1c0,.43,0,.86,0,1.29,0,.24,0,.48,0,.73s0,.45,0,.67c0,.57-.1,1.15-.18,1.72V569c-.09.65-.22,1.3-.37,1.94-.13.46-.25.92-.38,1.38s-.32,1-.5,1.55c-.36,1-.71,2-1.07,3h0l-.93,2.13c-.13.28-.25.57-.38.86s-.2.42-.31.63L756.53,583a1.35,1.35,0,0,1-.15.26c-.27.48-.55,1-.82,1.42s-.42.71-.63,1.07-.24.42-.37.62L753,588.78c-.1.16-.2.32-.31.47l-.09.13c-.19.27-.39.53-.59.79l-1.46,2c-.53.67-1.07,1.33-1.6,2l-.65.81c-.16.2-.32.39-.49.58-.65.79-1.31,1.57-2,2.35L744,600c-.39.45-.77.9-1.16,1.34-.6.7-1.21,1.4-1.82,2.09-.46.53-.94,1.05-1.41,1.58s-1.13,1.24-1.7,1.87l-1.35,1.45-1.4,1.48-.9.93-.61.63c-.59.58-1.18,1.18-1.78,1.76l-1.56,1.51-1.08,1c-.3.29-.62.57-.93.86-1.15,1.05-2.36,2-3.55,3a.24.24,0,0,0,0,.35.23.23,0,0,0,.17.08.23.23,0,0,0,.18-.08l2.16-1.81c.6-.51,1.19-1,1.77-1.58l.76-.7,1.07-1c.67-.63,1.32-1.28,2-1.92l1.17-1.16.61-.63c.63-.64,1.25-1.28,1.86-1.94s1.2-1.27,1.79-1.92l1.12-1.22c.34-.37.68-.75,1-1.13s.6-.66.89-1l.72-.83,1.66-1.91,2.31-2.7,2.19-2.6.49-.59,1.08-1.34,1.08-1.35.23-.3,2-2.65c.15-.19.27-.39.41-.6l1.36-2.08c.13-.2.27-.4.39-.61.27-.47.55-.94.83-1.41l.83-1.42.33-.63c.46-.88.91-1.77,1.37-2.66l.06-.13c.13-.29.26-.58.38-.87.3-.68.6-1.36.89-2,.06-.12.1-.24.15-.37.21-.57.41-1.14.62-1.72l.44-1.23c.15-.46.29-.92.44-1.37a21.25,21.25,0,0,0,.59-2.35c.17-.8.24-1.59.33-2.4l0-.36c0-.34,0-.69.07-1V566c0-.35,0-.71,0-1.05v-.75c0-.25,0-.5,0-.75a2,2,0,0,0,0-.25c0-.37,0-.74,0-1.1l-.06-1.12c0-.87-.11-1.74-.17-2.62,0-.5-.08-1-.12-1.49s-.06-.81-.1-1.21l-.27-3-.12-1.57c0-.49-.07-1-.1-1.45-.07-1-.13-1.91-.2-2.86s-.11-1.7-.17-2.55c0-.39,0-.79-.08-1.18l0-.61-.06-1.26c-.07-1.29-.15-2.58-.22-3.87,0-.45,0-.9-.08-1.36l-.2-2.8c0-.53-.08-1.06-.11-1.59s-.09-1.1-.14-1.65l-.33-4-.33-4.14c0-.48-.08-1-.13-1.43l-.27-3.22c-.11-1.22-.2-2.44-.29-3.66l-.18-2.38c0-.42-.06-.85-.08-1.28-.09-1.53-.17-3.06-.26-4.6s-.15-2.9-.23-4.35c0-.49,0-1-.08-1.48V499l0-1.66c0-.86,0-1.72,0-2.58,0-.25,0-.5,0-.75s0-.34,0-.51c0-1.53.11-3.06.16-4.6v-.4l0-.42c.08-1.06.16-2.11.23-3.17l.15-2a1.64,1.64,0,0,1,0-.22l.15-1.3c.18-1.6.37-3.2.55-4.81v.07c.34-2,.67-4,1-6.08l.12-.7c0-.23.09-.46.14-.68.28-1.44.58-2.88.87-4.32.16-.77.31-1.54.47-2.31l.15-.67.36-1.64c.28-1.28.56-2.56.85-3.85.13-.6.26-1.2.41-1.8.5-2.16,1-4.31,1.51-6.47.15-.64.31-1.28.46-1.92l1.09-4.5c.12-.5.24-1,.35-1.52.3-1.3.59-2.61.88-3.92l.35-1.57.11-.47c.26-1.29.53-2.59.8-3.88.11-.53.21-1.06.32-1.59,0-.16.07-.32.1-.48.2-1.11.41-2.22.62-3.33l.3-1.67c0-.18.07-.36.1-.54l.66-4.07c.13-.75.24-1.51.36-2.27s.26-1.73.4-2.59c.32-1.93.65-3.85,1-5.78l1-6.36c0-.21.07-.43.11-.64.09-.52.19-1.05.28-1.58l.78-4.46c.09-.48.17-.95.26-1.43l.72-3.5.62-3.06c0-.15.07-.31.1-.46.17-.74.33-1.48.49-2.21q.55-2.52,1.12-5c.43-1.94.87-3.89,1.31-5.83l2.76-12c.19-.82.37-1.65.55-2.48.26-1.16.51-2.32.77-3.48.12-.54.24-1.09.35-1.63.32-1.48.63-3,1-4.43l.3-1.47c.24-1.23.48-2.45.73-3.68l.46-2.38c0-.23.09-.47.13-.7l.45-2.39c.32-1.73.65-3.47,1-5.2.44-2.49.87-5,1.32-7.46l.06-.37c.06-.44.13-.88.2-1.31l.64-4,.43-2.78,0-.22.15-1.54c.24-2.29.47-4.59.7-6.88,0-.12,0-.25,0-.37,0-.43,0-.87.05-1.3,0-1.56.11-3.11.16-4.67,0-.73.06-1.46.08-2.19,0-.21,0-.42,0-.63,0-.52,0-1,0-1.56l0-4.06c0-.52,0-1,0-1.56,0-.23,0-.47,0-.7-.07-2.33-.15-4.65-.22-7,0-.48,0-1-.06-1.44-.07-1.3-.15-2.61-.22-3.92l-.21-3.58c0-.21,0-.42,0-.63s0-.42-.06-.62l-.69-7.55c0-.45-.1-.9-.15-1.35-.14-1.28-.29-2.55-.44-3.82l-.36-3.21c-.05-.47-.12-.94-.18-1.41-.32-2.33-.63-4.66-.95-7-.06-.47-.14-.94-.21-1.41-.24-1.54-.48-3.07-.73-4.61s-.48-3-.71-4.57c-.31-2-.63-4-.93-6-.36-2.32-.71-4.65-1.07-7-.07-.49-.16-1-.25-1.47-.28-1.5-.55-3-.82-4.5-.09-.46-.17-.92-.25-1.38,0-.13-.05-.27-.08-.4-.23-1-.45-1.95-.67-2.93l-.86-3.72c-.05-.23-.11-.46-.16-.68s-.05-.21-.08-.31c-.08-.27-.15-.54-.22-.81-.55-2-1.09-4-1.64-6-.06-.23-.14-.47-.21-.7-.17-.55-.33-1.11-.5-1.67-.4-1.35-.81-2.69-1.21-4q-1.62-5.44-3.25-10.88l-1-3.23c-.14-.48-.29-1-.44-1.44l-1.2-3.81-.51-1.62c-.07-.25-.16-.5-.23-.74-.65-2.21-1.31-4.42-2-6.62-.53-1.78-1-3.56-1.56-5.34l-3.3-11.41c-.21-.7-.4-1.42-.6-2.13-.37-1.32-.74-2.63-1.1-3.95l-.6-2.13c-.06-.2-.1-.42-.15-.62l-.53-2.21c-.33-1.32-.65-2.66-1-4-.1-.43-.2-.86-.31-1.3a3.59,3.59,0,0,1-.08-.35c-.49-2.39-1-4.77-1.46-7.16-.08-.4-.17-.81-.25-1.22,0-.11,0-.23-.07-.34l-.48-2.75-.75-4.19-.39-2.24-1.14-6.92c-.11-.72-.23-1.44-.35-2.16,0-.2-.06-.4-.08-.59-.1-.72-.2-1.43-.29-2.14-.28-2.06-.55-4.11-.83-6.16,0,0,0,0,0,.06l-.81-6.13c-.12-.88-.23-1.77-.35-2.65,0-.11,0-.23,0-.35l-.21-1.83-.78-6.75c0-.11,0-.23,0-.35,0-.42-.07-.85-.11-1.27-.13-1.57-.27-3.14-.41-4.71-.07-.9-.15-1.8-.23-2.71l-.12-1.53c-.19-2.55-.38-5.09-.58-7.64-.12-1.6-.23-3.21-.35-4.82-.14-1.83-.28-3.66-.4-5.49q-.24-3.49-.49-7c-.06-.95-.13-1.91-.19-2.86,0-.55-.07-1.1-.1-1.65L748.34,35l-.06-1.15c0-.11,0-.21,0-.32,0-1.05,0-2.1,0-3.14l-.09-6.62v-.35c0-.43,0-.86,0-1.29,0-1.61,0-3.21,0-4.82,0-.92,0-1.84,0-2.76l0-1.54.15-7.67c0-.61,0-1.22.06-1.82.07-1.58.13-3.15.19-4.73,0-.93.08-1.86.11-2.79,0-.21,0-.43,0-.64.07-.76.12-1.52.18-2.28.13-1.55.25-3.11.37-4.67,0-.34.06-.68.08-1s.06-.47.09-.71c.35-2.61.69-5.23,1-7.84v.06l1.08-6.28c.12-.74.25-1.47.38-2.2,0-.2.07-.39.11-.59l.27-1.48c.42-2.19.84-4.4,1.25-6.6.09-.5.21-1,.31-1.5.26-1.28.53-2.56.8-3.84l.69-3.35c0-.18.07-.37.11-.55s.09-.36.13-.53l1.74-7.16c.16-.63.31-1.26.47-1.89,0-.21.11-.41.16-.61l.42-1.51L760.32-66c.13-.51.29-1,.44-1.53l1.11-3.79c.43-1.48.87-3,1.3-4.43l1.89-6.35.25-.82.57-1.8.81-2.62c.11-.34.23-.67.35-1l.63-1.88c.23-.64.44-1.29.66-1.93l1.08-3.26.78-2.37.48-1.48.25-.72.63-1.78.27-.76c.39-1,.77-2,1.15-3l.07-.17c.13-.34.27-.67.41-1l.74-1.83s0,0,0,0l.89-2a2,2,0,0,0,.11-.2l.48-.9c.16-.3.33-.58.5-.87.09-.14.18-.3.28-.44a3.87,3.87,0,0,1,.27-.43l.79-1.16.13-.18.68-.94,1-1.37a.26.26,0,0,0-.09-.35.28.28,0,0,0-.13,0Zm10,375.83h0Zm1.38,58.85v0h0v0Z" transform="translate(63.2 157.91)"/><path class="a" d="M787.12-152.72l-1.66,1.39-1.5,1.25-.36.3c-.38.32-.75.66-1.11,1a32.91,32.91,0,0,0-2.46,2.55l-.72.85c-.29.35-.57.7-.85,1.06l-.78,1-1.53,2.08-.56.8c-.53.76-1.06,1.51-1.58,2.27l-.86,1.21c-.12.17-.22.35-.33.52-.67,1.06-1.34,2.13-2,3.18-.11.18-.22.34-.32.52l-.62,1.12c-.7,1.28-1.41,2.56-2.12,3.84-.08.13-.15.27-.22.41l-.48,1c-.61,1.23-1.21,2.45-1.81,3.68L763.92-120l-.14.33-.72,1.68c-1,2.25-1.92,4.51-2.89,6.76a2.85,2.85,0,0,0-.12.31c-.09.21-.17.43-.25.65l-1.62,4.33c-.36.94-.71,1.89-1.06,2.83-.06.14-.09.27-.14.41l-.47,1.45c-.45,1.38-.89,2.75-1.33,4.13-.16.48-.32,1-.47,1.45l-.11.33c0,.09-.05.19-.08.29-.65,2.37-1.29,4.74-1.94,7.11l-.27,1-.09.39c-.31,1.41-.62,2.81-.94,4.21-.25,1.17-.51,2.33-.77,3.48,0,.14-.06.27-.08.4-.06.37-.12.73-.17,1.1l-1.14,7.22a.13.13,0,0,1,0,.06c-.11,1-.22,1.92-.31,2.88-.15,1.44-.24,2.89-.33,4.33s-.12,2.75-.14,4.13,0,2.68,0,4l0,1.34c0,.47,0,.94,0,1.41l.06,1c.09,1.57.19,3.14.28,4.71.08,1.21.15,2.43.22,3.65l.09,1.18.69,8.44c0,.52.08,1,.13,1.56.08.79.15,1.58.23,2.37q.4,4.26.8,8.52c0,.37.08.73.1,1.11l.21,2.84q.31,4.15.62,8.29c0,.17,0,.34,0,.51s0,.34,0,.5l.15,3.21c.14,2.78.26,5.57.4,8.35q.59,12.45,1.15,24.91c0,.37,0,.74,0,1.11,0,1.19.08,2.39.13,3.58l.26,7.34c0,.5,0,1,.06,1.53.06,1.37.12,2.75.19,4.13s.12,2.75.18,4.12c0,.57,0,1.15.08,1.72.23,3.63.47,7.27.7,10.91,0,.34.06.68.09,1,.09,1,.19,2,.29,3.07.2,2.24.41,4.49.62,6.73l.09.83c.11.93.22,1.85.32,2.78.26,2.28.52,4.55.79,6.83.11,1,.23,2,.35,2.92.31,2.56.63,5.13.94,7.68l1.17,9.47c.19,1.51.38,3,.56,4.53l.18,1.36.51,3.94c.27,2.09.54,4.19.82,6.28.09.75.2,1.5.31,2.25l1.62,11.49v0l1,7.18.63,4.73.24,1.79q.94,6.84,1.88,13.68s0,0,0-.07l1.68,13.8c.14,1.15.26,2.31.39,3.47l1,9.13c.13,1.16.26,2.32.37,3.48.28,2.77.55,5.55.82,8.32l.36,3.55c0,.41.08.82.12,1.22q.27,3.51.55,7l.49,6.27c0,.44.06.88.09,1.31l.3,4.49c.15,2.34.31,4.67.46,7,.12,1.76.25,3.53.37,5.29.16,2.35.33,4.71.49,7.06,0,.37.06.74.1,1.11.13,1.45.26,2.9.4,4.35.2,2.22.41,4.45.61,6.67,0,.49.11,1,.16,1.46.18,1.58.35,3.16.53,4.75.15,1.33.29,2.66.44,4,.06.55.11,1.09.18,1.64.34,2.62.69,5.24,1,7.86.12,1,.25,1.93.37,2.89l.18,1.23,1.38,9.1c.22,1.47.44,2.94.65,4.41l1.17,8.13c.24,1.64.45,3.28.67,4.91.33,2.44.66,4.87,1,7.31v0c.26,2,.51,4,.77,6,.18,1.39.36,2.77.53,4.16l.18,1.37c0,.19.05.38.07.58l.72,6.54.42,3.83c.06.52.13,1,.17,1.57l.54,7.4.22,3c.05.58.07,1.16.1,1.75.16,2.67.31,5.33.46,8,0,.42,0,.85.07,1.29l.15,4.08c0,1.35.09,2.7.14,4,0,.47,0,.94,0,1.41,0,2.64.11,5.28.16,7.91,0,.5,0,1,0,1.49l0,4.05c0,1.84,0,3.69,0,5.53,0,1.39,0,2.77,0,4.16V393c0,2.47,0,4.94,0,7.41,0,.14,0,.28,0,.42,0,.49,0,1-.05,1.46l-.15,4.15c0,.48,0,1,0,1.46,0,.14,0,.28,0,.42l-.27,3.82c-.08,1.19-.16,2.37-.25,3.57l0,.42c0,.39-.09.77-.13,1.17-.26,2.23-.51,4.47-.77,6.71-.36,2.47-.71,4.94-1.07,7.41,0,.22-.07.44-.1.66s0,.22-.05.32c0,.27-.1.55-.14.83l-.81,4.67c-.1.56-.19,1.11-.28,1.67,0,.25-.09.5-.14.75-.25,1.21-.51,2.42-.76,3.64-.29,1.37-.58,2.75-.86,4.13l-.15.65-.52,2.16c-.37,1.55-.74,3.11-1.12,4.66-.06.24-.12.49-.17.73l-.09.33-.24.86c-.43,1.56-.85,3.12-1.28,4.67-.15.57-.31,1.13-.46,1.69-.07.27-.17.53-.26.79q-.74,2.26-1.48,4.51c-.18.57-.37,1.14-.56,1.71-.08.26-.16.52-.26.78q-1.4,3.58-2.78,7.17s0,0,0-.06l0,.09,0,.06q-1,2.42-2,4.82l-.59,1.4a1.6,1.6,0,0,0-.1.23l-.18.41-1.6,3.59-.87,2c-.38.87-.78,1.74-1.18,2.61s-.78,1.74-1.18,2.61c-.14.32-.29.64-.45.95l-.89,1.91c-.22.48-.45,1-.67,1.43l-.3.61-1.61,3.21-2.36,4.66-2.66,5.24-.51,1-.06.13-.39.85c-.52,1.15-1,2.29-1.57,3.44-.09.19-.17.38-.25.57l-.77,1.77-1.25,2.9c-.07.16-.13.32-.2.47-.22.56-.45,1.12-.68,1.68l-1.38,3.35c-.19.47-.37.94-.56,1.4-.48,1.23-1,2.45-1.45,3.67-.7,1.78-1.41,3.56-2.11,5.35-.23.59-.47,1.18-.71,1.77l-1.5,3.68q-1,2.45-2,4.89l0-.06c-.52,1.14-1,2.28-1.57,3.42-.16.35-.32.71-.49,1l-1,2-3.55,7.38c-.38.79-.77,1.57-1.16,2.35L732.44,570l-.45.91-2.1,4.44c-.1.21-.2.41-.28.61-.29.68-.58,1.36-.86,2l-.81,1.92c-.15.35-.3.69-.43,1l-1.67,4.5a2,2,0,0,0-.08.26l-.26.84-.78,2.55c-.08.27-.17.56-.26.84a2.68,2.68,0,0,0-.07.27c-.17.76-.35,1.52-.52,2.28-.13.53-.25,1.06-.37,1.6,0,.1,0,.2-.06.3-.05.36-.11.71-.17,1.06-.13.83-.26,1.65-.4,2.47s-.21,1.76-.29,2.64a41.86,41.86,0,0,0-.13,4.34l0,.89.06,1.38c0,.42,0,.84.08,1.26s.07.71.11,1.07c.07.53.16,1.07.28,1.59a12.32,12.32,0,0,0,.84,2.39c0,.07,0,.12.12.15a.26.26,0,0,0,.19,0,.26.26,0,0,0,.15-.12.21.21,0,0,0,0-.19,12.32,12.32,0,0,1-.84-2.39c-.12-.53-.21-1.06-.28-1.6v.07l-.1-1c0-.42-.07-.84-.08-1.26,0-.67,0-1.34-.08-2s0-1.57,0-2.35,0-1.5.12-2.25.15-1.59.26-2.39a.11.11,0,0,0,0,.05c.18-1.08.35-2.17.52-3.26,0-.25.08-.5.14-.74l.36-1.6c.14-.63.29-1.27.43-1.9.05-.22.1-.44.16-.65.35-1.13.7-2.26,1-3.39l.3-1,0-.13c.12-.3.23-.6.33-.89l1.34-3.6c.07-.2.15-.38.23-.57.24-.58.49-1.15.72-1.72l1.2-2.82,1.62-3.44.66-1.39c.14-.3.3-.6.45-.9l1.92-3.91c.42-.85.83-1.7,1.24-2.56l3.3-6.86c.14-.29.29-.59.43-.89l.21-.45.5-1.08c.36-.79.72-1.58,1.09-2.37.1-.22.2-.43.29-.65.92-2.23,1.84-4.47,2.75-6.7.35-.85.7-1.7,1-2.55.56-1.4,1.11-2.8,1.66-4.2q1.25-3.13,2.5-6.29c.29-.74.59-1.48.89-2.22l1.68-4.08s0,0,0,0l1.25-2.91.77-1.77c.08-.19.16-.38.25-.57.52-1.14,1-2.29,1.57-3.44l.45-1c.08-.17.17-.33.25-.49.19-.39.39-.77.58-1.15,1.81-3.58,3.64-7.16,5.44-10.75.29-.57.58-1.16.87-1.74q.16-.3.3-.6c.52-1.12,1-2.23,1.57-3.34l.81-1.77,1.82-4c.83-1.83,1.64-3.67,2.45-5.5l.39-.88,0-.07.1-.24c.56-1.32,1.12-2.64,1.67-4,.24-.55.47-1.1.7-1.65,0-.12.1-.24.16-.36a.77.77,0,0,0,.1-.25l.06-.16,1.11-2.86,1.41-3.64.26-.67c0-.11.08-.22.11-.33.09-.28.19-.57.29-.86q1.05-3.21,2.11-6.43s0-.06,0-.08c.06-.21.12-.42.17-.62.16-.58.31-1.15.47-1.72.41-1.5.82-3,1.24-4.51.06-.24.13-.48.19-.71s.12-.48.17-.73c.32-1.31.63-2.63,1-3.95l.75-3.12.09-.4.42-2c.29-1.37.58-2.75.86-4.13l.3-1.39c0-.13,0-.26.08-.39q.63-3.71,1.27-7.4c0-.22.07-.45.11-.67s.07-.45.1-.67l.54-3.73c.17-1.13.33-2.25.49-3.38.08-.54.14-1.09.2-1.63.25-2.26.51-4.51.77-6.77V416l.05-.63.12-1.75.33-4.61c0-.25,0-.48.05-.73s0-.47,0-.71c0-1.29.09-2.58.14-3.88,0-1,.07-2,.11-3.06v-.42l0-2.14c0-1.38,0-2.76,0-4.13,0-.52,0-1,0-1.56l0-7.45c0-.6,0-1.21,0-1.81,0-1.39,0-2.78,0-4.17l0-2.36c0-.23,0-.47,0-.71,0-.81,0-1.63,0-2.45l-.09-4.21c0-.49,0-1,0-1.49l-.29-8.12c0-.45,0-.9-.06-1.35l-.18-3.14q-.19-3.56-.4-7.09c0-.32,0-.64-.07-1-.06-.79-.11-1.56-.17-2.34q-.23-3.1-.46-6.21c0-.46-.06-.92-.1-1.38s-.06-.62-.1-.93l-.63-5.74-.54-4.91c0-.16,0-.31-.06-.47-.09-.75-.19-1.5-.28-2.25q-.42-3.23-.83-6.47c-.14-1.06-.27-2.13-.41-3.19l-1.26-9.33c-.12-.88-.23-1.76-.36-2.64-.23-1.62-.47-3.25-.7-4.87-.38-2.65-.75-5.3-1.16-7.94-.5-3.33-1-6.65-1.51-10v0c-.26-2-.51-4-.78-6-.16-1.3-.33-2.59-.5-3.89-.07-.54-.15-1.07-.21-1.61l-.81-7.37c-.12-1.13-.25-2.25-.37-3.38,0-.48-.1-1-.14-1.43-.25-2.66-.49-5.32-.74-8-.09-1-.17-1.92-.26-2.87,0-.51-.08-1-.11-1.52q-.43-6.16-.86-12.32l-.53-8.14c-.1-1.46-.19-2.92-.31-4.37l-.6-7.75c-.1-1.21-.2-2.43-.29-3.65,0-.46-.07-.94-.12-1.41q-.67-6.77-1.34-13.54c0-.4-.09-.8-.13-1.21l-.39-3.54c-.31-2.91-.63-5.81-.94-8.72l-.15-1.34c-.16-1.27-.31-2.54-.46-3.81q-.63-5.06-1.24-10.12c0-.42-.1-.84-.16-1.25-.21-1.55-.43-3.09-.64-4.63l-1.14-8.29v.06q-.91-6.82-1.82-13.65c-.08-.58-.17-1.15-.25-1.73-.21-1.52-.43-3-.64-4.55l-1-6.94a.13.13,0,0,1,0,.06l-.78-6.05-.54-4.16c-.09-.65-.18-1.3-.25-2q-.76-6.12-1.52-12.23-.45-3.7-.91-7.41c-.2-1.63-.4-3.26-.59-4.9q-.48-4.08-.94-8.14l-.24-2c0-.18,0-.37,0-.56-.06-.69-.13-1.38-.19-2.07l-.72-7.83-.06-.56c0-.17,0-.35,0-.52-.09-1.33-.17-2.66-.26-4L755,52.49c0-.51,0-1-.07-1.54-.07-1.63-.15-3.26-.22-4.88,0-1.29-.11-2.58-.17-3.87,0-.4,0-.81-.05-1.21-.09-2.62-.19-5.24-.28-7.87,0-1.42-.09-2.84-.15-4.26l-.39-8.38-.84-18.15c-.12-2.38-.22-4.75-.34-7.12l-.12-2.54c0-.24,0-.49,0-.73q-.42-5.7-.85-11.41l-.06-.75-.24-2.55-.66-6.91c-.06-.59-.11-1.19-.17-1.79,0-.35-.06-.7-.08-1.05l-.57-6.8c-.09-1.11-.19-2.22-.26-3.33l-.39-6.58c-.05-.85-.11-1.69-.16-2.54,0-.09,0-.18,0-.28l0-1.34c0-.89,0-1.79,0-2.68s0-1.79,0-2.68c0-1.38.07-2.75.14-4.13,0-1,.12-1.92.2-2.88.11-1.43.27-2.85.43-4.27l.84-5.29c.14-.92.29-1.85.43-2.78,0-.13,0-.26.07-.4.09-.36.16-.72.25-1.08q.7-3.24,1.43-6.48c0-.2.09-.4.13-.6s.06-.25.1-.37c.3-1.08.59-2.17.88-3.25.45-1.64.91-3.29,1.35-4.94,0-.11.07-.22.11-.33l.47-1.45c.44-1.38.89-2.75,1.33-4.12.2-.6.39-1.19.58-1.79l0-.08c.07-.19.14-.37.21-.57l.6-1.6q1.05-2.79,2.09-5.58,1.86-4.35,3.71-8.69l.1-.25.15-.28,1.21-2.47,2.32-4.72c.07-.11.13-.23.19-.34.17-.29.33-.59.49-.88l1.63-3c.23-.4.45-.81.67-1.21l.27-.42c.34-.53.67-1.06,1-1.6l1.2-1.89.14-.22.86-1.21,1.88-2.68c.82-1.17,1.67-2.31,2.54-3.45h0l0,0v0l.78-1c.48-.58,1-1.14,1.47-1.68s1.12-1.17,1.71-1.73c.36-.35.73-.68,1.12-1l1.36-1.15,2.15-1.78a.25.25,0,0,0,0-.36.28.28,0,0,0-.17-.07.27.27,0,0,0-.18.07ZM760.53-110.8l0,.06,0-.06Zm-8.16,636.22v0Zm31.57-212.15v0Zm-4.51-34.89a.06.06,0,0,0,0,0v0ZM778.86-144h0l0,0,0,0Z" transform="translate(63.2 157.91)"/><path class="a" d="M782.8-157.9a3.67,3.67,0,0,0-.94.58l-.05,0a9,9,0,0,0-.62.9c-.17.34-.32.68-.47,1a15.91,15.91,0,0,0-.72,2l-.31,1.05c-.21.77-.41,1.55-.59,2.33l-.27,1.18c-.1.42-.19.85-.28,1.28-.22,1.14-.45,2.28-.68,3.43-.18.93-.37,1.87-.56,2.8a.28.28,0,0,1,0,.09c0,.23-.07.45-.1.67-.14.84-.26,1.68-.4,2.52q-.28,1.85-.57,3.66l-.06.43-.09.73c-.27,2.43-.56,4.86-.83,7.28a.19.19,0,0,0,0,.08c0,.19,0,.38,0,.57,0,.55-.07,1.09-.1,1.63-.1,1.41-.19,2.83-.29,4.24l-.15,2.28c0,.21,0,.43,0,.65,0,.76,0,1.52-.08,2.28,0,1.38-.1,2.77-.14,4.15,0,.58-.06,1.15-.06,1.73q-.08,3.84-.13,7.68c0,.47,0,.94,0,1.41v3.29c0,1.39,0,2.77,0,4.16,0,.64,0,1.27,0,1.9l.23,7.58c0,.57,0,1.14.06,1.7l.15,3.39c.09,2.13.19,4.26.28,6.38,0,.71.06,1.42.09,2.14.06,1.65.13,3.3.19,5q.24,6.09.51,12.18c0,.43,0,.87,0,1.3l.12,3.92c0,1.31.07,2.61.11,3.92,0,.53,0,1.06,0,1.59,0,2.53.07,5.07.11,7.6,0,.67,0,1.34,0,2,0,.93,0,1.87,0,2.81,0,2.36,0,4.73,0,7.09,0,2.11,0,4.21,0,6.32,0,1.54,0,3.08,0,4.62,0,2.73.05,5.47.07,8.2V-.9c0,.12,0,.23,0,.34l.12,2.77.3,7.26c0,.19,0,.38.05.57,0,.49.09,1,.13,1.47l.36,4.19.3,3.47c0,.19,0,.38,0,.57l0,.28.09.76q.47,4,.92,7.93c0,.44.1.88.16,1.33l.54,4,1.77,13.31.33,2.58c0,.11,0,.22,0,.33l.13,1.2.9,8.22c0,.38.08.76.11,1.14.11,1.16.22,2.32.32,3.48l.57,6.31.63,7.14.24,2.75c0,.11,0,.23,0,.34l.19,1.83q.38,3.67.76,7.35c0,.44.09.87.14,1.31.18,1.56.36,3.13.53,4.69l.42,3.63c0,.32.07.64.11.95.39,2.7.79,5.4,1.18,8.09.07.54.14,1.09.23,1.63.15.88.29,1.77.44,2.66l1.14,7c0,.2.08.41.12.61.1.52.21,1,.31,1.55l.84,4.19.54,2.74.09.37.48,1.91c.5,2,1,4,1.51,6,.08.33.17.66.26,1,.36,1.27.72,2.54,1.07,3.82l.87,3.09c.06.23.13.45.19.68s.13.43.2.65l2,6.59c.36,1.19.74,2.37,1.12,3.55l1,3.32.54,1.71c.68,2.08,1.35,4.16,2,6.24l.54,1.67c.07.2.13.41.19.61.16.51.31,1,.47,1.54l1.8,5.85c.09.31.18.61.26.92.35,1.23.7,2.45,1,3.67.31,1.07.61,2.15.91,3.22.14.46.27.93.39,1.39l1.68,6.75.41,1.64.06.27.24,1.27q.66,3.45,1.33,6.88c0,.3.11.6.16.89.17,1.1.35,2.2.52,3.3.31,1.92.61,3.85.92,5.77l.9,7.79.15,1.33,0,.29c0,.09,0,.19,0,.28.1,1.54.21,3.09.3,4.63l.28,4.32c0,.22,0,.44,0,.66,0,.5,0,1,0,1.47.07,2.78.14,5.55.2,8.33,0,.2,0,.4,0,.6,0,.74,0,1.47,0,2.21,0,1.86-.07,3.73-.11,5.6l0,1.27c0,.19,0,.38,0,.56l-.29,4.71c-.1,1.46-.19,2.92-.28,4.38,0,.23,0,.46-.05.68-.06.48-.11,1-.17,1.45-.33,2.72-.67,5.43-1,8.14h0c-.32,2.08-.65,4.17-1,6.25l-.48,3.13c-.09.63-.22,1.25-.34,1.87q-.69,3.74-1.4,7.46c-.08.44-.17.88-.26,1.32l-.94,4.52q-.48,2.28-.93,4.56c-.51,2.55-1,5.11-1.52,7.66-.12.58-.22,1.16-.32,1.74l-.78,4.2c-.18,1-.35,1.93-.53,2.89l-.06.36c-.1.62-.21,1.25-.31,1.87L803.78,327l0,.22c0,.34-.09.69-.14,1L803,333l-.39,2.88c0,.13,0,.25,0,.38l-.15,1.33-.78,7c0,.23,0,.47-.07.7-.06.58-.11,1.15-.17,1.73l-.42,4.28q-.27,2.76-.52,5.52-.6,6.27-1.16,12.55l-.09.81-.27,2.49c-.17,1.55-.33,3.1-.5,4.65-.37,2.22-.75,4.44-1.12,6.66-.06.39-.13.77-.19,1.15,0,.13-.06.25-.09.38-.25,1.08-.5,2.16-.76,3.24l-.9,3.87c-.08.33-.16.66-.23,1,0,.12-.07.24-.11.37l-2.16,7.13c-.14.46-.27.92-.43,1.37-.37,1.12-.75,2.23-1.13,3.34s-.83,2.46-1.25,3.68l-.22.66c-.07.21-.16.41-.23.61l-2.58,7c-.14.39-.29.79-.44,1.18L785,422.93c-.58,1.53-1.17,3.05-1.74,4.58l-2.67,7.18q-.9,2.46-1.82,4.9l-1.35,3.65c-.2.53-.4,1.07-.61,1.6l-2.73,7c-.16.41-.33.82-.49,1.22-.5,1.23-1,2.45-1.51,3.68-.65,1.58-1.29,3.17-2,4.74q-1.42,3.39-2.83,6.77l0-.06-2.6,6.12L764,476l-1.18,2.85c-.52,1.26-1.05,2.52-1.57,3.79-.19.46-.39.92-.57,1.38l-2.9,7.32c-.19.47-.36.94-.54,1.42l-1.45,3.91-1.07,2.86c0,.13-.09.26-.13.39l-.69,2c-.46,1.36-.93,2.71-1.39,4.07-.2.59-.41,1.17-.61,1.76-.81,2.44-1.63,4.87-2.44,7.31-.15.44-.29.88-.43,1.33l-1.17,3.71-1,3.36c-.23.73-.44,1.46-.65,2.19-.41,1.37-.81,2.74-1.22,4.11l-.48,1.64-1.83,6.41c-.61,2.14-1.23,4.28-1.84,6.42-.21.73-.4,1.46-.6,2.19-.38,1.38-.76,2.75-1.13,4.13-.2.73-.38,1.46-.57,2.19l-1,3.82c-.16.59-.3,1.2-.44,1.8-.36,1.47-.71,2.93-1.06,4.4,0,.14-.07.27-.1.4s-.06.28-.08.42c-.17.82-.33,1.62-.49,2.44l-.5,2.43c0,.15-.06.29-.08.43s0,.08,0,.13l-.12.85c-.21,1.45-.43,2.91-.64,4.37a1.23,1.23,0,0,0,0,.19c0,.28-.05.55-.08.83l-.3,3.31c0,.27-.05.55-.08.83,0,.44-.07.87-.09,1.31q-.09,1.2-.12,2.4t0,2.58c0,.93.08,1.85.16,2.77q.1,1.13.27,2.25c0,.39.11.79.18,1.18l.2,1.28a12.57,12.57,0,0,0,.63,2.39c.16.38.33.76.5,1.14a9.54,9.54,0,0,0,1.36,2,4.8,4.8,0,0,0,1,1,17,17,0,0,0,2.06,1.51c.42.26.85.52,1.29.76l1.11.63a4,4,0,0,0,.58.31l.62.32c.44.23.89.43,1.35.62a.25.25,0,0,0,.19,0,.21.21,0,0,0,.15-.11.32.32,0,0,0,0-.19.23.23,0,0,0-.12-.15c-.46-.19-.91-.39-1.35-.62l-.62-.32a6.45,6.45,0,0,1-.58-.31l-1.11-.63-.25-.14a22.56,22.56,0,0,1-2-1.3l0,0a12.51,12.51,0,0,1-1.94-1.69l-.7-.92a10.2,10.2,0,0,1-1.09-2.13l0,.06a13.36,13.36,0,0,1-.63-2.39c-.13-.8-.25-1.6-.37-2.4v.07q-.16-1.12-.27-2.25c0-.46-.06-.92-.1-1.38-.05-.93-.08-1.85-.08-2.78s0-1.59.07-2.39l.07-1.2c0-.44.05-.87.09-1.31.15-1.69.31-3.37.47-5.06.14-1,.29-2,.44-3,.08-.61.17-1.22.26-1.84,0-.2.05-.39.09-.58.24-1.15.47-2.3.7-3.46.12-.57.23-1.15.35-1.72,0-.15.06-.29.08-.43s.07-.26.1-.39l.9-3.76.4-1.65.12-.5.89-3.41.5-1.93c.08-.32.16-.64.25-1l1.7-6.23c.07-.26.15-.52.23-.78.17-.61.34-1.21.52-1.82.37-1.31.75-2.61,1.12-3.92l1.71-6,.45-1.54c.46-1.54.91-3.08,1.37-4.63l.45-1.53.13-.43c.3-1,.61-1.92.91-2.89l1.23-3.94.33-1.05c.08-.25.17-.5.25-.75l2.37-7.08c.16-.48.33-1,.49-1.43l1.59-4.63c.26-.76.53-1.53.79-2.3.07-.22.16-.44.24-.65.2-.54.41-1.08.6-1.63l1.5-4c.25-.66.48-1.32.74-2l2.76-7c.17-.43.34-.86.52-1.29l1.77-4.23,1.18-2.84,0,.05,2.61-6.11.71-1.67,1.21-2.91,1.62-3.87c.2-.47.39-.94.58-1.4l3-7.37c.17-.42.34-.85.5-1.27.47-1.22,1-2.42,1.42-3.63s.87-2.24,1.31-3.36l.62-1.65q2.42-6.54,4.85-13.07l1-2.76c.19-.51.39-1,.59-1.54.89-2.35,1.79-4.69,2.69-7,.21-.54.4-1.08.6-1.61l1.44-3.9,1-2.68c.05-.12.09-.25.13-.38.22-.66.45-1.32.67-2,.46-1.35.91-2.7,1.37-4,.16-.46.31-.91.47-1.36l.12-.39,2.22-7.34.31-1,.09-.36c.25-1.08.51-2.16.76-3.24.3-1.29.6-2.58.91-3.87.07-.33.15-.66.23-1l0-.16c0-.22.07-.43.11-.64.26-1.57.52-3.13.79-4.68.09-.6.2-1.19.29-1.78,0-.21.07-.43.11-.64l0-.16.84-7.83c0-.14,0-.27,0-.4l.18-2c.15-1.56.29-3.12.43-4.68l.66-7q.28-3.11.6-6.21l.42-4.29c.08-.86.18-1.71.28-2.56.17-1.59.35-3.18.53-4.76.06-.52.11-1,.17-1.55,0-.25.06-.49.1-.73.36-2.72.73-5.44,1.09-8.17v0c.34-2.09.69-4.18,1-6.26.15-.91.31-1.81.45-2.72,0-.13,0-.25.07-.38.13-.66.25-1.32.37-2l1.2-6.55.13-.65.33-1.64c.32-1.63.65-3.27,1-4.89.11-.59.22-1.17.34-1.75.19-.9.37-1.79.56-2.69.28-1.37.57-2.73.85-4.1l.32-1.52c0-.23.09-.45.14-.68l1.32-7.07c.14-.73.27-1.47.42-2.21,0-.19,0-.39.09-.58l.32-2.14c.35-2.28.71-4.57,1.06-6.86.06-.38.1-.76.14-1.15.19-1.52.37-3.05.56-4.57.14-1.18.29-2.37.43-3.55,0-.2,0-.39.07-.59a.17.17,0,0,0,0-.07l0-.54q.27-4.15.52-8.33c0-.44.07-.87.07-1.32,0-1.07.05-2.15.07-3.23,0-1.43,0-2.87.08-4.3l0-1.55c0-.22,0-.45,0-.68-.06-2.33-.11-4.67-.17-7,0-.9,0-1.8-.07-2.71,0-.11,0-.23,0-.34,0-.62-.07-1.23-.11-1.85-.16-2.47-.33-4.95-.49-7.42,0-.12,0-.24,0-.35l-.12-1c-.18-1.59-.37-3.18-.55-4.77l-.39-3.33c0-.12,0-.24,0-.36s-.07-.41-.1-.62l-1.29-8.11c0-.21-.06-.42-.1-.63s-.07-.4-.11-.6l-.69-3.56c-.24-1.28-.49-2.56-.74-3.83,0-.33-.12-.65-.18-1s-.12-.47-.18-.71c-.61-2.47-1.23-4.93-1.84-7.4-.06-.21-.11-.43-.17-.64s-.12-.43-.18-.64c-.41-1.46-.83-2.92-1.24-4.39l-.93-3.29c-.13-.45-.27-.9-.41-1.34l-2.19-7.17c-.18-.58-.38-1.16-.57-1.74-.43-1.35-.87-2.69-1.31-4-.25-.76-.5-1.52-.74-2.28l-.92-2.9c-.41-1.28-.81-2.57-1.22-3.85-.15-.47-.3-.93-.44-1.4L796.49,146c-.14-.49-.28-1-.41-1.46l-1.14-4.06c-.27-1-.55-2-.83-3,0-.13-.07-.25-.1-.38l-.48-1.91q-.64-2.61-1.31-5.22L792,129a2.74,2.74,0,0,1-.05-.28c-.09-.43-.18-.86-.26-1.29l-1.21-6-.3-1.5a.68.68,0,0,1,0-.14c-.05-.32-.1-.63-.16-.94l-1-6c-.12-.72-.23-1.43-.35-2.15,0-.29-.09-.58-.14-.86-.46-3.2-.93-6.4-1.39-9.6v0h0c-.24-2.14-.49-4.27-.73-6.4L786,90.54c-.07-.6-.13-1.2-.19-1.8-.26-2.53-.53-5.07-.79-7.61,0-.4-.08-.8-.11-1.2-.13-1.47-.26-2.94-.4-4.41q-.59-6.63-1.18-13.26c-.07-.68-.13-1.36-.19-2l-.06-.57c-.05-.49-.1-1-.16-1.46l-.87-8c0-.41-.1-.82-.15-1.23-.17-1.26-.33-2.51-.5-3.77-.26-1.91-.51-3.83-.76-5.74l-1-7.57c-.09-.72-.19-1.44-.29-2.17,0-.2-.05-.4-.07-.6-.08-.74-.17-1.48-.26-2.22-.27-2.37-.55-4.75-.82-7.12,0-.11,0-.22,0-.33l-.11-1.21-.41-4.76-.3-3.47c0-.19,0-.38-.05-.57V9.4c0-.18,0-.36,0-.54L776.91.41c0-.43,0-.87,0-1.31,0-1,0-2,0-3.06q0-3.45-.07-6.91v-6.24c0-1.7,0-3.4,0-5.1l-.06-7.89c0-1.69,0-3.37-.07-5,0-2.06-.05-4.11-.09-6.17,0-.2,0-.4,0-.6,0-.52,0-1,0-1.54l-.14-5c0-.91-.06-1.81-.08-2.72,0-.52,0-1.05-.06-1.58q-.18-3.94-.34-7.89c-.08-1.73-.13-3.47-.2-5.2s-.14-3.69-.22-5.53c-.12-2.57-.23-5.14-.35-7.71,0-.54-.06-1.08-.07-1.61,0-1.19-.07-2.38-.11-3.57,0-1.41-.09-2.82-.13-4.24,0-.44,0-.89,0-1.33,0-.12,0-.25,0-.37,0-2.56,0-5.11,0-7.67v-1.52c0-.4,0-.8,0-1.2q0-3,.1-6.09l0-1.59c0-.39,0-.79,0-1.18.07-2.18.15-4.35.22-6.53,0-.37,0-.73,0-1.1,0-.1,0-.2,0-.3l.09-1.36c.15-2.16.29-4.33.43-6.49,0-.25,0-.49.06-.74l.28-2.45.63-5.47v.06l.63-4,.39-2.53.1-.66c0-.17.07-.34.1-.5.36-1.84.73-3.69,1.09-5.53.19-.92.4-1.84.61-2.76s.38-1.56.6-2.33c.09-.35.2-.7.3-1a16.13,16.13,0,0,1,.71-2v0a6.34,6.34,0,0,1,1-1.75l.79-.49.71,0a11.21,11.21,0,0,1,2.12.7l-.06,0c.56.24,1.12.48,1.67.74l2.53,1.18a.34.34,0,0,0,.2,0,.26.26,0,0,0,.14-.11.25.25,0,0,0-.09-.35l-2.72-1.26c-.41-.2-.83-.37-1.25-.55s-.9-.36-1.47-.58a4.59,4.59,0,0,0-1.84-.32Zm31,371.44v0Zm-9.53,113.62v0Zm-17.15-227v0Zm-5.91-255.36v0Z" transform="translate(63.2 157.91)"/><path class="a" d="M96.37-4.34c-.3.64-.6,1.28-.89,1.92-.42.87-.82,1.74-1.23,2.61L94,.82c-.1.21-.21.42-.31.62-.25.48-.49,1-.73,1.44-.45.85-.91,1.7-1.38,2.54S90.46,7.25,89.9,8.14q-1.68,2.65-3.59,5.15c-.76,1-1.55,2-2.36,2.91l-1.22,1.44L82.4,18c-.74.8-1.48,1.59-2.22,2.4S78.71,22,78,22.8a3.19,3.19,0,0,1-.26.26l-1,.93-2.85,2.65-.83.78a4.38,4.38,0,0,1-.34.29l-5,4,0,0-5,3.56-.37.27-.11.07-.75.47-3.26,2L56.81,39l-.37.23-.13.08L54,40.57q-2.27,1.26-4.54,2.51L44,46l-.58.32-1.54.86-3.33,1.86-.67.37-.58.34L34.07,51.7,31.84,53l-.52.33-1.52.95c-1.49.93-3,1.86-4.47,2.81l-3.24,2.06-.81.51c-.19.12-.37.26-.55.39L17.6,62.2l-1.05.71c-.15.1-.28.21-.42.31-1,.72-1.94,1.44-2.92,2.15-.5.38-1,.74-1.51,1.13-3.4,2.69-6.8,5.4-10.21,8.08L-.95,76.37l-.21.14-.34.23-1.65,1.08-1.14.74-.15.08-.65.37-2.67,1.51-.25.13-.64.32-1.84.94-1,.5-.82.41c-1,.51-2.1,1-3.14,1.53l-2.05,1-1.69.84-.57.29-.24.11L-22.59,88l-1.5.82-.43.24-.13.08-2.62,1.68-1.47,1-.47.3a1.88,1.88,0,0,0-.18.12l-2.27,1.68L-34,95.66l-.43.34-1.38,1.1-2.66,2.11-.35.29-1.28,1.06-2.56,2.14c-.13.1-.25.22-.38.33-.44.39-.87.79-1.32,1.18L-48.63,108c-.61.55-1.21,1.11-1.82,1.65L-53,111.93l-4.94,4.42-.91.83-1.27,1.15-.72.68-.51.48c-.25.26-.51.51-.77.76l-1,1a.27.27,0,0,0,0,.36.27.27,0,0,0,.36,0l.85-.87.63-.61.94-.9.81-.76,1.37-1.25q2-1.81,4-3.6c1.37-1.23,2.75-2.44,4.12-3.66.67-.6,1.34-1.22,2-1.83s1.14-1,1.72-1.55l3.59-3.23.3-.27.44-.37,2.07-1.72,1.59-1.33c.31-.26.64-.5,1-.76l3.58-2.84,4.6-3.42.42-.28,1.47-.94,2.81-1.81.39-.23,1.47-.81,2.82-1.54c.17-.1.35-.18.53-.27l1.71-.85c.75-.37,1.5-.75,2.25-1.11l3-1.46,1-.51.79-.4,3-1.49.15-.08.53-.31,1.77-1,1-.57a2.12,2.12,0,0,0,.2-.12l.71-.47,1.61-1c.25-.16.5-.31.74-.48L1.72,75c.22-.16.42-.33.63-.49L3.92,73.3,8,70.06l4.18-3.31h0l0,0,0,0,0,0h0l4.44-3.29.55-.37L18.76,62l2.68-1.83.37-.24,1.37-.87,3.08-2,1.38-.87L31,54.17c.46-.3.93-.59,1.4-.87l3-1.76L38,49.94l.32-.18,1.25-.7L43,47.14l1.43-.8,5.7-3.09,1.54-.85,3.45-1.92,1.16-.65.38-.21L59.35,38,62.2,36.2l.31-.2,1.05-.75L66.76,33l1-.71c.12-.08.23-.17.34-.26l5-4,.28-.24,1-.93,2.85-2.65.84-.78c.11-.1.2-.21.3-.32l2.35-2.55,2-2.22c.17-.18.32-.36.47-.54l1.23-1.43c.82-1,1.62-2,2.4-3s1.5-2,2.21-3.07,1.5-2.29,2.2-3.47S92.6,4.55,93.2,3.41c.3-.57.59-1.14.88-1.71.12-.24.24-.47.35-.71l1.41-3,.73-1.57c.08-.16.16-.33.23-.49l.09-.19.16-.39-.68.32Z" transform="translate(63.2 157.91)"/><polygon class="a" points="70.43 244.62 70.43 244.62 70.43 244.62 70.43 244.62 70.43 244.62"/><polygon class="a" points="70.42 244.63 70.43 244.62 70.42 244.63 70.42 244.63 70.42 244.63"/><polygon class="a" points="70.39 244.65 70.39 244.65 70.39 244.65 70.39 244.65 70.39 244.65"/><polygon class="a" points="70.38 244.66 70.39 244.65 70.38 244.66 70.38 244.66 70.38 244.66"/><path class="a" d="M790.8-137.22c-.23.4-.46.8-.68,1.2l-.75,1.34c-.24.45-.48.9-.71,1.36s-.41.91-.61,1.37c-.33.77-.63,1.56-.89,2.35-.17.49-.31,1-.44,1.49-.19.68-.33,1.37-.47,2.07a58.83,58.83,0,0,0-.86,5.91c-.12,1.14-.23,2.27-.32,3.41-.17,2-.34,4-.5,6.07,0,.38-.07.75-.09,1.13-.05.71-.09,1.42-.13,2.12-.11,1.83-.21,3.65-.32,5.47-.09,1.41-.16,2.81-.24,4.22s-.15,2.57-.22,3.86q-.14,2.92-.28,5.83c0,.55,0,1.09-.08,1.63-.08,1.27-.15,2.54-.23,3.8-.07,1.06-.13,2.12-.2,3.19,0,.13,0,.27,0,.41,0,.57-.09,1.13-.14,1.7-.11,1.37-.23,2.73-.35,4.09,0,.41-.07.8-.1,1.21,0,.18,0,.36-.06.54l-.84,6.72s0,0,0-.06l-.78,4.85c-.12.72-.23,1.43-.35,2.14-.06.4-.14.8-.22,1.2q-.51,2.88-1,5.76c-.22,1.19-.45,2.38-.68,3.56l-.57,3c-.09.48-.19,1-.28,1.46-.3,1.66-.6,3.31-.91,5-.2,1.13-.41,2.25-.6,3.38l-1,5.87c-.21,1.24-.4,2.48-.59,3.72l-.48,3c0,.38-.13.76-.17,1.14-.21,1.83-.41,3.66-.62,5.49,0,.35-.07.69-.11,1,0,.11,0,.22,0,.33l-.15,2.16-.21,3.08c0,.45-.08.9-.09,1.35-.08,1.84-.15,3.68-.22,5.52-.05,1.2-.08,2.4-.11,3.6L772,4.9c0,.43,0,.86,0,1.29l-.27,4.71c0,.62-.07,1.24-.1,1.86a.11.11,0,0,1,0,.05c0,.18,0,.36,0,.55,0,.36-.07.72-.11,1.09-.1,1.09-.24,2.17-.38,3.26v0c-.09.7-.2,1.39-.31,2.08s-.29,1.68-.46,2.51c-.32,1.68-.72,3.34-1.17,5-.39,1.47-.85,2.94-1.36,4.38s-1.15,3.07-1.79,4.57l0,0c-.19.45-.39.9-.59,1.35s-.42.88-.64,1.33c-.51,1-1.07,2-1.65,2.93A57.35,57.35,0,0,1,759.44,47c-.38.5-.77,1-1.18,1.48s-.86,1-1.31,1.49c-.92,1-1.9,2-2.88,3s-2,1.89-3.05,2.8-2.1,1.77-3.18,2.61h0l0,0h0c-.82.63-1.65,1.25-2.49,1.85s-2,1.41-3,2.08-2,1.3-3,1.93l-1.34.79c-.29.18-.59.35-.89.52s-.3.18-.46.26l-4.94,2.62-1.73.91-.4.19-1.22.58-5.18,2.42-4.57,1.81-2.18.86a2.18,2.18,0,0,1-.23.09l-.79.25-5.73,1.79-.73.23-.21.06-2.24.57-5.14,1.31-.23.06-.86.19L697,80.5l-2.74.61-1,.22c-1.88.39-3.75.79-5.63,1.2q-1.54.31-3.09.66l-6,1.33-3.06.69-5.74,1.32-.39.08-.38.11-2.68.73-4.89,1.34-.27.09-.89.3-3.09,1-2.76.92-.8.26-.26.09-5,2-2.48,1c-.27.11-.55.21-.82.34l-5,2.27-2.28,1c-.28.12-.55.24-.81.37L631.51,101l-2.82,1.36-5.56,2.73-2.87,1.43-5.06,2.54-3.56,1.81L603,115.3l-1.54.79-.27.15-1.09.6-5,2.76c-.3.16-.59.34-.88.5l-2.82,1.64-3.3,1.92-3.8,2.24-.58.35-1.45.9-3.12,1.95-.17.11c-.25.18-.51.34-.77.51l-2,1.32-.94.63-1.57,1.07-.79.54-.38.26L571,134.69l-.4.29c-.23.16-.45.34-.68.51s-.75.56-1.11.86-.86.68-1.28,1l-.72.64c-.36.31-.69.65-1,1a.26.26,0,0,0,0,.35.25.25,0,0,0,.36,0c.34-.33.68-.67,1-1l.84-.74c.18-.16.38-.31.57-.47l.74-.59.85-.65c.24-.18.47-.37.71-.54l2-1.44.71-.48,1.31-.9c.47-.33,1-.65,1.43-1l2.53-1.69.55-.36c.2-.14.41-.26.61-.39l2.53-1.58,1.11-.69.47-.29,4.59-2.71c1.14-.68,2.28-1.33,3.42-2l2.5-1.45.93-.53,5.18-2.86.8-.44.22-.12,1.94-1,4.77-2.45,3.92-2c1.09-.56,2.17-1.12,3.27-1.67,2.7-1.35,5.39-2.71,8.1-4l5.51-2.71,3-1.43,4.32-2.07.9-.43c.24-.12.49-.23.74-.33l7.18-3.25,0,0,4.36-1.72,2.76-1.09.85-.33.29-.12,5-1.64,2.46-.82.48-.16.4-.11,5.74-1.57,1.79-.49.22,0,1-.23,6-1.37c1-.24,2.05-.47,3.07-.69l5.69-1.26c1.2-.27,2.4-.52,3.61-.77l4.65-1,1.46-.33,3.31-.74,2.5-.56.41-.09.53-.14,5.77-1.47,1-.25.29-.07,1.83-.57,5.38-1.68.23-.08.64-.26,2.93-1.16,2.68-1c.31-.13.63-.24.93-.39l5.21-2.44,1.41-.66.36-.2c.39-.2.78-.4,1.16-.61l5-2.64c.36-.19.71-.4,1.06-.61.89-.51,1.78-1,2.66-1.59,1.92-1.18,3.8-2.45,5.63-3.77q2.37-1.71,4.6-3.59c.79-.67,1.56-1.36,2.32-2.06s1.76-1.65,2.61-2.5S757,50.75,757.65,50s1.27-1.48,1.87-2.24,1-1.33,1.51-2c.7-1,1.36-1.92,2-2.9.52-.81,1-1.64,1.47-2.48s.91-1.72,1.32-2.6.68-1.55,1-2.32c.44-1.06.85-2.13,1.25-3.21s.65-1.9,1-2.86.58-2,.84-3c.56-2.14,1-4.31,1.36-6.5.34-2,.57-4,.77-6,0-.43.08-.87.11-1.31s0-.81.07-1.21l.3-5.3c0-.11,0-.23,0-.34l0-1.06.09-3.34q0-1,.06-2l.06-1.47c.06-1.74.13-3.48.2-5.21,0-.12,0-.24,0-.36,0-.37.05-.73.08-1.1l.24-3.36c0-.56.07-1.12.11-1.68,0-.15,0-.3,0-.44.05-.46.1-.91.16-1.37l.57-5.09h0v0c.44-2.8.87-5.6,1.33-8.39q.48-2.83.94-5.67c.05-.3.11-.59.16-.9.18-1,.37-2,.55-3s.35-1.93.53-2.9c.07-.38.13-.76.21-1.15l1-5.36.6-3.22,1-5.76c.05-.29.1-.57.14-.86.16-.95.31-1.9.47-2.85s.31-1.94.46-2.9c.06-.37.13-.73.18-1.1.22-1.83.45-3.67.68-5.5.06-.51.13-1,.19-1.54,0-.15,0-.29,0-.43,0-.45.07-.89.11-1.34l.47-5.53c0-.34.05-.68.07-1,.06-1.07.12-2.13.19-3.2.07-1.24.16-2.48.22-3.73q.15-3,.28-5.91c.11-2.18.24-4.36.36-6.54s.24-4.17.37-6.25l.21-3.63c0-.17,0-.35,0-.52.06-.69.11-1.37.17-2,.12-1.5.25-3,.37-4.51,0-.3.05-.6.08-.9l.1-1.07c0-.54.11-1.08.16-1.62.09-.9.2-1.79.31-2.68v0c.1-.7.21-1.39.33-2.08.15-.87.34-1.73.54-2.59.16-.68.36-1.34.57-2s.55-1.55.87-2.3l0,.06c.2-.46.4-.91.62-1.36s.46-.91.7-1.36c.46-.86,1-1.7,1.43-2.55a.25.25,0,0,0-.09-.34.31.31,0,0,0-.13,0,.24.24,0,0,0-.21.12Zm-43,195.63h0l0,0,0,0ZM771,17.69v-.05a.43.43,0,0,1,0,.05Zm3.1-38.47h0v0Zm12.05-102a.06.06,0,0,0,0,0v0Z" transform="translate(63.2 157.91)"/><path class="a" d="M783.42-127.07a.23.23,0,0,0-.15.12c-.46,1-.91,2.09-1.33,3.14-.25.63-.47,1.27-.68,1.91s-.48,1.55-.68,2.33-.31,1.4-.43,2.1c-.07.36-.13.71-.19,1.06s-.09.51-.12.77c-.06.43-.12.86-.17,1.29-.09.67-.18,1.35-.26,2,0,.31-.09.61-.12.92-.1,1.1-.21,2.21-.31,3.31a1.93,1.93,0,0,0,0,.24l0,.72-.11,2.21c0,.37,0,.73-.05,1.1,0,.1,0,.21,0,.31,0,.32,0,.63,0,1,0,1.12,0,2.24-.07,3.37V-98l0,2.17c0,.23,0,.46,0,.69,0,.63.06,1.25.1,1.88s.07,1.29.11,1.93c0,.24,0,.49,0,.73l.36,3.81c.07.72.14,1.43.22,2.14.14,1.26.27,2.53.41,3.79l.06.47.24,1.59c.21,1.37.41,2.73.62,4.09,0,.17.05.35.07.53l.09.5c.28,1.51.61,3,1,4.5s.69,2.73,1.09,4.09.91,2.91,1.4,4.36c.19.55.37,1.09.58,1.63s.37,1,.56,1.46l1.54,4c.18.46.36.92.53,1.38.07.16.12.32.19.48l3,6.51.45,1c.06.14.14.28.21.41l1.72,3.26,1.8,3.42c.09.16.17.34.27.5l.43.78c1.17,2.09,2.35,4.18,3.51,6.28l1,1.78,2.12,3.76c.87,1.54,1.76,3.08,2.63,4.61.61,1.06,1.22,2.12,1.82,3.18.28.48.57.95.86,1.43l2.2,3.62.83,1.36.21.36.61.95c.74,1.16,1.51,2.31,2.29,3.44s1.63,2.25,2.49,3.34a67.51,67.51,0,0,0,5.65,6.31,46.75,46.75,0,0,0,6.35,5.22,38.89,38.89,0,0,0,3.49,2.15c1.3.72,2.65,1.35,4,1.95,1.06.46,2.15.89,3.24,1.29s2.38.81,3.58,1.18,2.44.71,3.67,1,2.73.65,4.1,1l2.75.62,3.87.86c.5.11,1,.21,1.49.34l3.25.84,2.88.75c.25.06.49.15.73.22.66.2,1.33.42,2,.64,1.31.43,2.6.92,3.87,1.45l-.06,0c.91.38,1.82.79,2.71,1.23s1.78.92,2.64,1.43,1.72,1.07,2.56,1.64,1.65,1.15,2.44,1.76c.63.49,1.23,1,1.83,1.5s1.33,1.21,2,1.84,1.24,1.29,1.84,1.95c.17.18.33.36.49.56.89,1,1.77,2.09,2.66,3.14l1.52,2c.38.5.76,1,1.11,1.52l1.76,2.55c.44.64.85,1.29,1.28,1.94.18.28.37.56.55.85.07.09.12.19.19.28s.27.45.41.67c.46.72.91,1.45,1.36,2.18L900,53.25c.56.88,1.14,1.76,1.73,2.63a.25.25,0,0,0,.34.09.26.26,0,0,0,.09-.34c-.43-.65-.86-1.29-1.28-1.94l-.81-1.27c-.54-.84-1.06-1.69-1.59-2.54l-.78-1.26c-.22-.34-.44-.7-.67-1l-1-1.49-.68-1-2-2.89c-.14-.21-.29-.4-.44-.6-.44-.59-.87-1.18-1.31-1.76l-.8-1.08-.14-.16-.5-.6-2.31-2.73-.25-.27-.69-.74c-.45-.49-.92-1-1.4-1.45a36.41,36.41,0,0,0-3.3-2.9c-1-.79-2-1.52-3.07-2.24a42,42,0,0,0-3.75-2.27c-1.16-.63-2.37-1.18-3.58-1.7s-2.59-1.05-3.9-1.5c-.66-.23-1.33-.44-2-.65l-1-.31h-.05l-1.26-.33-4-1.05-1-.26c-.22-.06-.45-.1-.67-.15l-7.26-1.62c-1.14-.26-2.28-.51-3.41-.79-.57-.13-1.14-.27-1.7-.42s-1.34-.38-2-.57c-1.1-.32-2.19-.67-3.27-1s-2.36-.85-3.51-1.34l0,0c-.84-.36-1.68-.74-2.51-1.13s-1.84-.92-2.74-1.43a42,42,0,0,1-5-3.39l-1.32-1.05c-.44-.36-.86-.74-1.28-1.11-.93-.84-1.82-1.72-2.69-2.61s-1.7-1.81-2.52-2.75-1.56-1.88-2.31-2.84h0l0,0v0h0c-.4-.52-.8-1.05-1.19-1.59s-.81-1.12-1.2-1.69c-.84-1.23-1.65-2.49-2.46-3.75-.13-.2-.25-.4-.37-.61-.33-.53-.65-1.07-1-1.61-.71-1.18-1.43-2.35-2.15-3.53-.15-.27-.31-.53-.47-.79s-.21-.35-.31-.53q-1.77-3.09-3.53-6.18c-.34-.59-.68-1.19-1-1.79l-2.13-3.76c-.86-1.51-1.7-3-2.55-4.56l-1.9-3.38-.28-.5c-.13-.26-.27-.52-.41-.78L792-44.29c-.06-.11-.11-.21-.16-.32-.19-.42-.38-.83-.58-1.25-.61-1.3-1.21-2.61-1.82-3.91l-1-2.25c-.63-1.66-1.27-3.31-1.91-5l-.9-2.35c-.19-.5-.35-1-.53-1.5-.41-1.23-.82-2.46-1.2-3.69-.69-2.25-1.26-4.54-1.76-6.84-.12-.57-.24-1.15-.35-1.73-.05-.23-.09-.46-.14-.69s0-.25-.07-.37c0-.31-.09-.61-.13-.91l-.84-5.64c-.11-1-.23-2.05-.34-3.07-.09-.82-.19-1.63-.26-2.44L779.56-90c0-.27-.06-.52-.08-.78,0-.52-.05-1-.08-1.54,0-.68-.08-1.37-.11-2,0-.24,0-.47,0-.71,0-.09,0-.17,0-.26,0-1.19,0-2.38,0-3.57,0-.22,0-.45,0-.67,0-.69,0-1.38,0-2.08s0-1.7.06-2.55c.05-1.17.11-2.35.16-3.52,0-.2,0-.39,0-.59,0-.63.11-1.25.17-1.88l.12-1.26,0-.24c0-.25.06-.5.1-.74.13-1,.27-2.09.4-3.14v.05c.11-.7.23-1.41.36-2.11s.34-1.63.55-2.43.46-1.55.72-2.31.52-1.42.81-2.12a0,0,0,0,1,0,0c.31-.73.62-1.46.94-2.19a.25.25,0,0,0,0-.19.26.26,0,0,0-.12-.15.28.28,0,0,0-.13,0ZM881.66,30.06h0ZM816.36-2.66l0,0,0,0ZM782.77-124.54l0,0,0,0Z" transform="translate(63.2 157.91)"/><path class="a" d="M778.88-122a.26.26,0,0,0-.09.35l.77,1.13.79,1.2c.27.4.53.81.78,1.22s.48.81.71,1.22c.46.8.88,1.62,1.29,2.45.16.33.32.65.47,1l1.95,4.28h0l1.25,3.06c.33.82.68,1.64,1,2.46l1.44,3.61c.21.55.43,1.09.65,1.64.07.18.14.36.22.54l1.53,3.54c.25.6.51,1.19.77,1.79.08.18.15.36.23.53a1.42,1.42,0,0,0,.08.18c1,2.1,2.06,4.19,3.08,6.29l.25.45c.32.55.63,1.1.94,1.65.69,1.21,1.38,2.41,2.06,3.62.08.14.17.3.26.44.27.42.54.84.82,1.26l2.42,3.74.54.83a1.13,1.13,0,0,0,.1.13c.13.19.26.37.4.55l2.58,3.55.94,1.3.32.43c.79,1,1.59,2,2.38,3L811.06-63c.18.23.36.47.54.69l2,2.49,2.24,2.74.36.43,1.27,1.5L820.18-52c.44.52.9,1,1.36,1.55,1.39,1.58,2.79,3.15,4.17,4.74l2.91,3.32.59.68c.22.25.43.51.65.77l2.84,3.38c.43.51.86,1,1.27,1.52l2.73,3.31c.46.55.93,1.11,1.38,1.67,1.35,1.68,2.69,3.36,4,5,.8,1,1.61,2,2.42,3,.57.71,1.14,1.42,1.72,2.12l4.29,5.18c.61.75,1.25,1.49,1.87,2.24l2.42,2.88,1.53,1.85L859-5.61l.25.3,4,5.27c.17.22.32.45.48.68.41.59.82,1.19,1.22,1.8.8,1.21,1.56,2.44,2.3,3.69s1.44,2.57,2.11,3.89,1.36,2.82,2,4.25c0,0,0,0,0,0,.27.65.53,1.3.8,2,.07.17.13.34.19.51l.58,1.68,1.28,3.69a5.54,5.54,0,0,1,.17.58c.18.67.37,1.34.55,2s.37,1.37.56,2.05l.19.7c0,.09,0,.18.07.27.46,2,.91,3.93,1.37,5.88.3,1.23.59,2.46.88,3.69.07.3.16.59.24.89l.6,2.24.21.77a1.82,1.82,0,0,0,.07.25l.48,1.57.57,1.87c.1.32.2.63.31,1l.67,2,.15.41c0,.05,0,.09,0,.13s.13.32.19.48c.24.6.47,1.19.7,1.79.16.42.35.83.53,1.25s.34.82.53,1.22.5,1.07.76,1.59a.71.71,0,0,0,.08.15l.21.37.53.94.29.52a.76.76,0,0,0,.08.11l.28.44,1,1.63.15.22.59.82,1.08,1.47a1.56,1.56,0,0,0,.16.2l.63.79c.31.37.61.75.92,1.14.17.21.35.41.53.62l1,1.15c.2.23.41.45.61.67.42.45.86.87,1.31,1.29s.74.63,1.11.93l.55.44,1.2.94.76.58,1.56,1.16a.27.27,0,0,0,.35-.09.27.27,0,0,0,0-.2.33.33,0,0,0-.11-.15c-.44-.31-.87-.63-1.3-1l-1-.73.05,0-.81-.64-.52-.4-.71-.58c-.38-.31-.74-.63-1.1-1s-.71-.69-1.05-1c-.18-.19-.37-.39-.55-.6l-.45-.52-.87-1-.42-.5-1.44-1.8v0l0,0h0c-.59-.81-1.18-1.61-1.76-2.42a1,1,0,0,1-.08-.11l-.19-.3-.57-.89-.51-.79-.21-.35-1-1.68a3,3,0,0,1-.16-.31l-.42-.88-.33-.69-.18-.42-.74-1.73s0,0,0,.06c-.19-.47-.37-.95-.56-1.43-.11-.29-.22-.58-.34-.87l-.12-.33c-.2-.6-.4-1.19-.61-1.78l-.3-.89-.12-.34c-.35-1.17-.71-2.33-1.06-3.49-.08-.25-.14-.5-.21-.75-.19-.73-.39-1.46-.58-2.19-.13-.44-.24-.88-.36-1.33l-.06-.23-.21-.9c-.28-1.14-.55-2.28-.82-3.41s-.52-2.24-.78-3.36l-.36-1.58c-.06-.24-.13-.48-.19-.71-.38-1.36-.75-2.73-1.12-4.09l-.18-.64a1.33,1.33,0,0,0-.05-.19l-.41-1.2c-.47-1.34-.93-2.69-1.4-4l-.14-.41-.14-.36c-.13-.34-.27-.67-.4-1-.55-1.35-1.14-2.69-1.76-4s-1.32-2.63-2-3.92S866.82,4.43,866,3.1l-1.2-1.82-.62-.9-.42-.59L863-1.14l-2.67-3.53-.69-.91c-.14-.19-.29-.37-.44-.55l-2.73-3.29c-.46-.57-.92-1.13-1.39-1.69l-2.58-3.06c-.56-.67-1.12-1.32-1.67-2-1.42-1.73-2.84-3.44-4.27-5.17l-.55-.68-1.38-1.7-2.26-2.78-1.64-2-2.43-3-1.51-1.82-2.63-3.19-1.36-1.61c-.93-1.11-1.86-2.23-2.8-3.34l-.48-.57-.78-.89-2.91-3.34c-1.39-1.59-2.8-3.16-4.19-4.75l-.85-1-.44-.52-2.76-3.25-1.1-1.3-.36-.43-2.42-2.95L812.5-62c-.19-.22-.37-.44-.55-.67l-2-2.57-2.22-2.83c-1.35-1.85-2.7-3.72-4.05-5.58a3.19,3.19,0,0,1-.26-.38l-.94-1.43q-1.19-1.84-2.38-3.67l-.3-.49a.71.71,0,0,1-.1-.14l-.56-1q-1.11-1.92-2.2-3.85l-.61-1.07c-.11-.2-.19-.4-.29-.6l-1.89-3.84c-.32-.65-.64-1.31-1-2l-.12-.27-.48-1.13c-.7-1.61-1.39-3.21-2.08-4.82s-1.39-3.48-2.08-5.21l-.54-1.34-1.41-3.44c-.19-.46-.37-.93-.58-1.38l-1.36-3-.57-1.23c-.26-.59-.56-1.16-.86-1.74-.53-1-1.1-2.06-1.72-3-.31-.51-.65-1-1-1.52L779.22-122a.29.29,0,0,0-.22-.12.24.24,0,0,0-.12,0Zm28.81,53.92,0,0,0,0ZM859.24-5.35v0Zm29.54,66.44h0ZM871.31,14.25l0,0,0,0Z" transform="translate(63.2 157.91)"/><path class="a" d="M93.59-6.31c-.15.23-.3.45-.44.68-.43.67-.83,1.35-1.21,2l-.37.71c-.24.48-.46,1-.68,1.45l0,.06-.27.65c-.16.4-.33.8-.49,1.19L90,.67l-.36,1c-.09.26-.19.52-.27.79-.26.91-.51,1.82-.77,2.73a.6.6,0,0,0,0,.12c-.07.27-.13.53-.19.79L88,7.8c-.08.3-.15.61-.22.91s-.12.57-.19.85Q87,12.27,86.41,15c-.34,1.57-.67,3.14-1,4.71-.07.37-.15.74-.23,1.11,0,.13,0,.26-.07.4-.2,1.2-.39,2.4-.59,3.6l-.21,1.31-.06.39c-.13.9-.25,1.81-.37,2.72-.24,1.71-.47,3.43-.71,5.15l-.33,2.35c-.07.51-.13,1-.2,1.55-.13,1.08-.27,2.16-.41,3.23l-.12.94c0,.22,0,.44-.07.66l-.51,5.1c-.07.79-.15,1.58-.22,2.37-.06.54-.11,1.08-.16,1.62,0,.28-.06.55-.08.82-.12,1.88-.25,3.77-.38,5.65,0,.45,0,.9-.06,1.35l-.18,3.9c0,.46,0,.92,0,1.38l-.09,3.08c0,.58,0,1.17,0,1.75,0,1,0,2.06,0,3.1,0,1.36,0,2.73,0,4.09,0,1.87,0,3.75,0,5.63q0,5.09,0,10.17c0,.63,0,1.26,0,1.89,0,1,0,1.94,0,2.91,0,.12,0,.24,0,.36l.06,1.2.17,3.86c0,.42,0,.84.07,1.26l.17,2.91.3,4.9.18,3.16c0,.41.06.83.1,1.24.14,1.88.29,3.75.43,5.63.06.65.12,1.3.17,1.95l.3,3.46c.12,1.53.26,3.06.4,4.6.29,3.19.56,6.38.84,9.58l.06.55c0,.45.09.9.14,1.35.11,1.13.23,2.25.34,3.37.06.5.1,1,.16,1.48l.39,3.16c.09.7.18,1.4.26,2.1.06.47.14.94.2,1.41.16,1.08.31,2.17.47,3.25.06.44.13.88.19,1.31,0,.2,0,.39.08.59l.9,5.43c.12.7.23,1.4.35,2.1,0,.1,0,.2,0,.31.11.53.21,1.07.31,1.61l.63,3.29c.09.48.18,1,.28,1.44l.55,2.73c.16.77.31,1.55.47,2.32.37,1.74.75,3.48,1.12,5.22l.09.37.3,1.22.83,3.39c.12.47.25.93.38,1.4l.78,2.87c.12.45.26.9.39,1.35l1,3.56c.12.41.24.82.37,1.23l1,3c.51,1.62,1,3.23,1.56,4.85s1,2.95,1.48,4.43,1.06,3.11,1.58,4.67c.15.44.31.89.45,1.33.3.94.6,1.88.91,2.81l.64,2,.21.68.66,2.11c.22.71.44,1.42.67,2.13s.35,1.15.52,1.73c.41,1.33.81,2.66,1.21,4s.87,2.81,1.29,4.21l.84,2.82c.08.27.17.54.24.81s.14.48.2.72l.75,2.7c.14.5.28,1,.41,1.5l1.14,4.47c.17.66.33,1.31.49,2s.34,1.37.5,2.06c.21.94.43,1.88.65,2.81l.42,1.84,1.05,4.64c.31,1.37.6,2.75.9,4.12s.61,2.84.92,4.26.65,3.09,1,4.64c.08.38.16.76.23,1.14.2,1,.4,2.08.59,3.13.26,1.34.48,2.69.72,4l.24,1.39c.13.78.27,1.57.4,2.36,0,.24.06.48.1.72l.21,1.57c.1.77.21,1.54.31,2.3a.2.2,0,0,0,0-.07q.6,5,1.19,10c.11.87.21,1.75.32,2.62.05.42.11.84.16,1.26.23,1.72.46,3.44.68,5.16.13,1,.25,2,.38,3,.06.43.11.87.17,1.3.14.93.27,1.86.41,2.79s.22,1.58.34,2.36c.26,1.71.52,3.41.79,5.11,0,.26.07.52.11.78l.24,1.66c.1.72.2,1.44.31,2.16.15,1,.3,2,.44,3,.09.57.17,1.13.26,1.7.28,1.64.55,3.29.83,4.94.16.94.32,1.89.49,2.83.09.55.19,1.11.27,1.66l.84,5.43c.23,1.58.47,3.16.71,4.73l.32,2.18c.15,1,.28,1.93.41,2.89.47,3.22.93,6.43,1.39,9.65l.46,3.2a.2.2,0,0,1,0-.07c.45,3.4.9,6.79,1.34,10.19.06.45.11.91.15,1.36.12,1.09.23,2.18.35,3.27.05.52.11,1,.16,1.57.09,1.05.19,2.11.29,3.17l.24,2.58c0,.13,0,.26,0,.39,0,.44.07.89.1,1.33.08,1,.15,2,.22,3,.05.62.08,1.23.11,1.85.18,3.45.38,6.89.57,10.34,0,.81.08,1.61.11,2.42s.09,1.61.13,2.41c0,.22,0,.44,0,.67l.06,1.55c0,1.11.07,2.22.1,3.34,0,.53,0,1.06,0,1.59,0,1.11,0,2.2.06,3.3,0,1.69.06,3.37.08,5,0,3,.05,6,.06,8.93,0,1.74,0,3.47,0,5.2,0,.43,0,.84,0,1.26,0,1.31,0,2.61,0,3.91,0,.65,0,1.3,0,1.94,0,.17,0,.33,0,.5l0,1.25c.06,1.88.12,3.76.17,5.64s.1,3.48.15,5.23c0,1.59.08,3.19.11,4.79,0,1.43.07,2.85.1,4.28,0,1,.05,1.92.07,2.88,0,.59,0,1.18.07,1.76,0,1.08.1,2.15.14,3.23,0,.45,0,.89.07,1.34.06,1,.13,2,.19,3,0,.36,0,.72.08,1.08s0,.52.06.77c.1,1.06.19,2.12.28,3.18,0,.48.08,1,.14,1.44l.57,5.06c.2,1.71.39,3.41.6,5.12l.27,2.22.36,3.16c.07.62.16,1.24.24,1.87s.19,1.53.29,2.3c.2,1.54.4,3.08.59,4.61s.4,3.33.59,5c.08.67.17,1.34.24,2,.1,1.08.21,2.15.32,3.23.14,1.32.24,2.64.36,4,.09,1,.18,1.91.26,2.87.07.68.12,1.36.17,2s.11,1.2.14,1.8l.18,2.81,0,.56.06,1.57c0,.62.06,1.25.08,1.89,0,1,.08,2,.13,3,0,.71.07,1.42.11,2.12s.06,1.25.1,1.88q.06,1.2.15,2.4v.11c0,.26,0,.51.07.76.06.55.11,1.09.17,1.63,0,.29.05.58.09.88s.07.6.1.9c.11.87.22,1.73.32,2.6,0,.17,0,.34.07.51.1.65.18,1.3.27,2s.21,1.34.31,2,.22,1.38.34,2.07l1,5.21c.13.75.28,1.48.43,2.22s.25,1.28.37,1.91.29,1.47.44,2.2l.48,2.33c.6,2.93,1.22,5.84,1.84,8.76l.21.94c.06.29.12.58.19.87l.31,1.27c.06.25.13.5.2.75.21.77.42,1.54.64,2.31l.27.89c.07.22.14.44.2.66l.41,1.2a.26.26,0,0,0,.31.17.25.25,0,0,0,.17-.31c-.16-.46-.33-.93-.47-1.4s-.23-.74-.34-1.11-.23-.83-.35-1.24-.15-.54-.22-.81-.2-.72-.3-1.08a1,1,0,0,1,0-.17l-.21-.86c-.18-.74-.34-1.47-.5-2.21q-1-4.62-1.94-9.25c-.14-.7-.29-1.4-.43-2.11l-.57-2.88c-.17-.85-.33-1.71-.5-2.56s-.33-1.74-.49-2.61l-.39-2.13c-.08-.48-.17-1-.26-1.45s-.12-.76-.18-1.14c-.09-.55-.18-1.1-.26-1.66,0-.21-.07-.41-.1-.62-.12-.9-.25-1.81-.38-2.72a.06.06,0,0,1,0,0c-.11-.85-.21-1.71-.32-2.57,0-.3-.07-.6-.1-.9s-.06-.59-.09-.88c-.09-.83-.17-1.67-.25-2.5a.53.53,0,0,1,0-.13c0-.25,0-.51,0-.77,0-.61-.08-1.21-.11-1.82s-.08-1.41-.12-2.13l-.09-1.88c-.07-1.9-.15-3.8-.23-5.7,0-.29,0-.59,0-.89L142,543l-.15-2.48c0-.29-.05-.58-.07-.86-.05-.53-.09-1.06-.13-1.59l-.21-2.28-.45-5c-.06-.66-.13-1.33-.19-2s-.15-1.51-.24-2.26c-.19-1.64-.39-3.27-.58-4.91-.09-.72-.17-1.43-.26-2.14l-.42-3.32-.57-4.47c-.18-1.39-.32-2.8-.49-4.2-.12-1-.25-2-.37-3-.09-.71-.16-1.42-.25-2.13-.2-1.78-.4-3.56-.61-5.34-.05-.44-.1-.88-.14-1.32,0-.13,0-.27-.05-.4l-.24-2.69c-.06-.74-.12-1.47-.19-2.21,0-.23,0-.47,0-.7l-.14-2.12-.09-1.37,0-.41c0-.83-.07-1.67-.11-2.5l-.12-2.86c0-.59,0-1.18,0-1.77,0-1.53-.07-3.06-.11-4.59,0-1.68-.06-3.35-.11-5-.1-3.44-.19-6.89-.3-10.33,0-1-.06-1.95-.08-2.91,0-.36,0-.71,0-1.06l-.06-6.17v-1.68c0-1.08,0-2.16,0-3.25,0-1.54,0-3.07,0-4.61l0-4.22,0-2.39c0-.82,0-1.64,0-2.46,0-1.82-.07-3.65-.1-5.48,0-.47,0-.93,0-1.4,0-1.28-.08-2.57-.13-3.85,0-.48,0-.95-.05-1.42-.06-1.11-.11-2.22-.16-3.32-.09-1.73-.2-3.46-.29-5.18-.08-1.4-.16-2.8-.23-4.21,0-1-.1-2-.16-3,0-.64-.09-1.29-.13-1.93-.08-1-.15-2-.23-3,0-.45-.07-.9-.11-1.35-.1-1.12-.21-2.23-.31-3.34,0-.6-.11-1.21-.17-1.81l-.57-5.42c0-.14,0-.28-.05-.42l-.19-1.45-.39-3c-.22-1.73-.46-3.45-.68-5.17-.2-1.48-.42-3-.63-4.43-.46-3.23-.93-6.45-1.39-9.68l-.33-2.29c-.1-.73-.21-1.46-.32-2.18-.27-1.77-.53-3.55-.8-5.32l-.75-4.84c-.08-.56-.18-1.11-.27-1.66l-.51-2.93c-.28-1.61-.54-3.23-.81-4.85-.09-.56-.17-1.13-.25-1.69l-.48-3.19c-.18-1.19-.34-2.39-.52-3.59s-.37-2.45-.56-3.68c-.15-1-.31-2-.46-3-.21-1.49-.42-3-.64-4.46a.64.64,0,0,0,0,.07l-1.32-10c0-.39-.09-.77-.14-1.15-.12-1-.25-2.08-.37-3.13-.18-1.47-.35-2.94-.53-4.41-.13-1.14-.27-2.27-.4-3.41,0-.4-.09-.81-.15-1.21-.12-.93-.25-1.85-.38-2.78-.09-.7-.18-1.41-.29-2.1-.26-1.53-.52-3.06-.79-4.58-.14-.81-.28-1.61-.43-2.42,0-.28-.1-.57-.16-.85l-.42-2.24c0-.28-.11-.56-.16-.85s-.11-.49-.16-.74c-.22-1.08-.45-2.16-.68-3.24-.34-1.64-.7-3.27-1-4.9-.66-3.1-1.36-6.2-2.06-9.29-.34-1.54-.71-3.08-1.06-4.62-.13-.58-.28-1.16-.42-1.73-.21-.88-.42-1.76-.65-2.63l-1.19-4.7-.21-.72c-.14-.53-.29-1.06-.43-1.59s-.3-1.06-.44-1.58c-.08-.28-.15-.56-.23-.83-.43-1.42-.85-2.85-1.29-4.26-.48-1.6-1-3.19-1.45-4.79-.33-1.06-.65-2.13-1-3.19-.15-.48-.3-1-.44-1.45-.32-1-.64-2-.95-3-.2-.64-.4-1.29-.61-1.93q-.77-2.41-1.55-4.81l-.21-.63c-.16-.47-.32-.95-.49-1.43l-.87-2.59L97.73,209c-.21-.62-.4-1.24-.6-1.86l-.78-2.41q-.78-2.47-1.58-5c0-.12-.07-.24-.1-.36-.13-.41-.24-.82-.36-1.23-.34-1.14-.67-2.27-1-3.4q-.21-.71-.39-1.41c-.27-1-.53-1.91-.79-2.87-.12-.45-.23-.9-.34-1.35l-.87-3.54-.15-.62c0-.2-.09-.42-.13-.63L90,181.18c-.11-.55-.24-1.11-.35-1.66-.22-1.1-.45-2.2-.67-3.3-.12-.58-.24-1.15-.35-1.73l-.45-2.34c-.2-1.06-.4-2.13-.61-3.2,0-.28-.1-.56-.16-.84l-.09-.53c-.39-2.4-.79-4.79-1.18-7.18,0-.3-.09-.6-.13-.9-.1-.68-.2-1.36-.29-2-.17-1.17-.34-2.34-.5-3.5h0l-.63-5c-.05-.41-.09-.82-.13-1.23L84,143.92c-.07-.63-.14-1.27-.2-1.9,0-.18,0-.35,0-.52,0-.43-.07-.86-.11-1.29L83.21,135c-.17-1.8-.33-3.61-.49-5.42s-.29-3.44-.44-5.16c-.11-1.27-.21-2.55-.31-3.82-.09-1.1-.17-2.21-.26-3.31,0-.57-.09-1.13-.13-1.69-.22-3.66-.43-7.31-.65-11,0-.42-.05-.84-.07-1.26L80.71,100l-.09-2v-.75c0-.75,0-1.5,0-2.25s0-1.26,0-1.89c0-1,0-2,0-2.91,0-1.71,0-3.41,0-5.12,0-1.34,0-2.67,0-4,0-1.65,0-3.3,0-4.95,0-1.94,0-3.87.07-5.8,0-.47,0-.94,0-1.42l.1-3.25c0-1.52.12-3.05.19-4.58,0-.71.06-1.41.1-2.12,0-.21,0-.41,0-.62l.14-2.09c.07-1,.13-2,.2-3,0-.51.09-1,.14-1.52l.48-5c.11-1.07.22-2.14.32-3.21.05-.43.09-.85.14-1.28l.69-5.42s0,0,0,0l1.38-10c.07-.47.14-.94.22-1.41l.54-3.33c.06-.34.11-.68.17-1,0-.14,0-.28.08-.42.25-1.19.51-2.37.76-3.56.32-1.54.67-3.07,1-4.61l.39-1.75c.17-.79.34-1.58.53-2.36.23-1,.47-1.95.7-2.92,0-.19.1-.38.15-.57l.42-1.51c.09-.3.18-.6.26-.9A1.07,1.07,0,0,1,90,2.31l.36-1c.1-.29.2-.57.32-.86.22-.54.45-1.09.69-1.64l0,.05.33-.72q.34-.74.72-1.44l.59-1C93.3-4.94,93.65-5.5,94-6a.27.27,0,0,0-.09-.35l-.12,0a.27.27,0,0,0-.22.12Z" transform="translate(63.2 157.91)"/><path class="a" d="M340.56,139.26h0l-1.13-.23-1.21-.26-1.27-.29-2.64-.55c-.86-.18-1.73-.34-2.59-.49s-1.81-.28-2.71-.41c-1.73-.25-3.47-.48-5.2-.71h0l-2-.27-.76-.11-.54-.08-2.37-.4a3,3,0,0,1-.43-.08l-1.05-.23-2.08-.47-.39-.12-1.34-.4-1-.3-.22-.07a2.34,2.34,0,0,1-.24-.09l-2.07-.76-1.91-.83-2-.89c-1.17-.52-2.34-1.06-3.5-1.61l-.82-.35-.62-.27-.22-.09-.91-.35-.62-.23-.32-.12-2.14-.7-.63-.19-1.46-.42c-.58-.17-1.16-.31-1.74-.46l-1.81-.47-1.4-.36-.58-.15-2.41-.58-8.18-1.94-1.4-.3-2.52-.54-.59-.11-1.42-.28-1-.18-.78-.13-2.16-.35-.64-.09-1.63-.24-1.22-.18-.39-.06-2.3-.26L259.8,120l-.32,0-1.33-.11-2.77-.23-.54,0-.68,0-2.76-.14-1.14-.06-.43,0-4.86-.13c-1.38,0-2.76-.08-4.13-.12l-1.33,0-2.39-.11-2.47-.12-1.3-.09-2.86-.2-1.4-.1-4.91-.44-4.05-.39-1.63-.15-.48-.06-1.39-.16-3.92-.44-4.37-.48c-.89-.1-1.79-.18-2.69-.26l-2.34-.22-.89-.08-4.2-.32c-2.25-.17-4.52-.32-6.77-.48l-.67-.06-1.82-.18-3.69-.37-4.65-.71-.85-.13-.25,0-2.44-.49-2.48-.5-.34-.07-.81-.21-2.75-.74-1.18-.32L169,111l-4.68-1.46c-.33-.1-.65-.2-1-.32l-2.46-.91-2.48-.93-.43-.16c-.19-.07-.38-.16-.56-.24l-4.69-2-.11,0,0,0-3.9-1.83-1.28-.59-.42-.21-1-.52-2.38-1.19-1.27-.63-4-1.95-.95-.47-1.88-.94-2.32-1.17c-.31-.16-.62-.31-.93-.48l-4.24-2.38c-.14-.08-.29-.15-.43-.24s-.26-.16-.39-.24-.54-.32-.8-.49-.79-.5-1.18-.75c-1.58-1-3.11-2.12-4.6-3.27l0,0c-.75-.58-1.49-1.18-2.22-1.78l-.46-.42-2.21-2c-.51-.47-1-.93-1.55-1.39l-.25-.25-.93-.92-2.16-2.13-.53-.52-.29-.31-3.21-3.57-2.25-2.92c-.27-.34-.54-.69-.8-1l-.2-.28c-.2-.31-.4-.62-.61-.92L100.91,66c-.09-.13-.18-.27-.26-.41l-.73-1.22c-.4-.68-.78-1.38-1.15-2.07-.83-1.53-1.55-3.1-2.24-4.69l0,.06c-.49-1.15-.94-2.32-1.37-3.49-.49-1.33-.9-2.69-1.29-4.05s-.64-2.49-.91-3.75c-.31-1.45-.55-2.92-.75-4.39l0,.07c-.13-1-.24-1.94-.32-2.91s-.13-1.9-.18-2.85c0-.48,0-.95-.05-1.43,0-.31,0-.66,0-1s0-.47,0-.71c0-1.77,0-3.54,0-5.31V24.22c0-1.19,0-2.38,0-3.57,0-3.06,0-6.11,0-9.16,0-1.23,0-2.45,0-3.67l0-2.87c0-.51,0-1,0-1.53,0-1.59,0-3.18.08-4.77,0-.46,0-.92,0-1.38,0-.87,0-1.74.08-2.61,0-.51,0-1,.07-1.53l.12-2.77c0-.11,0-.23,0-.34,0-.46.08-.91.11-1.37l.18-2.26v0c.12-.84.24-1.68.37-2.51,0-.2.06-.38.09-.58.11-.62.24-1.23.38-1.84.1-.45.22-.89.35-1.34a15.38,15.38,0,0,1,.54-1.62c.24-.57.5-1.15.75-1.72s.46-1.06.68-1.59a.26.26,0,0,0,0-.19.25.25,0,0,0-.11-.15.33.33,0,0,0-.13,0H95.3a.29.29,0,0,0-.15.12c-.32.74-.64,1.49-1,2.24l-.32.73c-.12.26-.21.51-.32.77-.16.43-.28.87-.42,1.31s-.31,1.19-.45,1.79-.18.93-.27,1.39c0,.2-.07.38-.1.58L92.13-15c-.07.41-.12.82-.18,1.23a3.87,3.87,0,0,0,0,.49l-.21,2.68c0,.27,0,.55-.07.83l0,.61-.12,2.8c0,.48,0,1-.07,1.43L91.32-2.3l0,1.33c0,.9,0,1.8,0,2.71l0,1.76c0,1.62,0,3.24,0,4.86,0,1.29,0,2.59,0,3.89,0,2.91,0,5.81,0,8.72,0,1.33,0,2.66,0,4,0,1.12,0,2.24,0,3.37,0,1.77,0,3.54,0,5.31,0,.26,0,.52,0,.77,0,1,.07,1.91.12,2.86s.12,1.9.21,2.84.24,2,.38,3c.28,1.94.68,3.86,1.14,5.76a60.58,60.58,0,0,0,1.83,5.88c.6,1.64,1.27,3.25,2,4.84a61.29,61.29,0,0,0,2.87,5.44c.24.41.49.81.74,1.21l.07.11c.16.25.33.5.5.75l1.69,2.53.56.84.16.24,1.51,2,1.46,1.89.16.21c.23.24.44.49.67.73l1.9,2.12.69.76.25.27,3.58,3.52c.08.08.16.17.25.25l.45.41,2.21,2c.5.46,1,.91,1.52,1.36a4.94,4.94,0,0,0,.41.34c.36.31.73.6,1.1.9.76.61,1.53,1.19,2.31,1.77,1.51,1.11,3.07,2.14,4.66,3.12.33.2.66.41,1,.6l1.06.6,2.54,1.41.87.49.31.17,4.56,2.3.88.43,2.67,1.29,1.68.82c.5.23,1,.48,1.48.73l2.57,1.28,1.18.59,4.64,2.17.43.2c.12.06.24.1.36.15l2.5,1,2.27,1,.3.13.73.27,4.79,1.78.26.09.93.29,3,.93,1,.32.33.1L171,112l2.61.7.49.13.12,0,.5.11c1.58.31,3.16.62,4.74,1l.34,0,1.06.16,3.08.46,1,.15.3,0,2,.21,2.78.28,1.16.11,5.18.36,3.77.28,2.19.17,1.37.13,2.88.27,1.38.13q4.56.5,9.12,1l1.42.16,2.1.2,3.82.36,4.78.43.37,0,1.14.08,3,.21c.34,0,.69.05,1,.06l2.84.14,1.95.1h.37l1.36,0,8.61.23.51,0,1.23.06,2.83.14.39,0,.7.06,3.05.25,1.12.09.26,0,.87.1,3.52.4h-.07l2,.3,1.88.28,2.44.39c.62.1,1.25.23,1.86.35s1.13.21,1.68.33l2.8.59,1.3.3,2.84.66,3.88.92,1.58.38,1.35.33.66.16,4.19,1.08,1,.26.62.19,1.3.37.66.2,1.95.64.29.11.62.24.89.33-.05,0,.79.34c.27.12.55.23.82.36l1.47.68,1.8.83,1.8.8,1.47.64.83.36.5.2,1.95.71.22.07.54.16,1.41.43.74.22.11,0,.42.09,2.4.54.36.08.88.15,2.29.38.41.05,1.36.19,1.35.18,3.83.52-.07,0c1.55.23,3.11.44,4.65.73.37.07.76.13,1.14.21l1.21.25,2.32.49,1.17.27,1,.22.95.19,1.08.2A5.58,5.58,0,0,1,340.56,139.26Z" transform="translate(63.2 157.91)"/><path class="a" d="M106.92,74.41v0Z" transform="translate(63.2 157.91)"/><path class="a" d="M309.29,132.92l0,0,0,0Z" transform="translate(63.2 157.91)"/><path class="a" d="M323.81,136.32h0Z" transform="translate(63.2 157.91)"/><path class="a" d="M300.16,129.38h0Z" transform="translate(63.2 157.91)"/><path class="a" d="M92.42-13.62h0v0Z" transform="translate(63.2 157.91)"/><path class="a" d="M784.13-143.31c-1,3.43-2.07,6.86-3.11,10.28l-.69,2.3c-.16.51-.29,1-.44,1.52-.29,1-.58,2.06-.88,3.08-.16.57-.32,1.14-.49,1.71q-.71,2.61-1.42,5.21c-.16.61-.33,1.21-.49,1.82l-.09.33-.3,1.27-1.38,5.65-.24,1-.72,3.28L773-102c-.42,2-.84,4-1.27,6-.09.44-.17.88-.28,1.32l-.45,2c-.43,1.88-.85,3.75-1.28,5.62L768.83-83c-.31,1.37-.61,2.73-.92,4.1-.42,1.84-.85,3.68-1.27,5.52-.25,1.08-.51,2.16-.75,3.25l-2,9.17c-.46,2-.91,4-1.37,6.08-.24,1.09-.47,2.19-.7,3.28-.38,1.82-.77,3.64-1.15,5.46-.07.33-.14.66-.2,1-.21,1.06-.43,2.12-.64,3.17-.27,1.33-.53,2.66-.8,4-.39,1.9-.78,3.81-1.16,5.71-.14.64-.27,1.27-.39,1.91-.1.46-.21.91-.31,1.37-.43,2-.87,3.91-1.3,5.86-.07.3-.14.6-.22.9l-.75,3.07c-.22.93-.45,1.86-.68,2.79,0,.2-.09.39-.14.59s-.09.31-.14.46c-.57,2-1.15,3.91-1.73,5.87-.09.32-.18.65-.29,1-.28.85-.57,1.71-.85,2.57-.33,1-.67,2-1,3-.1.34-.22.68-.33,1l-.12.35q-1,2.61-2.09,5.2l-.69,1.73L744.63,10c-.3.62-.59,1.26-.89,1.89,0,.08-.08.16-.13.24-.18.36-.37.72-.56,1.08l-2.6,4.93c-.05.08-.1.16-.14.24-.17.3-.34.59-.52.88l-1.74,3c-.36.62-.73,1.24-1.09,1.87l-.15.23c-.22.34-.45.67-.67,1L733.08,30l-.16.23c-.2.27-.39.55-.59.83l-2,2.79-1.24,1.76-.17.22-.73,1c-1.06,1.45-2.14,2.88-3.2,4.33l-3.25,4-1.08,1.34-.32.37-1,1.13-2.07,2.43-.73.87-.27.31c-1.26,1.39-2.53,2.78-3.79,4.18-.25.27-.49.55-.75.81l-2,2-2.09,2.11-.45.46-.4.37-4.15,3.93-1,.87-2.57,2.31c-.38.34-.76.69-1.15,1-.72.63-1.45,1.25-2.18,1.87l-2.17,1.88-.31.26c-.36.29-.72.58-1.07.88l-2.66,2.17-1,.84L684.33,81l-4.23,3-.47.33a.57.57,0,0,1-.13.08l-.37.23L676.3,86.4l-1.11.69c-.12.08-.24.16-.37.23l-2.15,1.2-2.4,1.35-1.32.72-2.77,1.5c-.28.14-.55.29-.82.44l-.45.22-2.68,1.3-1.27.62-.56.27-9,4.11c-1.81.83-3.62,1.64-5.44,2.46s-3.84,1.73-5.77,2.58-3.78,1.67-5.67,2.49l-2,.89-3.21,1.38.06,0-9.15,3.76L616,114.29l-4.1,1.66-1.93.77-2.34,1-1.26.52-.4.17-2.55,1.13-.48.22c-.39.19-.77.37-1.15.57l-1.38.67-.55.29c-1.34.74-2.67,1.47-4,2.23L593,125.14l-.65.39-1.78,1.06-1.88,1.13-2.53,1.53-2.63,1.56c-.35.22-.71.41-1.07.62l-.82.47-.29.16-1.38.72-.5.26-.52.26-.91.44-.37.17-1.48.66-1.48.57-.46.16-1.11.38-.49.15-.89.28-1.48.43-.71.2-.72.18-1.35.37-3.23.81c-1,.25-2,.47-3,.7l-1.38.31-.67.14-.88.17c-1,.18-1.9.37-2.84.53l-1.59.27-1.74.25h0l-.85.11c-.32,0-.64.09-1,.12l-2.08.2c-.68,0-1.37.11-2.06.14l-1.17.05h-.51q-.51,0-1,0c-.46,0-.92-.07-1.38-.12h0l-.4-.06-.84-.14c-.38-.07-.75-.19-1.11-.28a.26.26,0,0,0-.31.17.24.24,0,0,0,.17.31l1.11.28c.42.1.85.15,1.27.21l1,.1c.5.05,1,.05,1.5.06s1,0,1.43,0l1.06-.06,1.39-.11.89-.08,1.1-.11.4,0,1-.13c.67-.09,1.35-.19,2-.3s1.44-.23,2.16-.36c.39-.06.77-.14,1.16-.21s.52-.11.79-.15l1.33-.26.26-.05,1-.22,1.86-.42,1.32-.31,1.17-.29,1.82-.45,2.25-.59,1.2-.33.93-.26.93-.28.73-.23.5-.15,1.31-.45.86-.32.72-.28.26-.1,1.35-.6.52-.24,1.27-.62.45-.23,1.32-.69c.54-.28,1.07-.6,1.6-.9l.81-.47c.21-.11.41-.23.61-.36l3.68-2.2,3.7-2.23,1-.61.48-.28c.66-.39,1.32-.76,2-1.14l1.55-.89,2.22-1.23c.32-.18.65-.37,1-.54l.41-.23,2.34-1.15.57-.28.22-.1.54-.24,2.17-1a.05.05,0,0,1,0,0l2.08-.86,1.91-.79,4.55-1.83,4.68-1.92,4.46-1.83,4.17-1.72,1.49-.61,2.42-1,4-1.74,4.12-1.8,2.81-1.25,1.84-.82,4.84-2.19,4.07-1.86,3.74-1.71,2.78-1.26.52-.24.71-.35,2.83-1.36,1.08-.53.4-.2,4.58-2.48,1.48-.83L674.59,88l.5-.28.13-.08.37-.23,2.83-1.76,1.11-.69a3.73,3.73,0,0,0,.37-.23l2-1.43,2.37-1.7.38-.27.56-.45q2-1.61,4.07-3.22l.43-.35,1-.86,2.61-2.13.87-.73,2.42-2.08L698.46,70l.24-.21,1-.93,2.38-2.14c.34-.31.7-.62,1-.94l4.19-4,.28-.27.46-.46,2.28-2.3,1.8-1.82c.31-.31.6-.64.89-1l3.69-4.06.23-.28.73-.86,2.23-2.63L721,46.84c.11-.12.21-.25.31-.38l.93-1.15,2-2.53.77-1c.11-.14.24-.28.35-.43l3.07-4.15,1-1.36.28-.4.84-1.19,1.86-2.63.7-1c.09-.14.19-.27.29-.41l3-4.46.92-1.38.07-.11.18-.31.74-1.27,1.64-2.8.62-1.06c.08-.15.17-.29.25-.43.84-1.59,1.67-3.18,2.51-4.76l.78-1.48.2-.42.6-1.29,2.29-4.89.11-.27.36-.89L749,1.26l1-2.41c0-.11.09-.21.13-.32s.16-.48.24-.73L752.24-8c.09-.3.19-.6.28-.9.28-.94.56-1.88.83-2.81s.59-2,.89-3c.11-.39.23-.77.33-1.17L756-21.58c.1-.4.21-.8.3-1.21.16-.74.32-1.48.49-2.22.38-1.73.77-3.46,1.15-5.2.1-.43.18-.86.27-1.29.23-1.11.45-2.22.68-3.33l.75-3.66q.58-3,1.19-5.94l.3-1.49c.11-.56.23-1.11.35-1.66l1.26-6c.24-1.13.5-2.25.75-3.37.7-3.16,1.41-6.3,2.11-9.45.34-1.5.66-3,1-4.48.39-1.69.79-3.39,1.18-5.09.27-1.16.54-2.32.8-3.48l1.35-6c.67-3,1.36-6,2.05-9,.07-.31.13-.62.19-.93.23-1,.45-2.07.67-3.11.29-1.35.57-2.7.86-4l1.29-5.82c.11-.53.23-1.05.34-1.57,0-.15.07-.3.11-.45.11-.46.23-.92.34-1.38.44-1.82.89-3.65,1.33-5.47l.07-.26.26-1,.91-3.31c.21-.8.43-1.59.64-2.39l.36-1.23c.49-1.73,1-3.45,1.48-5.18a3.17,3.17,0,0,1,.12-.41l.36-1.2,1-3.21,1.26-4.18,1.11-3.66a.26.26,0,0,0-.18-.31h-.06a.27.27,0,0,0-.25.18ZM542.13,141h0Z" transform="translate(63.2 157.91)"/><path class="a" d="M341.78,129.7a3.64,3.64,0,0,1,.63-.3l-2.75-1c-1.19-.4-2.38-.83-3.58-1.22l-.93-.31-1-.32-1-.28c-.33-.1-.66-.18-1-.26l-.38-.1-.4-.08-.67-.15-.24,0-1.13-.18-.23,0-.6-.07-.65-.06-.23,0-1.22,0-.35,0h-.3l-1.48,0-.55,0-1.33.09-.5,0-.59.06-1,.13-.95.16-.89.19c-.95.2-1.88.47-2.82.72l-1.14.3c-.21.06-.42.14-.63.21l-1.92.61-.38.12-.73.27q-.93.36-1.86.69l-1.24.49-2.92,1.14c-1,.38-2,.78-3.08,1.15l-1.9.67-.38.14-.68.2-2.08.64c-.37.11-.74.19-1.12.28l-2.14.52c-.33.08-.66.14-1,.2l-2.28.47-.72.14h-.07l-.47.08-.94.14h0l-1.36.17-1.37.13c-.86.06-1.73.07-2.6.09h-14c-5.55,0-11.11,0-16.67.05-2.82,0-5.65.06-8.47.11-2.67,0-5.33.1-8,.16l-1.72,0-2.32,0-2.27,0h-.32l-1.29,0-2.6-.08-.4,0-1.08-.09L221,135.5l-.36,0-1.36-.17-2.81-.34h0l-4.32-.71-.32-.06-1.07-.22-2.42-.5c-.14,0-.27-.06-.41-.09l-1.18-.27-2.76-.64c-1.36-.31-2.72-.65-4.07-1-2.55-.6-5.11-1.19-7.66-1.77l-2.12-.49-1.55-.34-3.8-.83c-2.67-.59-5.34-1.18-8-1.75-1.41-.3-2.81-.62-4.22-.91l-4.25-.88-2-.4-1.78-.37-4.41-.94-.39-.1-1.14-.29-2.67-.67c-.43-.11-.85-.25-1.28-.37l-2.4-.72-.93-.3-2.2-.72c-.45-.15-.9-.29-1.34-.45-.71-.24-1.43-.5-2.13-.76s-1.46-.59-2.17-.91l.05,0c-.3-.13-.59-.28-.89-.42l-.44-.23a4,4,0,0,1-.46-.24l-.83-.47-1.69-1-.08-.06-.38-.24-1.21-.8c-.4-.26-.8-.51-1.18-.78l-1.9-1.33c-.28-.21-.57-.41-.86-.61l-.3-.22-.08,0-3.06-2.48-2.36-2.2-.57-.54-1.51-1.47c-.38-.38-.76-.76-1.15-1.13l-.57-.59-2.39-2.55c-.08-.08-.15-.17-.22-.25l-.54-.62-1.37-1.56-.51-.61c-.45-.54-.9-1.09-1.36-1.63l-1.1-1.32-.09-.12c-.15-.19-.3-.39-.44-.59l-2.07-2.73a.1.1,0,0,1,0,0L112,87.92l-.57-.89c-.43-.68-.87-1.36-1.31-2l-.34-.54c-.22-.34-.42-.68-.63-1-.44-.73-.87-1.47-1.28-2.22s-.77-1.5-1.12-2.27c-.18-.38-.34-.76-.5-1.14s-.28-.66-.41-1l-.69-1.66-.73-2.08c-.12-.36-.25-.71-.37-1.07-.07-.19-.11-.38-.17-.57l-.84-3c0-.16-.1-.33-.14-.5s-.13-.6-.21-.9c-.23-1-.47-2.08-.7-3.12-.07-.29-.13-.57-.2-.86s0-.29-.08-.44c-.29-1.66-.59-3.32-.89-5a.2.2,0,0,1,0,.07c-.18-1.64-.37-3.29-.55-4.93,0-.14,0-.27,0-.41s0-.48,0-.71c-.08-1.07-.17-2.14-.25-3.2L99.85,47c0-.89-.11-1.79-.16-2.69l-.12-2,0-.51-.06-1.49c0-1-.09-2-.13-3,0-.42,0-.83,0-1.24l-.15-5.31c0-.5,0-1-.06-1.5,0-1-.07-2-.11-3.06,0-.35,0-.71,0-1.06l-.15-3.12c-.06-1-.1-2.08-.18-3.12-.12-1.73-.24-3.46-.35-5.2l-.3-4c0-.39-.06-.78-.1-1.16l-.27-2.91-.12-1.13c-.1-.95-.21-1.91-.31-2.87C97,.45,96.87-.83,96.74-2.11L96.54-4c0-.16,0-.33-.05-.5,0-.46-.09-.93-.13-1.4l-.21-2.33c0-.19,0-.36,0-.56q0-.72-.06-1.44c0-.48,0-1,0-1.45,0-.16,0-.33,0-.49,0-.32,0-.63.06-.94h0v-.06h0a8.29,8.29,0,0,1,.13-.87l.09-.44a4.2,4.2,0,0,1,.26-.78,3.68,3.68,0,0,1,.39-.63,5.23,5.23,0,0,1,.45-.49h0l0,0,0,0,.24-.19a4.05,4.05,0,0,1,.59-.36l.63-.31.19-.09,1.5-.75a.27.27,0,0,0,.08-.34.26.26,0,0,0-.14-.11h-.06a.3.3,0,0,0-.12,0c-.76.39-1.53.77-2.31,1.15a4.81,4.81,0,0,0-.86.58,3.72,3.72,0,0,0-.55.57l0,.05a4.14,4.14,0,0,0-.41.67l-.18.47a6.34,6.34,0,0,0-.21.86c0,.14,0,.29-.07.43l-.08.56,0,.49c0,.34,0,.67,0,1,0,1,0,1.92,0,2.89,0,.2,0,.37,0,.56s0,.26,0,.4c0,.55.1,1.11.16,1.66.06.72.12,1.44.19,2.15l.06.59c.06.54.12,1.08.17,1.62.15,1.43.3,2.85.46,4.27.09.87.19,1.75.29,2.63.06.6.11,1.21.17,1.82.08.81.15,1.62.23,2.42l0,.5c0,.54.09,1.09.13,1.63.1,1.36.2,2.73.29,4.09l.21,3,.09,1.28c.09,1.84.18,3.67.28,5.51,0,.36,0,.71,0,1.07,0,1,.08,2.09.11,3.13,0,1.36.09,2.71.13,4.07,0,.87,0,1.75.08,2.63,0,.44,0,.87.05,1.31,0,1,.09,2,.13,3l.06,1.24c0,.18,0,.35,0,.53.1,1.57.2,3.13.29,4.69l0,.42.1,1.22c.08,1,.16,2.09.25,3.14,0,.18,0,.37,0,.55l.06.55.36,3.15c0,.41.08.82.13,1.23,0,.1,0,.22,0,.32s0,.1,0,.14c.13.67.25,1.35.37,2,.16.93.33,1.86.5,2.79l.09.52,0,.16c0,.19.09.38.14.57.21,1,.43,1.92.65,2.88.08.37.16.74.25,1.11,0,.15.07.29.11.44l.75,2.68c.09.33.19.68.28,1s.14.4.21.59c.29.86.59,1.72.89,2.58l.14.35c.18.45.37.89.55,1.34l.51,1.23c.23.53.47,1.06.71,1.59.43.93.91,1.83,1.41,2.71.26.45.52.89.79,1.33s.37.63.57.94l1.32,2c.24.37.47.74.71,1.1l.29.46c.49.72,1,1.45,1.45,2.18l.42.62.08.11.32.43,1.69,2.24.48.64.06.07.36.43,1.86,2.23.52.62c.15.19.32.37.48.55l1.75,2a3.33,3.33,0,0,0,.25.28l1,1,1.71,1.82.27.27,1.06,1,1.77,1.74.31.28c.38.36.76.72,1.15,1.07l1,.9a2.7,2.7,0,0,0,.31.28l1.92,1.57.95.76.29.23,2.17,1.53c.4.29.8.58,1.21.85l2.35,1.53a3.73,3.73,0,0,0,.37.23l1.08.62,1.08.62.19.11.88.45.89.43a48.63,48.63,0,0,0,4.78,1.85l.55.17,1.47.48,2,.65.48.14,1.5.46,1.19.35.37.11,2.39.6,2,.49c.13,0,.26.06.39.09l1.39.29,4,.85c2.64.54,5.27,1.07,7.9,1.64q8.16,1.76,16.32,3.56.85.18,1.71.39l2.65.6c1.35.3,2.7.62,4,.94l4,.94,3.82.89,2,.47.46.1,1.52.31,1.28.26.46.1,2.23.36,2.19.36.28,0,1.24.15,2.69.33.43,0,1.08.1,2.47.22.34,0,1.3,0,2.59.08.4,0H230l4.18,0,4-.09q4.2-.09,8.42-.15c2.67,0,5.34-.06,8-.07q8.41,0,16.83,0h7.79l2.44,0h.86l.89,0c.58,0,1.15,0,1.73-.07s.91-.08,1.37-.12.94-.12,1.41-.18l1-.15.54-.09,2.58-.52c.47-.1.95-.18,1.42-.3l2.73-.66a3.89,3.89,0,0,0,.43-.11l1.05-.32,1.32-.4.61-.19,2.34-.83c.53-.18,1.05-.39,1.58-.59l2.1-.79,1.91-.75,1.37-.54,1-.39,1.57-.58.19-.07.85-.27,1.65-.54,1-.27,1.84-.5,1-.25.89-.2c.47-.1.94-.17,1.4-.24h-.06c.56-.08,1.12-.16,1.69-.19l1.27-.09.83,0h2.27l.69,0c.25,0,.51,0,.76,0l1.25.12H329l1.18.19.36.07.87.19c.34.07.68.16,1,.25l.43.11.74.21c1.55.44,3.08,1,4.61,1.51l2.08.71Z" transform="translate(63.2 157.91)"/><path class="a" d="M130.12,108.6l0,0,0,0Z" transform="translate(63.2 157.91)"/><path class="a" d="M216.47,135h0Z" transform="translate(63.2 157.91)"/><path class="a" d="M96.16-13.17v0a.43.43,0,0,1,0,0v0Z" transform="translate(63.2 157.91)"/><path class="a" d="M97.5-16.41h0Z" transform="translate(63.2 157.91)"/><path class="a" d="M773.68-141.82q-.25.42-.48.87t-.42.81c-.09.17-.17.34-.25.51s-.21.45-.32.67-.11.27-.16.41-.23.54-.35.82l-.12.3c-.11.31-.23.61-.34.92s-.23.61-.33.91-.31.85-.45,1.27l-.55,1.65c-.14.4-.25.8-.37,1.19-.26.88-.53,1.75-.79,2.63s-.48,1.61-.74,2.4l-.38,1.14c-.1.3-.21.61-.32.92,0,.14-.09.29-.15.43l-.52,1.39c-.17.44-.36.89-.54,1.34l0-.06c-.22.53-.43,1-.64,1.58s-.49,1.22-.72,1.83l-1.59,4.28c-.44,1.18-.84,2.38-1.19,3.6-.27.92-.47,1.87-.66,2.81-.1.48-.17,1-.25,1.44s-.1.69-.14,1-.1,1-.14,1.46-.07,1-.09,1.46c-.05,1,0,2,0,2.94,0,.48.07,1,.11,1.44,0,.33,0,.67.08,1s.07.64.1,1c.09.85.19,1.71.28,2.57.05.53.12,1.06.19,1.59.17,1.35.33,2.71.51,4.07.12.93.25,1.87.37,2.8l.18,1.31c.24,1.6.47,3.2.71,4.81,0,0,0,0,0,0,.21,1.64.41,3.28.61,4.93.06.48.09,1,.14,1.46.1,1,.19,2.07.29,3.1,0,.14,0,.27,0,.41l.06,1.21c0,.81.08,1.63.11,2.44.06,1.46.11,2.91.18,4.37.05,1,.11,2,.16,3,0,.51.07,1,.11,1.55.07,1,.15,2.06.23,3.09,0,.28,0,.55.06.82s0,.45.07.67c.11,1,.23,2.05.34,3.08,0,.48.1,1,.17,1.44.22,1.56.44,3.11.67,4.67s.48,3.34.73,5v0c.2,1.71.42,3.41.63,5.12,0,.2,0,.38,0,.6,0,.52.09,1.05.13,1.58.09,1.23.14,2.47.17,3.71s0,2.54,0,3.81-.17,2.49-.31,3.72h0q-.06.54-.15,1.08c-.07.54-.16,1.08-.26,1.61-.18,1-.41,2.09-.67,3.13A44.17,44.17,0,0,1,764.91-7l0-.06c-.18.45-.37.9-.56,1.35s-.41.88-.62,1.32c-.42.87-.89,1.72-1.36,2.57s-1,1.74-1.56,2.6c-.65,1-1.33,2-2,3v0l-3,4.06c-.22.3-.44.6-.67.89l-1.77,2.13c-.59.72-1.19,1.43-1.78,2.14-.24.29-.48.58-.73.86l-3.67,4.23c-.23.28-.48.55-.72.82l-2.19,2.48-2.52,2.87-6.33,7.22-.25.29-.84,1-1.73,2-.35.46-.93,1.18c-.4.52-.81,1-1.2,1.54l-1.65,2.2c-.39.51-.78,1-1.16,1.53l-3,4.09-.75,1.06c-.62.9-1.24,1.8-1.87,2.69l-.36.51-.34.52-1.75,2.63c-.84,1.25-1.65,2.52-2.47,3.79s-1.63,2.46-2.44,3.69c-.28.43-.56.85-.85,1.27l-1.69,2.48c-.34.49-.67,1-1,1.47l-1.64,2.32-1.1,1.56c-.55.76-1.1,1.53-1.64,2.3-.35.47-.69,1-1,1.43l-1.63,2.34-1.43,1.91c-.44.59-.89,1.16-1.34,1.74l-.76,1-.45.54L698,83.22l-.09.1-.35.37-1.17,1.25-.35.37a.52.52,0,0,1-.1.11l-1,1-.95.88c-.18.17-.36.32-.55.47l-1.95,1.64-1.72,1.34-1,.76-.44.32L686,93.44l-.59.41-.16.1-.59.4-2.4,1.57c-.45.3-.91.57-1.38.85l-2.37,1.44c-.47.28-1,.55-1.44.82l-2.25,1.26-.36.19-1.36.73-1.88,1-.49.25-1.39.73L665.82,105l-4.88,2.45c-.22.12-.44.22-.67.32l-2,1-3.29,1.54L650.43,112l-1.67.65c-.11,0-.22.07-.32.11l-1.25.41-4.72,1.53-.44.13-1.09.3-3.2.9-1.75.49-.3.07-1.18.3-5.25,1.3c-.34.09-.68.15-1,.22l-3.07.65-2.27.48-1.19.22-5,.92-.4.06-1.2.2-3.09.5-1.11.17-3.06.46-3.83.57-2.81.42-1.05.17-5.6,1-.87.16-.23,0-2.08.43-5.11,1.07-1.06.25-3.05.73-2.63.62-1,.23-5.51,1.47-1.6.43-.29.08-1.12.34-5.53,1.69-3.61,1.06c-1.22.35-2.43.72-3.65,1.06l-2.81.77-1.23.34-.53.15-3.42.84-1.18.29-.2.05-.92.2-1.89.41-.9.21c-1.33.31-2.66.62-4,1a.24.24,0,0,0-.16.3.23.23,0,0,0,.29.18c.89-.23,1.79-.44,2.68-.65l1.87-.44,2.67-.59.67-.14.77-.2,2.88-.7,1.34-.34,4.86-1.34,1.33-.4,3.12-.91,1.75-.51,1.4-.43,5.53-1.68.39-.12.39-.1,2.67-.71,2.94-.79,1-.27.4-.1,4.82-1.14,2.27-.54,1-.21,5.73-1.2c.32-.07.65-.15,1-.2l2.28-.39,4.68-.81.48-.07,1.18-.18,3.24-.49,3.86-.57,2.13-.32.4-.06,1.45-.24,2.84-.46,1.17-.2,5.26-1c.35-.06.69-.14,1-.21l3.07-.65,2.28-.48c.36-.07.72-.17,1.08-.26l5.53-1.37.85-.23,2.81-.79,2.67-.74.56-.16.46-.15,5.39-1.75.44-.15.42-.16,2.7-1,2.56-1,.54-.21.36-.17,5.07-2.36.85-.41,2.55-1.28c1.17-.59,2.34-1.18,3.5-1.78l2.63-1.36c.5-.26,1-.51,1.51-.78l2.25-1.2c.49-.26,1-.52,1.47-.8l2.46-1.37.76-.43.56-.34L681.53,97l.7-.42c.2-.13.39-.27.59-.39l2.44-1.61.43-.28.94-.67,2.15-1.53.35-.27,1.27-1,1.07-.82.34-.27,2.1-1.77.4-.34.94-.89,1-.89c.18-.16.34-.35.51-.53l1.6-1.71.15-.18c.12-.14.24-.3.37-.44.38-.47.77-.94,1.16-1.4l.52-.63c0-.06.09-.13.15-.19l.36-.48L702,79c.17-.23.36-.46.53-.7l1.53-2c.09-.11.18-.24.26-.35l1-1.38,1-1.38L708,70.68c.89-1.23,1.76-2.47,2.63-3.71.26-.36.52-.73.77-1.1.57-.83,1.13-1.66,1.7-2.48.32-.48.65-1,1-1.42l1.39-2.1L716.72,58c.4-.61.79-1.22,1.18-1.83l1.32-2c.37-.57.76-1.14,1.13-1.71l1.38-2.07c.07-.11.14-.2.21-.3l.86-1.24c.51-.74,1-1.48,1.55-2.21.22-.33.45-.65.69-1L727.72,42h0l0-.05v0l2.83-3.75c.11-.15.23-.3.35-.44.3-.4.62-.8.92-1.19l.88-1.12c.11-.14.22-.29.34-.43l1.79-2.13c.35-.41.69-.84,1-1.24l3.41-3.9,3.11-3.54c.85-1,1.7-1.94,2.56-2.9s1.83-2.06,2.73-3.1l3.7-4.26.63-.76,2-2.42L755.54,9l.17-.21.7-.95,1.86-2.5.7-1,.18-.24c.13-.17.25-.35.37-.53.59-.84,1.16-1.7,1.72-2.57s1-1.72,1.55-2.6a42.52,42.52,0,0,0,2.58-5.3c.18-.45.36-.91.52-1.37s.33-.92.48-1.38c.33-1,.6-2,.86-3s.48-2.08.67-3.13.35-2.19.48-3.29.2-2.17.25-3.25,0-2.18,0-3.27,0-2.13-.11-3.2c0-.52-.07-1.05-.11-1.58l-.09-1.05c0-.19,0-.37-.05-.55-.21-1.67-.42-3.34-.62-5-.05-.42-.12-.83-.18-1.24L767-41.5c-.28-1.89-.54-3.78-.81-5.67-.17-1.58-.35-3.16-.52-4.74,0-.16,0-.31,0-.47,0-.46-.07-.91-.1-1.36-.08-1-.15-2-.23-3,0-.52-.05-1-.08-1.57l-.15-3c0-.65-.06-1.31-.08-2s0-1.32-.09-2c0-1-.09-2-.13-3,0-.15,0-.31,0-.46,0-.41-.07-.82-.11-1.23l-.28-2.94c0-.16,0-.32,0-.48l-.12-1c-.13-1-.26-2.07-.38-3.09-.06-.46-.11-.91-.18-1.37l-.41-2.8c-.07-.47-.14-.94-.2-1.41,0-.2-.07-.41-.1-.62l-.63-4.81v0c-.12-1-.24-2-.37-3l-.16-1.36c0-.33-.07-.67-.11-1-.12-1.08-.24-2.17-.33-3.26-.06-.64-.11-1.29-.15-1.93s0-1.3,0-2a34.08,34.08,0,0,1,.26-3.91h0c.06-.47.13-.93.2-1.4.1-.64.23-1.27.36-1.9.1-.47.22-.94.34-1.41.16-.62.35-1.22.54-1.83.15-.45.31-.9.47-1.36l.24-.69c.23-.61.46-1.22.68-1.83l.85-2.28c.28-.74.57-1.48.86-2.21,0,0,0,0,0,.06.26-.66.53-1.31.79-2,.15-.37.3-.74.44-1.11s.31-.83.47-1.24c.05-.13.09-.26.13-.39L768-125c.12-.36.25-.72.36-1.08s.23-.68.33-1,.29-1,.44-1.44l.61-2c.22-.72.43-1.44.66-2.15.17-.5.33-1,.5-1.48s.24-.69.36-1,.23-.64.34-1,.33-.87.49-1.31a.14.14,0,0,1,0,.06c.12-.29.24-.58.37-.87,0-.14.11-.27.17-.41s.13-.29.2-.43c.15-.31.29-.62.45-.92s.22-.42.32-.64l.49-.87a.25.25,0,0,0-.09-.34.15.15,0,0,0-.11,0,.23.23,0,0,0-.21.13Zm-7.46,94.65v0ZM727.72,42h0l0,0,0,0ZM767.2-37v0Zm-4.88-51.35v0Zm-.91-16.28a.11.11,0,0,1,0,0v0Z" transform="translate(63.2 157.91)"/><path class="a" d="M89.43-17c-.05,1.13-.1,2.27-.16,3.4,0,.86,0,1.71-.09,2.57s-.05,1.67-.08,2.51c0,.43,0,.86,0,1.29,0,.68-.09,1.35-.14,2s-.14,1.31-.22,2v-.06c-.15,1.07-.32,2.14-.55,3.2s-.52,2.18-.84,3.26A64.88,64.88,0,0,1,85,9.53l0-.06q-1.08,2.4-2.18,4.78l-.15.31c-.2.37-.39.74-.59,1.1l-1.57,2.93-.34.64-.07.11c-.1.15-.2.3-.29.45l-1.79,2.84-.6.93c-.09.14-.18.28-.28.41l-1.86,2.64c-.73,1-1.48,2-2.22,3l-1.66,1.94-.15.17c-.1.11-.2.2-.29.31L69.88,33.2c-.16.18-.33.35-.51.52l-1.1,1.06-.21.21-.45.39-.61.53-.69.56-.38.28c-.21.14-.44.27-.66.4-.38.21-.78.4-1.18.58l.06,0a22.76,22.76,0,0,1-2.93.95c-.52.13-1,.24-1.56.35l-1.11.22-2.87.52L54,40l-3.18.52-4.44.7-2.57.37-2,.3-2.12.34-3,.5-.88.15-.78.16-3.13.61L30.21,44l-3,.62L25.46,45l-3,.67-1.64.34-3.14.65L16.16,47l-3.22.61-1.49.27-3.24.57-1.42.24-3.33.54c-1.53.25-3.07.48-4.61.71l-4.53.67L-14.94,52l-3.15.48-1.7.29-5.18.9c-1.49.26-3,.54-4.44.83l-2.42.46-2,.4-2.52.54-2.33.53c-.71.16-1.4.34-2.1.52l-1.06.28-1.47.4-.82.26-1.35.44-.25.1-.68.26-1.32.51-.21.09-.61.28-1.46.66-.16.08-.52.29c-.48.26-1,.52-1.44.79-.23.12-.44.26-.66.39l-1.31.8c-.33.19-.65.41-1,.62l-1.71,1.13a.24.24,0,0,0-.09.34.24.24,0,0,0,.34.09c.53-.35,1.06-.71,1.61-1.06l1-.67c.1-.07.21-.12.32-.19l.68-.41.64-.4.27-.16,1.18-.64.66-.37a3.07,3.07,0,0,1,.31-.16l2.27-1,2.2-.84a2,2,0,0,1,.35-.11l.75-.25.71-.23.31-.1,1.38-.38,1.09-.29q1-.27,2.1-.51l2.41-.56,2.46-.52,2-.41,2.37-.46c1.48-.28,3-.56,4.45-.82l5.17-.91,1.76-.29,3.09-.48,1.77-.26,2.91-.42c3-.44,6.07-.87,9.1-1.34,1.55-.23,3.09-.46,4.64-.71l3.33-.54,1.44-.24,3.22-.57L13,48.09l3.18-.59,1.55-.3,3.09-.64c.57-.12,1.15-.23,1.72-.36l2.93-.64c.63-.14,1.25-.29,1.88-.42l2.87-.6L32,44.17l3.09-.61.88-.17.77-.13,3.06-.52,2-.32c.67-.11,1.35-.22,2-.31l2.67-.39.81-.13,1.79-.28L50.88,41c1.6-.27,3.21-.52,4.8-.8l3-.53.63-.12,1.57-.34c.51-.11,1-.25,1.52-.4A16.6,16.6,0,0,0,64,38.28c.43-.17.84-.37,1.25-.58.24-.12.46-.25.69-.39l.59-.41c.44-.34.86-.71,1.28-1.08.24-.2.48-.4.71-.62l1.17-1.13.51-.52,1.18-1.22.22-.23c.07-.07.13-.15.2-.23L73,30.56l.4-.48a1.07,1.07,0,0,0,.14-.16l.71-1c.42-.57.85-1.14,1.26-1.72l1.83-2.58.51-.72.08-.12.28-.45L80,20.53l.59-.94.21-.36,1.45-2.72c.23-.43.46-.86.7-1.29l.21-.4a.8.8,0,0,0,.08-.16c.73-1.61,1.47-3.21,2.21-4.82l.07-.18c.22-.51.43-1,.64-1.56C86.58,7,87,5.82,87.39,4.66s.65-2.14.94-3.23.52-2.32.71-3.5c.16-1,.29-2.06.38-3.1,0-.58.08-1.15.12-1.73,0-.27,0-.53,0-.79l.09-2.78c0-.44,0-.88,0-1.32s0-1,.05-1.47c0-1.23.11-2.47.17-3.7a.25.25,0,0,0-.25-.25.25.25,0,0,0-.25.25ZM73.08,29.64l0,0,0,0Z" transform="translate(63.2 157.91)"/><path class="a" d="M94.26-6.49l-1.3.7c-.58.32-1.16.64-1.71,1a17.27,17.27,0,0,0-2.2,1.68c-.41.35-.79.72-1.17,1.08l-.57.56-.23.23c-.65.69-1.32,1.38-2,2.08l-.63.65L84,2C83,3.11,82,4.23,81,5.37L77.16,9.61l-.84.93L74.09,13c-.84.93-1.7,1.86-2.54,2.78-1.21,1.32-2.41,2.64-3.63,4L66.74,21c-.78.81-1.55,1.62-2.32,2.44-.42.45-.85.89-1.27,1.33-.11.13-.24.24-.36.36l-1,1-2.41,2.34-.79.78c-.09.08-.17.17-.26.24l-4.21,3.7-.72.64-.23.2-1.92,1.52-3.63,2.89a.1.1,0,0,1,0,0l-4.27,3.07-1.4,1c-.56.4-1.13.78-1.69,1.16L37.6,45.42c-.35.24-.7.49-1.06.72l-4.74,3.1L30.57,50l-2.73,1.71-.55.34-.16.1-.53.29L23.84,54l-.51.3-.87.45L19.8,56.16l-.4.2L18,57l-1.36.64-.53.24-3.07,1.31h0l-1.85.72-.7.28-.76.28c-.51.19-1,.39-1.54.55L7,61.43a5,5,0,0,1-.55.16L4.77,62c-.63.16-1.27.32-1.9.46L2,62.71l-1,.21c-.55.12-1.11.19-1.66.28h.07c-.75.09-1.48.19-2.23.26l-2.51.27L-7.54,64c-.63.08-1.25.17-1.87.28s-1,.23-1.49.37-1.16.36-1.73.57c-.93.33-1.84.74-2.73,1.15a14.66,14.66,0,0,0-1.31.67,16.64,16.64,0,0,0-1.49,1c-.78.56-1.52,1.18-2.25,1.81s-1.66,1.52-2.45,2.33a62.25,62.25,0,0,0-4.36,5l-.87,1.1-.48.64a1.46,1.46,0,0,0-.17.22l-.38.54-3.54,5.05c-.21.3-.43.6-.62.91l-1.32,2.13c-.58,1-1.17,1.9-1.76,2.85l-.57.91-.19.32-2.7,4.71-.21.37-.45.84c-.47.9-1,1.8-1.43,2.7-.31.56-.59,1.13-.88,1.7s-.63,1.23-.93,1.86l-.69,1.41-.3.61c-.32.7-.65,1.4-.95,2.12-.18.4-.35.8-.52,1.21l-.12.29-.33.86c0,.11-.1.23-.14.34l-.18.55c-.08.21-.15.42-.22.63-.14.39-.24.8-.36,1.2a.25.25,0,0,0,.17.31.25.25,0,0,0,.31-.18c.14-.45.26-.91.41-1.35s.23-.66.34-1,.16-.42.24-.63l.33-.84,0,.06c.27-.64.54-1.29.83-1.92s.62-1.36,1-2l1-2,1.33-2.6c.29-.58.61-1.15.91-1.72.39-.72.78-1.46,1.16-2.18.09-.17.19-.32.28-.49.25-.42.49-.85.74-1.28L-37,92.55c.15-.27.3-.53.46-.79l1.19-1.93,2.56-4.13.13-.2.48-.68,1.68-2.39,1.59-2.28.48-.68c.23-.33.48-.65.73-1h0c.65-.85,1.32-1.69,2-2.51s1.5-1.74,2.29-2.58a42.37,42.37,0,0,1,4.91-4.56,22.78,22.78,0,0,1,2.28-1.54c.36-.2.73-.38,1.1-.55s.93-.42,1.4-.62l-.06,0,1.27-.5c.49-.18,1-.35,1.5-.5s1-.27,1.46-.38,1-.19,1.56-.26h0c1.44-.18,2.88-.35,4.33-.5l1.33-.14,1.26-.14.43-.06.39-.06.75-.12.4-.07,1.2-.25.49-.11.82-.19,1-.26c.31-.08.63-.15.94-.24L6.72,62,6.94,62l.81-.25.68-.22.22-.07,1.35-.5.73-.27,1.39-.55,1.06-.41.73-.31,2.54-1.09.54-.25,1.52-.72,1.21-.57.45-.22c.91-.49,1.83-1,2.75-1.44l.67-.35.16-.1.52-.29L27,52.78l.39-.22.12-.07.71-.44c.92-.58,1.84-1.16,2.77-1.73l1.13-.73L34.69,48l2.18-1.43.24-.16.93-.63,2.74-1.89,1.06-.72.42-.3c1.47-1,2.92-2.09,4.37-3.13l1-.7c.13-.09.27-.18.39-.28l1.5-1.19,4.14-3.3a4.15,4.15,0,0,0,.32-.27l1-.87c.84-.74,1.68-1.47,2.52-2.22l.93-.81.27-.24.1-.08,1.45-1.42c.8-.77,1.59-1.56,2.4-2.33l.75-.74.23-.23c1.31-1.38,2.61-2.76,3.92-4.13.29-.31.59-.61.87-.92l1.71-1.87L77,10.54c1-1,1.88-2.09,2.82-3.13l2.85-3.16,1.86-2c.28-.31.57-.62.86-.92l1.89-2c.31-.33.64-.65,1-1a26.87,26.87,0,0,1,2.12-1.88c.44-.34.9-.65,1.36-1s.72-.43,1.09-.62l1.71-.94a.24.24,0,0,0,.09-.34.25.25,0,0,0-.21-.12.31.31,0,0,0-.13,0Z" transform="translate(63.2 157.91)"/><path class="a" d="M339,135l-2-.27c-.58-.08-1.17-.14-1.75-.21l-1.75-.21-4.46-.51-4.14-.48-1.47-.17-2.48-.27-1.83-.2-2.1-.21-3.88-.4-2.59-.27-1.27-.13-2.8-.25-1.33-.12-4.65-.28H300l-1.17,0c-.95,0-1.91,0-2.86-.09h-1.12l-2.95,0h-.72l-.48,0-2.88.12h-.48l-.85.07-2.44.21-.45,0-1.25.13-2.33.25-1.35.17-2.86.36-3.89.48-1.36.16-2.56.27-1.24.14-.44,0-2.28.13-1,.06c-.14,0-.29,0-.43,0l-2.58,0-.39,0-1.19-.06-2.19-.12-.16,0-.42-.05-1.31-.14-2.08-.23h0l-2.24-.43-1.22-.23-.53-.14-2.83-.76-.18-.05-.85-.26-.85-.28c-.43-.14-.85-.29-1.27-.45-.57-.21-1.12-.45-1.68-.69l.06,0-1.24-.59-.51-.26-1.06-.59-1.05-.58c-.22-.13-.43-.27-.64-.41l-1.18-.78-.46-.3-2.19-1.5-.39-.28-1.08-.78-1.41-1L226,119.89l-1.83-1.34-.31-.23-1.14-.79L220.5,116l-.43-.3-.11-.08-.46-.28-2.35-1.49-1-.66-.44-.28-4.18-2.43-.87-.5-2.58-1.43-1.45-.81-.46-.24-1.28-.68c-1.13-.61-2.27-1.21-3.41-1.8l-3.62-1.89-2.31-1.21-1.09-.57-.48-.25-4-2.18-1.31-.74-2.41-1.37-1.2-.71-2.23-1.34-1.41-.86-1.77-1.1-3.89-2.35-3.81-2.27c-1.06-.64-2.12-1.26-3.19-1.89L165.5,84.4c-1.22-.71-2.46-1.42-3.68-2.14l-3.74-2.18c-1.19-.7-2.37-1.4-3.56-2.08q-2.07-1.2-4.16-2.38l-.82-.48-2.43-1.45-2-1.19c-.37-.22-.73-.45-1.09-.68l-2.41-1.49-1.18-.73-2.26-1.37-.69-.43c-.22-.13-.44-.28-.66-.43L135,66.17l-.58-.4-1.35-.92-.74-.5-.39-.29-2.32-1.77-.39-.29-.54-.45-2.39-2-.84-.69c-1-.82-1.91-1.64-2.85-2.49s-1.84-1.74-2.72-2.65-1.72-1.85-2.53-2.82-1.59-2-2.33-3c-.27-.39-.54-.77-.8-1.17s-.54-.82-.8-1.24c-.61-1-1.17-2-1.72-3a61.13,61.13,0,0,1-2.9-6.44l0,.06c-.25-.64-.49-1.27-.72-1.91s-.56-1.6-.82-2.41-.52-1.62-.77-2.44c-.11-.35-.22-.71-.32-1.08-.32-1.24-.64-2.48-1-3.73s-.61-2.35-.92-3.52c0-.18-.07-.36-.11-.54-.12-.64-.25-1.28-.38-1.93l-.9-4.56-.21-1.08a.68.68,0,0,1,0-.14c0-.18-.06-.36-.08-.54l-1.11-7.66c-.13-1.15-.24-2.31-.34-3.46-.11-1.35-.17-2.7-.21-4s0-2.81,0-4.21.16-2.65.31-4v0c.06-.46.12-.93.19-1.4.1-.63.23-1.26.37-1.88s.25-1,.39-1.45.39-1.22.62-1.81c.06-.15.13-.29.19-.44s.26-.58.4-.87c.28-.6.57-1.18.87-1.77a.25.25,0,0,0-.08-.33.17.17,0,0,0-.11,0,.24.24,0,0,0-.2.12c-.45.87-.87,1.75-1.28,2.64a21.53,21.53,0,0,0-.85,2.37,25.47,25.47,0,0,0-.68,2.87c-.17.95-.29,1.92-.39,2.89a53.47,53.47,0,0,0-.24,6.2c0,2.21.17,4.41.37,6.61L101,4.11c0,.17,0,.39.07.58s0,.32.07.49l.39,2.73c.25,1.67.49,3.35.73,5,0,.07,0,.14,0,.21.06.26.11.52.16.78.19,1,.39,2,.59,3s.37,1.91.56,2.87c.06.31.13.63.19.95,0,.12,0,.25.08.37l1.26,4.84c.19.76.39,1.52.59,2.28.07.26.14.51.22.77.34,1.14.7,2.28,1.07,3.41.59,1.79,1.26,3.56,2,5.3.39.94.79,1.87,1.22,2.79s1,2.1,1.59,3.12,1,1.73,1.51,2.57.91,1.39,1.39,2.06,1.14,1.55,1.74,2.3,1.42,1.71,2.17,2.53,1.3,1.38,2,2,1.37,1.32,2.08,2,1.42,1.24,2.14,1.86l.71.6,2.1,1.73,1,.82c.15.13.29.26.44.37l1.82,1.38,1,.75.41.3c.71.47,1.41,1,2.11,1.43.48.33,1,.65,1.45,1l1.14.75.38.24,2.26,1.38L143,71.76l1.69,1L145,73l1.08.64,2.47,1.47,1.23.73L154,78.25c1.17.67,2.33,1.36,3.5,2l3.58,2.1c1.13.67,2.27,1.32,3.41,2l3.15,1.83c1.14.68,2.3,1.34,3.44,2l4.29,2.57c1.23.73,2.45,1.47,3.68,2.22l3.36,2.06,1.34.8c.69.42,1.38.84,2.08,1.25l.38.22,1.1.62,2.27,1.28c.42.24.84.46,1.26.69l2.55,1.38,1,.51,2.62,1.38,3.45,1.79,1.62.85,1.73.92c.76.4,1.52.8,2.27,1.21l1,.56,2.42,1.35,1,.58c.15.08.3.15.44.24l4.18,2.44a3.37,3.37,0,0,1,.32.19l.56.35,2.55,1.61,1,.61.32.2,1.82,1.28,2,1.43,1.24.9q1.78,1.34,3.59,2.64l3.43,2.5c.13.1.27.19.41.28l1.16.8.86.58.76.5,1.13.74.22.15.21.12,2.1,1.16.41.21.82.39.89.4c.83.37,1.68.68,2.53,1l1.27.41c.18.06.34.11.51.15l1.19.32,2.17.58.1,0,.39.07,1.55.3,1.22.24.4.07,2.34.26,1.23.13a3.29,3.29,0,0,0,.44,0l2.4.14c.49,0,1,.06,1.45.06l2.62,0h.39l1.15-.07,1.39-.08.49,0h.21l4.28-.45.51-.07,1.22-.15,2.68-.33,4-.5,1.14-.14,2.82-.3,1.3-.13,2.7-.23.4,0,1,0,2.66-.11h1.45l2.8,0,1.15,0,3,.09c.38,0,.76,0,1.14,0l2.69.16,2,.12.39,0,1.41.12c.87.09,1.74.17,2.62.24l1.27.13c1.34.15,2.68.3,4,.43l2.66.27c.51,0,1,.09,1.53.15l2.4.26,1.85.2,4,.47,5.79.66,2.66.31.91.11,1.88.25.32,0C339,135.34,339,135.17,339,135Z" transform="translate(63.2 157.91)"/><polygon class="a" points="315.5 290.74 315.5 290.74 315.5 290.73 315.5 290.74 315.5 290.74 315.5 290.74"/><path class="a" d="M101.25-11.09v0Z" transform="translate(63.2 157.91)"/></svg>