<?xml version="1.0" encoding="UTF-8"?><svg id="a" xmlns="http://www.w3.org/2000/svg" viewBox="0 0 256.4 394.84"><defs><style>.b{fill:#231f20;}</style></defs><path class="b" d="M255.33,297.44c-1.65,10.6-4.02,21.12-6.61,31.53-2.46,9.85-5.01,19.81-8.8,29.24-3.31,8.23-7.94,15.9-14.51,21.92-5.6,5.13-12.37,9-19.55,11.44-15.17,5.16-31.74,4.23-46.1-2.91-9.43-4.69-18.16-10.86-27.01-16.53-9.32-5.97-18.64-11.94-27.95-17.92-17.79-11.4-36.18-22.22-51.43-37.02-7.03-6.83-13.49-14.24-19.55-21.94-6.1-7.75-12.08-15.74-16.96-24.33-5.04-8.86-8.13-18.38-9.82-28.41-1.72-10.21-2.13-20.61-2.73-30.93-1.27-21.87-2.73-43.74-3.71-65.62-.52-11.56-.81-23.2-.37-34.79,3.22-29.37,13.06-49.89,24.16-73.15,3.8-7.97,8.34-15.8,14.09-22.53,3.01-3.52,6.4-6.73,10.4-9.1,5.27-3.12,11.35-4.49,17.36-5.29,2.76-.36,5.54-.58,8.32-.71,5.64-.26,11.59-1,17.16,.58,4.73,1.35,8.83,4.39,12.88,7.08,4.18,2.77,8.34,5.58,12.44,8.48,15.75,11.15,30.86,24.06,40.51,41.04,4.55,8,7.88,16.79,9.12,25.94,1.31,9.62-.63,18.78-1.97,28.26-1.29,9.16-1.45,18.83,4.23,26.66,5.1,7.04,12.9,11.24,19.7,16.39,13.68,10.35,24.52,23.99,33.24,38.67,8.85,14.9,15.68,30.89,21.85,47.05,3.24,8.49,6.52,17.01,9.33,25.65,1.62,4.97,2.93,10.05,3.26,15.29,.33,5.33-.15,10.69-.96,15.96Z"/></svg>