<?xml version="1.0" encoding="UTF-8"?><svg id="a" xmlns="http://www.w3.org/2000/svg" viewBox="0 0 392.94 427.99"><defs><style>.b{fill:#231f20;}</style></defs><path class="b" d="M98.29,51.14c19.75-17.92,40.45-36.38,66.05-43.86,16.05-4.69,33.05-4.73,49.77-4.74,7.03,0,14.12,0,20.97,1.58,6.85,1.57,13.24,4.67,19.47,7.91,61.32,31.91,115.98,84.53,131.54,151.88,11.99,51.91-1.31,108.83-34.16,150.78-32.85,41.95-84.36,68.4-137.53,71.83s-107.22-15.89-146.98-51.35c-28.88-25.76-50.43-59.96-59.75-97.52C-1.65,200.1,1.54,159.31,17.95,124.26c10.98-23.45,27.55-44.01,46.62-61.53,22.25-20.45,48.63-37.26,78.07-44.11s62.16-2.86,86.69,14.8"/><path class="b" d="M100.06,52.91c16.42-14.89,33.3-30.13,53.82-39.17,11-4.85,22.8-7.17,34.74-8.05,6.3-.46,12.63-.59,18.94-.62s12.64-.19,18.92,.3c11.96,.94,22.38,6.33,32.73,11.99,8.84,4.83,17.47,10.06,25.83,15.7,16.79,11.32,32.5,24.28,46.5,38.93,13.78,14.41,25.85,30.48,35.28,48.07,9.53,17.78,16.22,37.08,19.26,57.05,3.21,21.13,2.27,42.92-2.31,63.77-4.58,20.86-12.78,40.88-24.28,58.88-11.27,17.63-25.79,33.18-42.47,45.8-16.57,12.55-35.19,22.39-54.89,29-19.94,6.69-40.88,10.09-61.91,9.86-21.67-.23-43.22-4.2-63.66-11.38-20.53-7.22-39.99-17.76-57.17-31.13s-31.93-29.31-43.82-47.32c-11.87-17.99-20.77-37.92-25.8-58.9-5.43-22.63-6.3-46.44-2.33-69.38,3.92-22.66,12.58-44.06,25.34-63.17s28.29-35.14,45.78-49.13c17.26-13.82,36.88-25.16,58.22-31.27s42.95-6.59,63.67-.52c9.89,2.9,19.23,7.37,27.62,13.37,2.62,1.87,5.12-2.46,2.52-4.32-17.93-12.81-40.12-18.57-62.01-18.29s-44.67,7.15-64.46,17.93c-20.03,10.91-38.04,25.67-53.66,42.23s-29.38,36.3-38.17,57.9C3.32,153.08-.67,177.15,.09,200.93c.74,23.17,6.09,45.95,15.37,67.17,8.84,20.21,21.23,38.85,36.18,55.06,15.15,16.43,33.06,30.32,52.7,40.99,19.6,10.65,40.93,18.23,62.9,22.13,21.84,3.88,44.19,4.17,66.1,.58,21.04-3.45,41.5-10.47,60.32-20.48,18.78-9.99,36.01-23.07,50.47-38.68,14.94-16.13,26.74-34.91,35.04-55.26,8.3-20.34,12.96-42.19,13.68-64.15,.71-21.6-2.59-43.26-9.74-63.65-6.74-19.23-16.67-37.24-28.85-53.55-12.43-16.63-27.01-31.56-43.04-44.74-16.06-13.21-33.46-24.74-51.78-34.56-5.21-2.79-10.47-5.53-15.98-7.67-5.92-2.3-12.07-3.47-18.41-3.85s-12.87-.25-19.29-.19-13.12,.24-19.66,.82c-12.24,1.09-24.08,3.76-35.31,8.79-10.38,4.65-19.89,10.97-28.86,17.91s-17.12,14.29-25.38,21.78c-2.39,2.17,1.16,5.69,3.54,3.54h0Z"/></svg>