<?xml version="1.0" encoding="UTF-8"?><svg id="a" xmlns="http://www.w3.org/2000/svg" viewBox="0 0 712 712"><defs><style>.b{fill:#fff;}.c{fill:#494a49;}</style></defs><path class="c" d="m356,662c-81.74,0-158.58-31.83-216.37-89.62-57.8-57.8-89.63-134.64-89.63-216.38s31.83-158.58,89.63-216.37,134.64-89.63,216.37-89.63,158.58,31.83,216.38,89.63c57.79,57.8,89.62,134.64,89.62,216.37s-31.83,158.58-89.62,216.38c-57.8,57.79-134.64,89.62-216.38,89.62Z"/><path class="b" d="m356,100c141.39,0,256,114.61,256,256s-114.61,256-256,256S100,497.39,100,356,214.61,100,356,100m0-100c-48.02,0-94.65,9.43-138.6,28.02-42.4,17.94-80.47,43.59-113.13,76.25-32.66,32.66-58.32,70.72-76.25,113.13C9.43,261.35,0,307.98,0,356s9.43,94.65,28.02,138.6c17.94,42.4,43.59,80.47,76.25,113.13,32.66,32.66,70.72,58.32,113.13,76.25,43.95,18.59,90.59,28.02,138.6,28.02s94.65-9.43,138.6-28.02c42.4-17.94,80.47-43.59,113.13-76.25,32.66-32.66,58.32-70.72,76.25-113.13,18.59-43.95,28.02-90.59,28.02-138.6s-9.43-94.65-28.02-138.6c-17.94-42.4-43.59-80.47-76.25-113.13s-70.72-58.32-113.13-76.25C450.65,9.43,404.02,0,356,0h0Z"/></svg>