<?xml version="1.0" encoding="UTF-8"?><svg id="a" xmlns="http://www.w3.org/2000/svg" viewBox="0 0 712 648"><defs><style>.b{fill:#fff;}.c{fill:#55b948;}</style></defs><path class="c" d="m155.9,598c-58.39,0-105.9-47.51-105.9-105.9,0-19.92,5.63-39.4,16.28-56.33L282.81,90.49c15.83-25.35,43.18-40.49,73.19-40.49s57.12,15.06,73.06,40.28l216.7,345.55c10.61,16.86,16.24,36.34,16.24,56.26,0,58.39-47.51,105.9-105.9,105.9H155.9Z"/><path class="b" d="m356,100c12.5,0,24.1,6.4,30.8,17l216.6,345.4c5.6,8.9,8.6,19.2,8.6,29.7,0,30.9-25,55.9-55.9,55.9H155.9c-30.9,0-55.9-25-55.9-55.9,0-10.5,3-20.8,8.6-29.7L325.2,117c6.6-10.6,18.3-17,30.8-17m-48,245.27c4.8,0,9.6-2.12,12.8-6.38l25.6-34.1c6-8.1,15.5-12.8,25.6-12.8h49l-65-103.6-79.1,126.1,18.3,24.4c3.2,4.25,8,6.38,12.8,6.38M356,0c-22.96,0-45.73,5.85-65.84,16.93-20.3,11.18-37.51,27.46-49.76,47.08L23.92,409.21C8.27,434.1,0,462.77,0,492.1c0,21,4.13,41.42,12.28,60.69,7.86,18.59,19.08,35.26,33.38,49.55,14.29,14.29,30.96,25.52,49.55,33.38,19.28,8.15,39.7,12.28,60.69,12.28h400.2c21,0,41.42-4.13,60.69-12.28,18.59-7.86,35.26-19.08,49.55-33.38,14.29-14.29,25.52-30.96,33.38-49.55,8.15-19.28,12.28-39.7,12.28-60.69,0-29.33-8.27-58-23.92-82.89L471.52,63.87l-.09-.15-.1-.15c-12.26-19.4-29.36-35.52-49.44-46.6C401.77,5.87,378.99,0,356,0h0Z"/></svg>