<?xml version="1.0" encoding="UTF-8"?><svg id="a" xmlns="http://www.w3.org/2000/svg" viewBox="0 0 542 478"><defs><style>.b{fill:#fff;}</style></defs><path d="m271,15c12.5,0,24.1,6.4,30.8,17l216.6,345.4c5.6,8.9,8.6,19.2,8.6,29.7,0,30.9-25,55.9-55.9,55.9H70.9c-30.9,0-55.9-25-55.9-55.9,0-10.5,3-20.8,8.6-29.7L240.2,32c6.6-10.6,18.3-17,30.8-17Zm65,192l-65-103.6-79.1,126.1,18.3,24.4c6.4,8.5,19.2,8.5,25.6,0l25.6-34.1c6-8.1,15.5-12.8,25.6-12.8h49Z"/><path class="b" d="m471.1,478H70.9c-39.09,0-70.9-31.81-70.9-70.9,0-13.32,3.77-26.35,10.9-37.69L227.49,24.03c9.22-14.81,25.9-24.03,43.51-24.03s33.99,8.97,43.48,23.99l216.63,345.45c7.12,11.32,10.89,24.35,10.89,37.67,0,39.09-31.81,70.9-70.9,70.9ZM271,30c-7.33,0-14.25,3.8-18.07,9.93L36.31,385.37c-4.13,6.57-6.31,14.07-6.31,21.73,0,22.55,18.35,40.9,40.9,40.9h400.2c22.55,0,40.9-18.35,40.9-40.9,0-7.66-2.18-15.17-6.3-21.71L289.09,39.97c-3.94-6.23-10.71-9.97-18.09-9.97Zm-48,245.28c-9.84,0-18.87-4.5-24.78-12.35l-24.5-32.67,97.28-155.08,92.12,146.83h-76.12c-5.36,0-10.43,2.52-13.55,6.73l-25.66,34.18c-5.92,7.87-14.96,12.37-24.8,12.37Zm-12.92-46.53l12.12,16.16c.07.1.28.38.8.38s.73-.28.82-.4l25.59-34.08c8.7-11.74,22.77-18.79,37.6-18.79h21.88l-37.88-60.37-60.92,97.12Z"/></svg>