<?xml version="1.0" encoding="UTF-8"?><svg id="a" xmlns="http://www.w3.org/2000/svg" viewBox="0 0 612 548"><defs><style>.b{fill:#fff;}</style></defs><path d="m105.9,523c-44.61,0-80.9-36.29-80.9-80.9,0-15.21,4.3-30.08,12.44-43.01L254.02,53.72c11.01-17.69,30.95-28.72,51.98-28.72s40.6,10.71,51.93,28.64l216.65,345.48c8.12,12.9,12.42,27.78,12.42,42.98,0,44.61-36.29,80.9-80.9,80.9H105.9Zm152.1-258.7l18.36-24.46c10.63-14.31,27.69-22.85,45.64-22.85h3.8l-19.8-31.56-48.8,77.79.8,1.07Z"/><path class="b" d="m306,50c12.5,0,24.1,6.4,30.8,17l216.6,345.4c5.6,8.9,8.6,19.2,8.6,29.7,0,30.9-25,55.9-55.9,55.9H105.9c-30.9,0-55.9-25-55.9-55.9,0-10.5,3-20.8,8.6-29.7L275.2,67c6.6-10.6,18.3-17,30.8-17m-48,245.27c4.8,0,9.6-2.12,12.8-6.38l25.6-34.1c6-8.1,15.5-12.8,25.6-12.8h49l-65-103.6-79.1,126.1,18.3,24.4c3.2,4.25,8,6.38,12.8,6.38M306,0c-14.56,0-28.98,3.71-41.73,10.72-12.84,7.07-23.71,17.35-31.45,29.74L16.24,385.84C5.62,402.75,0,422.2,0,442.1c0,28.3,11.01,54.9,31.01,74.89,20,20,46.59,31.01,74.89,31.01h400.2c28.3,0,54.9-11.01,74.89-31.01,20-20,31.01-46.59,31.01-74.89,0-19.9-5.62-39.35-16.24-56.26h0S379.16,40.44,379.16,40.44l-.05-.08-.05-.08c-7.78-12.3-18.61-22.52-31.33-29.54-12.74-7.03-27.17-10.75-41.73-10.75h0Z"/></svg>