<?xml version="1.0" encoding="UTF-8"?><svg id="a" xmlns="http://www.w3.org/2000/svg" viewBox="0 0 628.06 612.06"><defs><style>.b{fill:#fff;}.c{fill:#de9d26;}</style></defs><path class="c" d="m457.48,587.06c-9.29,0-18.55-2.3-26.79-6.65l-116.63-62.27-116.63,62.27c-8.2,4.33-17.44,6.62-26.71,6.62-12.04,0-23.56-3.7-33.33-10.71-17.51-12.56-26.54-34.43-22.99-55.73l22.45-132.95-94.97-93.97c-15.35-15.18-20.77-37.45-14.11-58.13,6.55-20.36,24.52-35.58,45.79-38.77l130.59-19.28,58.53-120.42c9.73-19.82,29.36-32.07,51.28-32.07s41.91,12.62,51.32,32.15l58.49,120.35,130.64,19.27c21.46,3.22,38.99,18,45.79,38.59,6.72,20.34,1.2,43.23-14.06,58.32l-94.95,93.95,22.53,132.89c3.59,21.53-5.17,42.84-22.84,55.7-9.75,7.09-21.29,10.84-33.38,10.84h0Z"/><path class="b" d="m313.96,50c12.3,0,23.5,7,28.8,18l64.3,132.3,143.7,21.2c12,1.8,21.9,10.2,25.7,21.7,3.8,11.5.7,24.2-7.9,32.7l-104.2,103.1,24.7,145.7c2,12-3,24.1-12.9,31.3-5.54,4.03-12.09,6.06-18.68,6.06-5.17,0-10.37-1.25-15.12-3.76l-128.3-68.5-128.3,68.5c-4.73,2.49-9.89,3.72-15.04,3.72-6.61,0-13.19-2.03-18.76-6.02-9.9-7.1-14.9-19.3-12.9-31.3l24.6-145.7-104.2-103.1c-8.6-8.5-11.6-21.2-7.9-32.7s13.7-19.9,25.7-21.7l143.6-21.2,64.3-132.3c5.4-11,16.5-18,28.8-18m0-50c-15.42,0-30.48,4.32-43.54,12.51-12.96,8.12-23.39,19.69-30.15,33.46l-.04.09-.04.09-52.76,108.55-117.48,17.34h-.06s-.06.02-.06.02c-15.05,2.26-29.15,8.63-40.78,18.43-11.73,9.89-20.42,22.83-25.1,37.4-4.63,14.39-5.21,29.77-1.68,44.46,3.57,14.87,11.19,28.4,22.03,39.11l85.72,84.82-20.28,120.1v.05s-.02.05-.02.05c-2.52,15.09-.76,30.56,5.07,44.73,5.85,14.23,15.54,26.47,28.01,35.42,14.04,10.07,30.61,15.39,47.9,15.39,13.32,0,26.59-3.29,38.38-9.51l.11-.06.11-.06,104.75-55.93,104.75,55.93.11.06.11.06c11.82,6.24,25.12,9.54,38.46,9.54,17.41,0,34.04-5.4,48.09-15.62,12.34-8.97,21.92-21.15,27.73-35.22,5.84-14.17,7.6-29.63,5.08-44.73v-.07s-.02-.07-.02-.07l-20.36-120.08,85.73-84.82c10.81-10.69,18.44-24.18,22.03-38.99,3.61-14.88,2.98-30.42-1.82-44.94-4.76-14.41-13.39-27.2-24.97-36.98-11.63-9.83-25.73-16.22-40.79-18.48h-.06s-.06-.02-.06-.02l-117.57-17.35-52.72-108.47c-6.71-13.89-17.18-25.56-30.28-33.75-13.06-8.16-28.11-12.47-43.52-12.47h0Z"/></svg>